%TF.GenerationSoftware,KiCad,Pcbnew,8.0.1*%
%TF.CreationDate,2024-03-26T13:51:38-04:00*%
%TF.ProjectId,hitbox,68697462-6f78-42e6-9b69-6361645f7063,rev?*%
%TF.SameCoordinates,Original*%
%TF.FileFunction,Copper,L1,Top*%
%TF.FilePolarity,Positive*%
%FSLAX46Y46*%
G04 Gerber Fmt 4.6, Leading zero omitted, Abs format (unit mm)*
G04 Created by KiCad (PCBNEW 8.0.1) date 2024-03-26 13:51:38*
%MOMM*%
%LPD*%
G01*
G04 APERTURE LIST*
%TA.AperFunction,ComponentPad*%
%ADD10C,2.000000*%
%TD*%
%TA.AperFunction,ComponentPad*%
%ADD11C,2.032000*%
%TD*%
%TA.AperFunction,SMDPad,CuDef*%
%ADD12O,2.500000X1.500000*%
%TD*%
%TA.AperFunction,SMDPad,CuDef*%
%ADD13O,1.500000X2.500000*%
%TD*%
%TA.AperFunction,ViaPad*%
%ADD14C,0.600000*%
%TD*%
%TA.AperFunction,Conductor*%
%ADD15C,0.200000*%
%TD*%
G04 APERTURE END LIST*
D10*
%TO.P,Home,1,1*%
%TO.N,Home*%
X127750000Y-68250000D03*
X127750000Y-61750000D03*
%TO.P,Home,2,2*%
%TO.N,GND*%
X132250000Y-68250000D03*
X132250000Y-61750000D03*
%TD*%
D11*
%TO.P,B/Circle,1,1*%
%TO.N,B{slash}Circle*%
X261500000Y-122250000D03*
%TO.P,B/Circle,2,2*%
%TO.N,GND*%
X256500000Y-120150000D03*
%TD*%
D12*
%TO.P,U1,1,0*%
%TO.N,Left Bumper*%
X212034194Y-59104962D03*
%TO.P,U1,2,1*%
%TO.N,Left Trigger*%
X212034194Y-61644962D03*
%TO.P,U1,3,2*%
%TO.N,Right Bumper*%
X212034194Y-64184962D03*
%TO.P,U1,4,3*%
%TO.N,Right Trigger*%
X212034194Y-66724962D03*
%TO.P,U1,5,4*%
%TO.N,Y{slash}Triangle*%
X212034194Y-69264962D03*
%TO.P,U1,6,5*%
%TO.N,B{slash}Circle*%
X212034194Y-71804962D03*
%TO.P,U1,7,6*%
%TO.N,X{slash}Square*%
X212034194Y-74344962D03*
%TO.P,U1,8,7*%
%TO.N,A{slash}X*%
X212034194Y-76884962D03*
%TO.P,U1,9,8*%
%TO.N,Up*%
X212034194Y-79424962D03*
D13*
%TO.P,U1,10,9*%
%TO.N,Right*%
X207994194Y-80924962D03*
%TO.P,U1,11,10*%
%TO.N,Down*%
X205454194Y-80924962D03*
%TO.P,U1,12,11*%
%TO.N,Left*%
X202914194Y-80924962D03*
%TO.P,U1,13,12*%
%TO.N,unconnected-(U1-12-Pad13)*%
X200374194Y-80924962D03*
%TO.P,U1,14,13*%
%TO.N,unconnected-(U1-13-Pad14)*%
X197834194Y-80924962D03*
D12*
%TO.P,U1,15,14*%
%TO.N,unconnected-(U1-14-Pad15)*%
X193794194Y-79424962D03*
%TO.P,U1,16,15*%
%TO.N,Home*%
X193794194Y-76884962D03*
%TO.P,U1,17,26*%
%TO.N,Select*%
X193794194Y-74344962D03*
%TO.P,U1,18,27*%
%TO.N,Start*%
X193794194Y-71804962D03*
%TO.P,U1,19,28*%
%TO.N,L3*%
X193794194Y-69264962D03*
%TO.P,U1,20,29*%
%TO.N,R3*%
X193794194Y-66724962D03*
%TO.P,U1,21,3V3*%
%TO.N,unconnected-(U1-3V3-Pad21)*%
X193794194Y-64184962D03*
%TO.P,U1,22,GND*%
%TO.N,GND*%
X193794194Y-61644962D03*
%TO.P,U1,23,5V*%
%TO.N,unconnected-(U1-5V-Pad23)*%
X193794194Y-59104962D03*
%TD*%
D11*
%TO.P,Up,1,1*%
%TO.N,Down*%
X172800000Y-105450000D03*
%TO.P,Up,2,2*%
%TO.N,GND*%
X167800000Y-103350000D03*
%TD*%
%TO.P,Left,1,1*%
%TO.N,Left*%
X139100000Y-103450000D03*
%TO.P,Left,2,2*%
%TO.N,GND*%
X134100000Y-101350000D03*
%TD*%
%TO.P,LT,1,1*%
%TO.N,Left Trigger*%
X328000000Y-123550000D03*
%TO.P,LT,2,2*%
%TO.N,GND*%
X323000000Y-121450000D03*
%TD*%
%TO.P,Up,1,1*%
%TO.N,Up*%
X219000000Y-177150000D03*
%TO.P,Up,2,2*%
%TO.N,GND*%
X214000000Y-175050000D03*
%TD*%
D10*
%TO.P,L3,1,1*%
%TO.N,L3*%
X165250000Y-68250000D03*
X165250000Y-61750000D03*
%TO.P,L3,2,2*%
%TO.N,GND*%
X169750000Y-68250000D03*
X169750000Y-61750000D03*
%TD*%
%TO.P,Select,1,1*%
%TO.N,Select*%
X140250000Y-68250000D03*
X140250000Y-61750000D03*
%TO.P,Select,2,2*%
%TO.N,GND*%
X144750000Y-68250000D03*
X144750000Y-61750000D03*
%TD*%
D11*
%TO.P,LB,1,1*%
%TO.N,Left Bumper*%
X327800000Y-89550000D03*
%TO.P,LB,2,2*%
%TO.N,GND*%
X322800000Y-87450000D03*
%TD*%
%TO.P,Y/Triangle,2,2*%
%TO.N,GND*%
X256700000Y-86150000D03*
%TO.P,Y/Triangle,1,1*%
%TO.N,Y{slash}Triangle*%
X261700000Y-88250000D03*
%TD*%
%TO.P,Right,1,1*%
%TO.N,Right*%
X202100000Y-120750000D03*
%TO.P,Right,2,2*%
%TO.N,GND*%
X197100000Y-118650000D03*
%TD*%
D10*
%TO.P,R3,1,1*%
%TO.N,R3*%
X177750000Y-68250000D03*
X177750000Y-61750000D03*
%TO.P,R3,2,2*%
%TO.N,GND*%
X182250000Y-68250000D03*
X182250000Y-61750000D03*
%TD*%
D11*
%TO.P,X/Square,1,1*%
%TO.N,X{slash}Square*%
X232500000Y-105750000D03*
%TO.P,X/Square,2,2*%
%TO.N,GND*%
X227500000Y-103650000D03*
%TD*%
%TO.P,X/A,1,1*%
%TO.N,A{slash}X*%
X230200000Y-139850000D03*
%TO.P,X/A,2,2*%
%TO.N,GND*%
X225200000Y-137750000D03*
%TD*%
D10*
%TO.P,Start,1,1*%
%TO.N,Start*%
X152750000Y-68250000D03*
X152750000Y-61750000D03*
%TO.P,Start,2,2*%
%TO.N,GND*%
X157250000Y-68250000D03*
X157250000Y-61750000D03*
%TD*%
D11*
%TO.P,RT,1,1*%
%TO.N,Right Trigger*%
X295300000Y-122550000D03*
%TO.P,RT,2,2*%
%TO.N,GND*%
X290300000Y-120450000D03*
%TD*%
%TO.P,RB,1,1*%
%TO.N,Right Bumper*%
X295800000Y-88450000D03*
%TO.P,RB,2,2*%
%TO.N,GND*%
X290800000Y-86350000D03*
%TD*%
D14*
%TO.N,GND*%
X192000000Y-61644962D03*
%TD*%
D15*
%TO.N,Up*%
X202500000Y-150000000D02*
X202500000Y-174000000D01*
X202500000Y-174000000D02*
X205650000Y-177150000D01*
X216000000Y-80000000D02*
X216000000Y-136500000D01*
X215424962Y-79424962D02*
X216000000Y-80000000D01*
X211534194Y-79424962D02*
X215424962Y-79424962D01*
X216000000Y-136500000D02*
X202500000Y-150000000D01*
X205650000Y-177150000D02*
X219000000Y-177150000D01*
%TO.N,Home*%
X127750000Y-68250000D02*
X132500000Y-73000000D01*
X187500000Y-73000000D02*
X132500000Y-73000000D01*
%TO.N,Select*%
X140250000Y-68250000D02*
X144500000Y-72500000D01*
X188000000Y-72500000D02*
X144500000Y-72500000D01*
%TO.N,Start*%
X156400000Y-71900000D02*
X156500000Y-71900000D01*
X194199156Y-71900000D02*
X156500000Y-71900000D01*
X152750000Y-68250000D02*
X156400000Y-71900000D01*
%TO.N,L3*%
X165250000Y-68250000D02*
X168500000Y-71500000D01*
X188000000Y-71500000D02*
X168500000Y-71500000D01*
%TO.N,R3*%
X187500000Y-71000000D02*
X180500000Y-71000000D01*
X177750000Y-68250000D02*
X180500000Y-71000000D01*
%TO.N,Home*%
X191384962Y-76884962D02*
X187500000Y-73000000D01*
X194294194Y-76884962D02*
X191384962Y-76884962D01*
%TO.N,Select*%
X189844962Y-74344962D02*
X188000000Y-72500000D01*
X194294194Y-74344962D02*
X189844962Y-74344962D01*
%TO.N,Start*%
X194294194Y-71804962D02*
X194199156Y-71900000D01*
%TO.N,L3*%
X190235038Y-69264962D02*
X188000000Y-71500000D01*
X194294194Y-69264962D02*
X190235038Y-69264962D01*
%TO.N,R3*%
X191775038Y-66724962D02*
X187500000Y-71000000D01*
X194294194Y-66724962D02*
X191775038Y-66724962D01*
%TO.N,Left Bumper*%
X312500000Y-84500000D02*
X317550000Y-89550000D01*
X309500000Y-69500000D02*
X312500000Y-72500000D01*
X312500000Y-72500000D02*
X312500000Y-84500000D01*
X218604962Y-59104962D02*
X229000000Y-69500000D01*
X211534194Y-59104962D02*
X218604962Y-59104962D01*
X229000000Y-69500000D02*
X309500000Y-69500000D01*
X317550000Y-89550000D02*
X327800000Y-89550000D01*
%TO.N,Left Trigger*%
X317550000Y-123550000D02*
X328000000Y-123550000D01*
X312000000Y-118000000D02*
X317550000Y-123550000D01*
X312000000Y-73000000D02*
X312000000Y-118000000D01*
X228500000Y-70000000D02*
X309000000Y-70000000D01*
X220144962Y-61644962D02*
X228500000Y-70000000D01*
X211534194Y-61644962D02*
X220144962Y-61644962D01*
X309000000Y-70000000D02*
X312000000Y-73000000D01*
%TO.N,Y{slash}Triangle*%
X251500000Y-88250000D02*
X261700000Y-88250000D01*
X247500000Y-76500000D02*
X247500000Y-84250000D01*
X242404962Y-71404962D02*
X247500000Y-76500000D01*
X247500000Y-84250000D02*
X251500000Y-88250000D01*
X226904962Y-71404962D02*
X242404962Y-71404962D01*
X224764962Y-69264962D02*
X226904962Y-71404962D01*
X211534194Y-69264962D02*
X224764962Y-69264962D01*
%TO.N,Right Bumper*%
X285700000Y-88450000D02*
X295800000Y-88450000D01*
X280500000Y-83250000D02*
X285700000Y-88450000D01*
X228000000Y-70500000D02*
X279334314Y-70500000D01*
X279334314Y-70500000D02*
X280500000Y-71665686D01*
X221684962Y-64184962D02*
X228000000Y-70500000D01*
X280500000Y-71665686D02*
X280500000Y-83250000D01*
X211534194Y-64184962D02*
X221684962Y-64184962D01*
%TO.N,Right Trigger*%
X280000000Y-117500000D02*
X285050000Y-122550000D01*
X285050000Y-122550000D02*
X295300000Y-122550000D01*
X280000000Y-72000000D02*
X280000000Y-117500000D01*
X279000000Y-71000000D02*
X280000000Y-72000000D01*
X227500000Y-71000000D02*
X279000000Y-71000000D01*
X211534194Y-66724962D02*
X223224962Y-66724962D01*
X223224962Y-66724962D02*
X227500000Y-71000000D01*
%TO.N,GND*%
X192000000Y-61644962D02*
X194294194Y-61644962D01*
%TO.N,Left*%
X202914194Y-80924962D02*
X202914194Y-83085806D01*
X125500000Y-86000000D02*
X125500000Y-100500000D01*
X128450000Y-103450000D02*
X139100000Y-103450000D01*
X128000000Y-83500000D02*
X125500000Y-86000000D01*
X202500000Y-83500000D02*
X128000000Y-83500000D01*
X125500000Y-100500000D02*
X128450000Y-103450000D01*
X202914194Y-83085806D02*
X202500000Y-83500000D01*
%TO.N,Down*%
X205500000Y-83500000D02*
X203000000Y-86000000D01*
X203000000Y-86000000D02*
X161500000Y-86000000D01*
X162450000Y-105450000D02*
X172800000Y-105450000D01*
X205454194Y-80924962D02*
X205500000Y-80970768D01*
X205500000Y-80970768D02*
X205500000Y-83500000D01*
X159000000Y-88500000D02*
X159000000Y-102000000D01*
X159000000Y-102000000D02*
X162450000Y-105450000D01*
X161500000Y-86000000D02*
X159000000Y-88500000D01*
%TO.N,Right*%
X188000000Y-102500000D02*
X188000000Y-117000000D01*
X205500000Y-100000000D02*
X190500000Y-100000000D01*
X207994194Y-97505806D02*
X205500000Y-100000000D01*
X190500000Y-100000000D02*
X188000000Y-102500000D01*
X188000000Y-117000000D02*
X191750000Y-120750000D01*
X207994194Y-80924962D02*
X207994194Y-97505806D01*
X191750000Y-120750000D02*
X202100000Y-120750000D01*
%TO.N,A{slash}X*%
X216500000Y-79500000D02*
X216500000Y-136500000D01*
X216500000Y-136500000D02*
X219850000Y-139850000D01*
X211534194Y-76884962D02*
X213884962Y-76884962D01*
X219850000Y-139850000D02*
X230200000Y-139850000D01*
X213884962Y-76884962D02*
X216500000Y-79500000D01*
%TO.N,X{slash}Square*%
X217000000Y-79000000D02*
X217000000Y-101000000D01*
X221750000Y-105750000D02*
X232500000Y-105750000D01*
X211534194Y-74344962D02*
X212344962Y-74344962D01*
X217000000Y-101000000D02*
X221750000Y-105750000D01*
X212344962Y-74344962D02*
X217000000Y-79000000D01*
%TO.N,B{slash}Circle*%
X251250000Y-122250000D02*
X261500000Y-122250000D01*
X241804962Y-71804962D02*
X247000000Y-77000000D01*
X247000000Y-118000000D02*
X251250000Y-122250000D01*
X247000000Y-77000000D02*
X247000000Y-118000000D01*
X211534194Y-71804962D02*
X241804962Y-71804962D01*
%TD*%
M02*
