%TF.GenerationSoftware,KiCad,Pcbnew,8.0.1*%
%TF.CreationDate,2024-03-26T13:51:36-04:00*%
%TF.ProjectId,hitbox,68697462-6f78-42e6-9b69-6361645f7063,rev?*%
%TF.SameCoordinates,Original*%
%TF.FileFunction,Drillmap*%
%TF.FilePolarity,Positive*%
%FSLAX45Y45*%
G04 Gerber Fmt 4.5, Leading zero omitted, Abs format (unit mm)*
G04 Created by KiCad (PCBNEW 8.0.1) date 2024-03-26 13:51:36*
%MOMM*%
%LPD*%
G01*
G04 APERTURE LIST*
%ADD10C,0.050000*%
%ADD11C,0.120000*%
%ADD12C,0.200000*%
%ADD13C,0.100000*%
%ADD14C,0.110000*%
%ADD15C,0.127000*%
G04 APERTURE END LIST*
D10*
X23620000Y-6450000D02*
G75*
G02*
X22980000Y-6450000I-320000J0D01*
G01*
X22980000Y-6450000D02*
G75*
G02*
X23620000Y-6450000I320000J0D01*
G01*
X23620000Y-18550000D02*
G75*
G02*
X22980000Y-18550000I-320000J0D01*
G01*
X22980000Y-18550000D02*
G75*
G02*
X23620000Y-18550000I320000J0D01*
G01*
X35420000Y-18550000D02*
G75*
G02*
X34780000Y-18550000I-320000J0D01*
G01*
X34780000Y-18550000D02*
G75*
G02*
X35420000Y-18550000I320000J0D01*
G01*
X35420000Y-6450000D02*
G75*
G02*
X34780000Y-6450000I-320000J0D01*
G01*
X34780000Y-6450000D02*
G75*
G02*
X35420000Y-6450000I320000J0D01*
G01*
X11820000Y-6450000D02*
G75*
G02*
X11180000Y-6450000I-320000J0D01*
G01*
X11180000Y-6450000D02*
G75*
G02*
X11820000Y-6450000I320000J0D01*
G01*
X11820000Y-18550000D02*
G75*
G02*
X11180000Y-18550000I-320000J0D01*
G01*
X11180000Y-18550000D02*
G75*
G02*
X11820000Y-18550000I320000J0D01*
G01*
X19691419Y-5751496D02*
X10800000Y-5750000D01*
X35800000Y-5750000D02*
X20891419Y-5751496D01*
X10800000Y-19250000D02*
X35800000Y-19250000D01*
X10800000Y-5750000D02*
X10800000Y-19250000D01*
X35800000Y-19250000D02*
X35800000Y-5750000D01*
D11*
X19691419Y-5751496D02*
X19691419Y-7851496D01*
X19691419Y-7851496D02*
X20891419Y-7851496D01*
X20891419Y-7851496D02*
X20891419Y-5751496D01*
D12*
D13*
X19185000Y-6149496D02*
X19215000Y-6179496D01*
X19215000Y-6149496D02*
X19185000Y-6179496D01*
D14*
X12830000Y-6175000D02*
G75*
G02*
X12720000Y-6175000I-55000J0D01*
G01*
X12720000Y-6175000D02*
G75*
G02*
X12830000Y-6175000I55000J0D01*
G01*
X12830000Y-6825000D02*
G75*
G02*
X12720000Y-6825000I-55000J0D01*
G01*
X12720000Y-6825000D02*
G75*
G02*
X12830000Y-6825000I55000J0D01*
G01*
X13280000Y-6175000D02*
G75*
G02*
X13170000Y-6175000I-55000J0D01*
G01*
X13170000Y-6175000D02*
G75*
G02*
X13280000Y-6175000I55000J0D01*
G01*
X13280000Y-6825000D02*
G75*
G02*
X13170000Y-6825000I-55000J0D01*
G01*
X13170000Y-6825000D02*
G75*
G02*
X13280000Y-6825000I55000J0D01*
G01*
X14080000Y-6175000D02*
G75*
G02*
X13970000Y-6175000I-55000J0D01*
G01*
X13970000Y-6175000D02*
G75*
G02*
X14080000Y-6175000I55000J0D01*
G01*
X14080000Y-6825000D02*
G75*
G02*
X13970000Y-6825000I-55000J0D01*
G01*
X13970000Y-6825000D02*
G75*
G02*
X14080000Y-6825000I55000J0D01*
G01*
X14530000Y-6175000D02*
G75*
G02*
X14420000Y-6175000I-55000J0D01*
G01*
X14420000Y-6175000D02*
G75*
G02*
X14530000Y-6175000I55000J0D01*
G01*
X14530000Y-6825000D02*
G75*
G02*
X14420000Y-6825000I-55000J0D01*
G01*
X14420000Y-6825000D02*
G75*
G02*
X14530000Y-6825000I55000J0D01*
G01*
X15330000Y-6175000D02*
G75*
G02*
X15220000Y-6175000I-55000J0D01*
G01*
X15220000Y-6175000D02*
G75*
G02*
X15330000Y-6175000I55000J0D01*
G01*
X15330000Y-6825000D02*
G75*
G02*
X15220000Y-6825000I-55000J0D01*
G01*
X15220000Y-6825000D02*
G75*
G02*
X15330000Y-6825000I55000J0D01*
G01*
X15780000Y-6175000D02*
G75*
G02*
X15670000Y-6175000I-55000J0D01*
G01*
X15670000Y-6175000D02*
G75*
G02*
X15780000Y-6175000I55000J0D01*
G01*
X15780000Y-6825000D02*
G75*
G02*
X15670000Y-6825000I-55000J0D01*
G01*
X15670000Y-6825000D02*
G75*
G02*
X15780000Y-6825000I55000J0D01*
G01*
X16580000Y-6175000D02*
G75*
G02*
X16470000Y-6175000I-55000J0D01*
G01*
X16470000Y-6175000D02*
G75*
G02*
X16580000Y-6175000I55000J0D01*
G01*
X16580000Y-6825000D02*
G75*
G02*
X16470000Y-6825000I-55000J0D01*
G01*
X16470000Y-6825000D02*
G75*
G02*
X16580000Y-6825000I55000J0D01*
G01*
X17030000Y-6175000D02*
G75*
G02*
X16920000Y-6175000I-55000J0D01*
G01*
X16920000Y-6175000D02*
G75*
G02*
X17030000Y-6175000I55000J0D01*
G01*
X17030000Y-6825000D02*
G75*
G02*
X16920000Y-6825000I-55000J0D01*
G01*
X16920000Y-6825000D02*
G75*
G02*
X17030000Y-6825000I55000J0D01*
G01*
X17830000Y-6175000D02*
G75*
G02*
X17720000Y-6175000I-55000J0D01*
G01*
X17720000Y-6175000D02*
G75*
G02*
X17830000Y-6175000I55000J0D01*
G01*
X17830000Y-6825000D02*
G75*
G02*
X17720000Y-6825000I-55000J0D01*
G01*
X17720000Y-6825000D02*
G75*
G02*
X17830000Y-6825000I55000J0D01*
G01*
X18280000Y-6175000D02*
G75*
G02*
X18170000Y-6175000I-55000J0D01*
G01*
X18170000Y-6175000D02*
G75*
G02*
X18280000Y-6175000I55000J0D01*
G01*
X18280000Y-6825000D02*
G75*
G02*
X18170000Y-6825000I-55000J0D01*
G01*
X18170000Y-6825000D02*
G75*
G02*
X18280000Y-6825000I55000J0D01*
G01*
D15*
X13410000Y-10071500D02*
X13410000Y-10198500D01*
X13346500Y-10135000D02*
X13473500Y-10135000D01*
X13910000Y-10281500D02*
X13910000Y-10408500D01*
X13846500Y-10345000D02*
X13973500Y-10345000D01*
X16780000Y-10271500D02*
X16780000Y-10398500D01*
X16716500Y-10335000D02*
X16843500Y-10335000D01*
X17280000Y-10481500D02*
X17280000Y-10608500D01*
X17216500Y-10545000D02*
X17343500Y-10545000D01*
X19710000Y-11801500D02*
X19710000Y-11928500D01*
X19646500Y-11865000D02*
X19773500Y-11865000D01*
X20210000Y-12011500D02*
X20210000Y-12138500D01*
X20146500Y-12075000D02*
X20273500Y-12075000D01*
X21400000Y-17441500D02*
X21400000Y-17568500D01*
X21336500Y-17505000D02*
X21463500Y-17505000D01*
X21900000Y-17651500D02*
X21900000Y-17778500D01*
X21836500Y-17715000D02*
X21963500Y-17715000D01*
X22520000Y-13711500D02*
X22520000Y-13838500D01*
X22456500Y-13775000D02*
X22583500Y-13775000D01*
X22750000Y-10301500D02*
X22750000Y-10428500D01*
X22686500Y-10365000D02*
X22813500Y-10365000D01*
X23020000Y-13921500D02*
X23020000Y-14048500D01*
X22956500Y-13985000D02*
X23083500Y-13985000D01*
X23250000Y-10511500D02*
X23250000Y-10638500D01*
X23186500Y-10575000D02*
X23313500Y-10575000D01*
X25650000Y-11951500D02*
X25650000Y-12078500D01*
X25586500Y-12015000D02*
X25713500Y-12015000D01*
X25670000Y-8551500D02*
X25670000Y-8678500D01*
X25606500Y-8615000D02*
X25733500Y-8615000D01*
X26150000Y-12161500D02*
X26150000Y-12288500D01*
X26086500Y-12225000D02*
X26213500Y-12225000D01*
X26170000Y-8761500D02*
X26170000Y-8888500D01*
X26106500Y-8825000D02*
X26233500Y-8825000D01*
X29030000Y-11981500D02*
X29030000Y-12108500D01*
X28966500Y-12045000D02*
X29093500Y-12045000D01*
X29080000Y-8571500D02*
X29080000Y-8698500D01*
X29016500Y-8635000D02*
X29143500Y-8635000D01*
X29530000Y-12191500D02*
X29530000Y-12318500D01*
X29466500Y-12255000D02*
X29593500Y-12255000D01*
X29580000Y-8781500D02*
X29580000Y-8908500D01*
X29516500Y-8845000D02*
X29643500Y-8845000D01*
X32280000Y-8681500D02*
X32280000Y-8808500D01*
X32216500Y-8745000D02*
X32343500Y-8745000D01*
X32300000Y-12081500D02*
X32300000Y-12208500D01*
X32236500Y-12145000D02*
X32363500Y-12145000D01*
X32780000Y-8891500D02*
X32780000Y-9018500D01*
X32716500Y-8955000D02*
X32843500Y-8955000D01*
X32800000Y-12291500D02*
X32800000Y-12418500D01*
X32736500Y-12355000D02*
X32863500Y-12355000D01*
D12*
X11058277Y-19563984D02*
X11058277Y-19363984D01*
X11058277Y-19363984D02*
X11105896Y-19363984D01*
X11105896Y-19363984D02*
X11134467Y-19373508D01*
X11134467Y-19373508D02*
X11153515Y-19392555D01*
X11153515Y-19392555D02*
X11163039Y-19411603D01*
X11163039Y-19411603D02*
X11172563Y-19449698D01*
X11172563Y-19449698D02*
X11172563Y-19478270D01*
X11172563Y-19478270D02*
X11163039Y-19516365D01*
X11163039Y-19516365D02*
X11153515Y-19535412D01*
X11153515Y-19535412D02*
X11134467Y-19554460D01*
X11134467Y-19554460D02*
X11105896Y-19563984D01*
X11105896Y-19563984D02*
X11058277Y-19563984D01*
X11258277Y-19563984D02*
X11258277Y-19430650D01*
X11258277Y-19468746D02*
X11267801Y-19449698D01*
X11267801Y-19449698D02*
X11277324Y-19440174D01*
X11277324Y-19440174D02*
X11296372Y-19430650D01*
X11296372Y-19430650D02*
X11315420Y-19430650D01*
X11382086Y-19563984D02*
X11382086Y-19430650D01*
X11382086Y-19363984D02*
X11372562Y-19373508D01*
X11372562Y-19373508D02*
X11382086Y-19383031D01*
X11382086Y-19383031D02*
X11391610Y-19373508D01*
X11391610Y-19373508D02*
X11382086Y-19363984D01*
X11382086Y-19363984D02*
X11382086Y-19383031D01*
X11505896Y-19563984D02*
X11486848Y-19554460D01*
X11486848Y-19554460D02*
X11477324Y-19535412D01*
X11477324Y-19535412D02*
X11477324Y-19363984D01*
X11610658Y-19563984D02*
X11591610Y-19554460D01*
X11591610Y-19554460D02*
X11582086Y-19535412D01*
X11582086Y-19535412D02*
X11582086Y-19363984D01*
X11839229Y-19563984D02*
X11839229Y-19363984D01*
X11839229Y-19363984D02*
X11905896Y-19506841D01*
X11905896Y-19506841D02*
X11972562Y-19363984D01*
X11972562Y-19363984D02*
X11972562Y-19563984D01*
X12153515Y-19563984D02*
X12153515Y-19459222D01*
X12153515Y-19459222D02*
X12143991Y-19440174D01*
X12143991Y-19440174D02*
X12124943Y-19430650D01*
X12124943Y-19430650D02*
X12086848Y-19430650D01*
X12086848Y-19430650D02*
X12067801Y-19440174D01*
X12153515Y-19554460D02*
X12134467Y-19563984D01*
X12134467Y-19563984D02*
X12086848Y-19563984D01*
X12086848Y-19563984D02*
X12067801Y-19554460D01*
X12067801Y-19554460D02*
X12058277Y-19535412D01*
X12058277Y-19535412D02*
X12058277Y-19516365D01*
X12058277Y-19516365D02*
X12067801Y-19497317D01*
X12067801Y-19497317D02*
X12086848Y-19487793D01*
X12086848Y-19487793D02*
X12134467Y-19487793D01*
X12134467Y-19487793D02*
X12153515Y-19478270D01*
X12248753Y-19430650D02*
X12248753Y-19630650D01*
X12248753Y-19440174D02*
X12267801Y-19430650D01*
X12267801Y-19430650D02*
X12305896Y-19430650D01*
X12305896Y-19430650D02*
X12324943Y-19440174D01*
X12324943Y-19440174D02*
X12334467Y-19449698D01*
X12334467Y-19449698D02*
X12343991Y-19468746D01*
X12343991Y-19468746D02*
X12343991Y-19525889D01*
X12343991Y-19525889D02*
X12334467Y-19544936D01*
X12334467Y-19544936D02*
X12324943Y-19554460D01*
X12324943Y-19554460D02*
X12305896Y-19563984D01*
X12305896Y-19563984D02*
X12267801Y-19563984D01*
X12267801Y-19563984D02*
X12248753Y-19554460D01*
X12429705Y-19544936D02*
X12439229Y-19554460D01*
X12439229Y-19554460D02*
X12429705Y-19563984D01*
X12429705Y-19563984D02*
X12420182Y-19554460D01*
X12420182Y-19554460D02*
X12429705Y-19544936D01*
X12429705Y-19544936D02*
X12429705Y-19563984D01*
X12429705Y-19440174D02*
X12439229Y-19449698D01*
X12439229Y-19449698D02*
X12429705Y-19459222D01*
X12429705Y-19459222D02*
X12420182Y-19449698D01*
X12420182Y-19449698D02*
X12429705Y-19440174D01*
X12429705Y-19440174D02*
X12429705Y-19459222D01*
D13*
X10767500Y-19877500D02*
X10797500Y-19907500D01*
X10797500Y-19877500D02*
X10767500Y-19907500D01*
D12*
X11096372Y-19783984D02*
X11115420Y-19783984D01*
X11115420Y-19783984D02*
X11134467Y-19793508D01*
X11134467Y-19793508D02*
X11143991Y-19803031D01*
X11143991Y-19803031D02*
X11153515Y-19822079D01*
X11153515Y-19822079D02*
X11163039Y-19860174D01*
X11163039Y-19860174D02*
X11163039Y-19907793D01*
X11163039Y-19907793D02*
X11153515Y-19945889D01*
X11153515Y-19945889D02*
X11143991Y-19964936D01*
X11143991Y-19964936D02*
X11134467Y-19974460D01*
X11134467Y-19974460D02*
X11115420Y-19983984D01*
X11115420Y-19983984D02*
X11096372Y-19983984D01*
X11096372Y-19983984D02*
X11077324Y-19974460D01*
X11077324Y-19974460D02*
X11067801Y-19964936D01*
X11067801Y-19964936D02*
X11058277Y-19945889D01*
X11058277Y-19945889D02*
X11048753Y-19907793D01*
X11048753Y-19907793D02*
X11048753Y-19860174D01*
X11048753Y-19860174D02*
X11058277Y-19822079D01*
X11058277Y-19822079D02*
X11067801Y-19803031D01*
X11067801Y-19803031D02*
X11077324Y-19793508D01*
X11077324Y-19793508D02*
X11096372Y-19783984D01*
X11248753Y-19964936D02*
X11258277Y-19974460D01*
X11258277Y-19974460D02*
X11248753Y-19983984D01*
X11248753Y-19983984D02*
X11239229Y-19974460D01*
X11239229Y-19974460D02*
X11248753Y-19964936D01*
X11248753Y-19964936D02*
X11248753Y-19983984D01*
X11324943Y-19783984D02*
X11448753Y-19783984D01*
X11448753Y-19783984D02*
X11382086Y-19860174D01*
X11382086Y-19860174D02*
X11410658Y-19860174D01*
X11410658Y-19860174D02*
X11429705Y-19869698D01*
X11429705Y-19869698D02*
X11439229Y-19879222D01*
X11439229Y-19879222D02*
X11448753Y-19898270D01*
X11448753Y-19898270D02*
X11448753Y-19945889D01*
X11448753Y-19945889D02*
X11439229Y-19964936D01*
X11439229Y-19964936D02*
X11429705Y-19974460D01*
X11429705Y-19974460D02*
X11410658Y-19983984D01*
X11410658Y-19983984D02*
X11353515Y-19983984D01*
X11353515Y-19983984D02*
X11334467Y-19974460D01*
X11334467Y-19974460D02*
X11324943Y-19964936D01*
X11572562Y-19783984D02*
X11591610Y-19783984D01*
X11591610Y-19783984D02*
X11610658Y-19793508D01*
X11610658Y-19793508D02*
X11620182Y-19803031D01*
X11620182Y-19803031D02*
X11629705Y-19822079D01*
X11629705Y-19822079D02*
X11639229Y-19860174D01*
X11639229Y-19860174D02*
X11639229Y-19907793D01*
X11639229Y-19907793D02*
X11629705Y-19945889D01*
X11629705Y-19945889D02*
X11620182Y-19964936D01*
X11620182Y-19964936D02*
X11610658Y-19974460D01*
X11610658Y-19974460D02*
X11591610Y-19983984D01*
X11591610Y-19983984D02*
X11572562Y-19983984D01*
X11572562Y-19983984D02*
X11553515Y-19974460D01*
X11553515Y-19974460D02*
X11543991Y-19964936D01*
X11543991Y-19964936D02*
X11534467Y-19945889D01*
X11534467Y-19945889D02*
X11524943Y-19907793D01*
X11524943Y-19907793D02*
X11524943Y-19860174D01*
X11524943Y-19860174D02*
X11534467Y-19822079D01*
X11534467Y-19822079D02*
X11543991Y-19803031D01*
X11543991Y-19803031D02*
X11553515Y-19793508D01*
X11553515Y-19793508D02*
X11572562Y-19783984D01*
X11763039Y-19783984D02*
X11782086Y-19783984D01*
X11782086Y-19783984D02*
X11801134Y-19793508D01*
X11801134Y-19793508D02*
X11810658Y-19803031D01*
X11810658Y-19803031D02*
X11820182Y-19822079D01*
X11820182Y-19822079D02*
X11829705Y-19860174D01*
X11829705Y-19860174D02*
X11829705Y-19907793D01*
X11829705Y-19907793D02*
X11820182Y-19945889D01*
X11820182Y-19945889D02*
X11810658Y-19964936D01*
X11810658Y-19964936D02*
X11801134Y-19974460D01*
X11801134Y-19974460D02*
X11782086Y-19983984D01*
X11782086Y-19983984D02*
X11763039Y-19983984D01*
X11763039Y-19983984D02*
X11743991Y-19974460D01*
X11743991Y-19974460D02*
X11734467Y-19964936D01*
X11734467Y-19964936D02*
X11724943Y-19945889D01*
X11724943Y-19945889D02*
X11715420Y-19907793D01*
X11715420Y-19907793D02*
X11715420Y-19860174D01*
X11715420Y-19860174D02*
X11724943Y-19822079D01*
X11724943Y-19822079D02*
X11734467Y-19803031D01*
X11734467Y-19803031D02*
X11743991Y-19793508D01*
X11743991Y-19793508D02*
X11763039Y-19783984D01*
X11915420Y-19983984D02*
X11915420Y-19850650D01*
X11915420Y-19869698D02*
X11924943Y-19860174D01*
X11924943Y-19860174D02*
X11943991Y-19850650D01*
X11943991Y-19850650D02*
X11972563Y-19850650D01*
X11972563Y-19850650D02*
X11991610Y-19860174D01*
X11991610Y-19860174D02*
X12001134Y-19879222D01*
X12001134Y-19879222D02*
X12001134Y-19983984D01*
X12001134Y-19879222D02*
X12010658Y-19860174D01*
X12010658Y-19860174D02*
X12029705Y-19850650D01*
X12029705Y-19850650D02*
X12058277Y-19850650D01*
X12058277Y-19850650D02*
X12077324Y-19860174D01*
X12077324Y-19860174D02*
X12086848Y-19879222D01*
X12086848Y-19879222D02*
X12086848Y-19983984D01*
X12182086Y-19983984D02*
X12182086Y-19850650D01*
X12182086Y-19869698D02*
X12191610Y-19860174D01*
X12191610Y-19860174D02*
X12210658Y-19850650D01*
X12210658Y-19850650D02*
X12239229Y-19850650D01*
X12239229Y-19850650D02*
X12258277Y-19860174D01*
X12258277Y-19860174D02*
X12267801Y-19879222D01*
X12267801Y-19879222D02*
X12267801Y-19983984D01*
X12267801Y-19879222D02*
X12277324Y-19860174D01*
X12277324Y-19860174D02*
X12296372Y-19850650D01*
X12296372Y-19850650D02*
X12324943Y-19850650D01*
X12324943Y-19850650D02*
X12343991Y-19860174D01*
X12343991Y-19860174D02*
X12353515Y-19879222D01*
X12353515Y-19879222D02*
X12353515Y-19983984D01*
X12743991Y-19774460D02*
X12572563Y-20031603D01*
X13001134Y-19783984D02*
X13020182Y-19783984D01*
X13020182Y-19783984D02*
X13039229Y-19793508D01*
X13039229Y-19793508D02*
X13048753Y-19803031D01*
X13048753Y-19803031D02*
X13058277Y-19822079D01*
X13058277Y-19822079D02*
X13067801Y-19860174D01*
X13067801Y-19860174D02*
X13067801Y-19907793D01*
X13067801Y-19907793D02*
X13058277Y-19945889D01*
X13058277Y-19945889D02*
X13048753Y-19964936D01*
X13048753Y-19964936D02*
X13039229Y-19974460D01*
X13039229Y-19974460D02*
X13020182Y-19983984D01*
X13020182Y-19983984D02*
X13001134Y-19983984D01*
X13001134Y-19983984D02*
X12982086Y-19974460D01*
X12982086Y-19974460D02*
X12972563Y-19964936D01*
X12972563Y-19964936D02*
X12963039Y-19945889D01*
X12963039Y-19945889D02*
X12953515Y-19907793D01*
X12953515Y-19907793D02*
X12953515Y-19860174D01*
X12953515Y-19860174D02*
X12963039Y-19822079D01*
X12963039Y-19822079D02*
X12972563Y-19803031D01*
X12972563Y-19803031D02*
X12982086Y-19793508D01*
X12982086Y-19793508D02*
X13001134Y-19783984D01*
X13153515Y-19964936D02*
X13163039Y-19974460D01*
X13163039Y-19974460D02*
X13153515Y-19983984D01*
X13153515Y-19983984D02*
X13143991Y-19974460D01*
X13143991Y-19974460D02*
X13153515Y-19964936D01*
X13153515Y-19964936D02*
X13153515Y-19983984D01*
X13286848Y-19783984D02*
X13305896Y-19783984D01*
X13305896Y-19783984D02*
X13324944Y-19793508D01*
X13324944Y-19793508D02*
X13334467Y-19803031D01*
X13334467Y-19803031D02*
X13343991Y-19822079D01*
X13343991Y-19822079D02*
X13353515Y-19860174D01*
X13353515Y-19860174D02*
X13353515Y-19907793D01*
X13353515Y-19907793D02*
X13343991Y-19945889D01*
X13343991Y-19945889D02*
X13334467Y-19964936D01*
X13334467Y-19964936D02*
X13324944Y-19974460D01*
X13324944Y-19974460D02*
X13305896Y-19983984D01*
X13305896Y-19983984D02*
X13286848Y-19983984D01*
X13286848Y-19983984D02*
X13267801Y-19974460D01*
X13267801Y-19974460D02*
X13258277Y-19964936D01*
X13258277Y-19964936D02*
X13248753Y-19945889D01*
X13248753Y-19945889D02*
X13239229Y-19907793D01*
X13239229Y-19907793D02*
X13239229Y-19860174D01*
X13239229Y-19860174D02*
X13248753Y-19822079D01*
X13248753Y-19822079D02*
X13258277Y-19803031D01*
X13258277Y-19803031D02*
X13267801Y-19793508D01*
X13267801Y-19793508D02*
X13286848Y-19783984D01*
X13543991Y-19983984D02*
X13429706Y-19983984D01*
X13486848Y-19983984D02*
X13486848Y-19783984D01*
X13486848Y-19783984D02*
X13467801Y-19812555D01*
X13467801Y-19812555D02*
X13448753Y-19831603D01*
X13448753Y-19831603D02*
X13429706Y-19841127D01*
X13734467Y-19983984D02*
X13620182Y-19983984D01*
X13677325Y-19983984D02*
X13677325Y-19783984D01*
X13677325Y-19783984D02*
X13658277Y-19812555D01*
X13658277Y-19812555D02*
X13639229Y-19831603D01*
X13639229Y-19831603D02*
X13620182Y-19841127D01*
X13848753Y-19869698D02*
X13829706Y-19860174D01*
X13829706Y-19860174D02*
X13820182Y-19850650D01*
X13820182Y-19850650D02*
X13810658Y-19831603D01*
X13810658Y-19831603D02*
X13810658Y-19822079D01*
X13810658Y-19822079D02*
X13820182Y-19803031D01*
X13820182Y-19803031D02*
X13829706Y-19793508D01*
X13829706Y-19793508D02*
X13848753Y-19783984D01*
X13848753Y-19783984D02*
X13886848Y-19783984D01*
X13886848Y-19783984D02*
X13905896Y-19793508D01*
X13905896Y-19793508D02*
X13915420Y-19803031D01*
X13915420Y-19803031D02*
X13924944Y-19822079D01*
X13924944Y-19822079D02*
X13924944Y-19831603D01*
X13924944Y-19831603D02*
X13915420Y-19850650D01*
X13915420Y-19850650D02*
X13905896Y-19860174D01*
X13905896Y-19860174D02*
X13886848Y-19869698D01*
X13886848Y-19869698D02*
X13848753Y-19869698D01*
X13848753Y-19869698D02*
X13829706Y-19879222D01*
X13829706Y-19879222D02*
X13820182Y-19888746D01*
X13820182Y-19888746D02*
X13810658Y-19907793D01*
X13810658Y-19907793D02*
X13810658Y-19945889D01*
X13810658Y-19945889D02*
X13820182Y-19964936D01*
X13820182Y-19964936D02*
X13829706Y-19974460D01*
X13829706Y-19974460D02*
X13848753Y-19983984D01*
X13848753Y-19983984D02*
X13886848Y-19983984D01*
X13886848Y-19983984D02*
X13905896Y-19974460D01*
X13905896Y-19974460D02*
X13915420Y-19964936D01*
X13915420Y-19964936D02*
X13924944Y-19945889D01*
X13924944Y-19945889D02*
X13924944Y-19907793D01*
X13924944Y-19907793D02*
X13915420Y-19888746D01*
X13915420Y-19888746D02*
X13905896Y-19879222D01*
X13905896Y-19879222D02*
X13886848Y-19869698D01*
X14001134Y-19783984D02*
X14001134Y-19822079D01*
X14077325Y-19783984D02*
X14077325Y-19822079D01*
X14372563Y-20060174D02*
X14363039Y-20050650D01*
X14363039Y-20050650D02*
X14343991Y-20022079D01*
X14343991Y-20022079D02*
X14334468Y-20003031D01*
X14334468Y-20003031D02*
X14324944Y-19974460D01*
X14324944Y-19974460D02*
X14315420Y-19926841D01*
X14315420Y-19926841D02*
X14315420Y-19888746D01*
X14315420Y-19888746D02*
X14324944Y-19841127D01*
X14324944Y-19841127D02*
X14334468Y-19812555D01*
X14334468Y-19812555D02*
X14343991Y-19793508D01*
X14343991Y-19793508D02*
X14363039Y-19764936D01*
X14363039Y-19764936D02*
X14372563Y-19755412D01*
X14553515Y-19983984D02*
X14439229Y-19983984D01*
X14496372Y-19983984D02*
X14496372Y-19783984D01*
X14496372Y-19783984D02*
X14477325Y-19812555D01*
X14477325Y-19812555D02*
X14458277Y-19831603D01*
X14458277Y-19831603D02*
X14439229Y-19841127D01*
X14791610Y-19983984D02*
X14791610Y-19783984D01*
X14877325Y-19983984D02*
X14877325Y-19879222D01*
X14877325Y-19879222D02*
X14867801Y-19860174D01*
X14867801Y-19860174D02*
X14848753Y-19850650D01*
X14848753Y-19850650D02*
X14820182Y-19850650D01*
X14820182Y-19850650D02*
X14801134Y-19860174D01*
X14801134Y-19860174D02*
X14791610Y-19869698D01*
X15001134Y-19983984D02*
X14982087Y-19974460D01*
X14982087Y-19974460D02*
X14972563Y-19964936D01*
X14972563Y-19964936D02*
X14963039Y-19945889D01*
X14963039Y-19945889D02*
X14963039Y-19888746D01*
X14963039Y-19888746D02*
X14972563Y-19869698D01*
X14972563Y-19869698D02*
X14982087Y-19860174D01*
X14982087Y-19860174D02*
X15001134Y-19850650D01*
X15001134Y-19850650D02*
X15029706Y-19850650D01*
X15029706Y-19850650D02*
X15048753Y-19860174D01*
X15048753Y-19860174D02*
X15058277Y-19869698D01*
X15058277Y-19869698D02*
X15067801Y-19888746D01*
X15067801Y-19888746D02*
X15067801Y-19945889D01*
X15067801Y-19945889D02*
X15058277Y-19964936D01*
X15058277Y-19964936D02*
X15048753Y-19974460D01*
X15048753Y-19974460D02*
X15029706Y-19983984D01*
X15029706Y-19983984D02*
X15001134Y-19983984D01*
X15182087Y-19983984D02*
X15163039Y-19974460D01*
X15163039Y-19974460D02*
X15153515Y-19955412D01*
X15153515Y-19955412D02*
X15153515Y-19783984D01*
X15334468Y-19974460D02*
X15315420Y-19983984D01*
X15315420Y-19983984D02*
X15277325Y-19983984D01*
X15277325Y-19983984D02*
X15258277Y-19974460D01*
X15258277Y-19974460D02*
X15248753Y-19955412D01*
X15248753Y-19955412D02*
X15248753Y-19879222D01*
X15248753Y-19879222D02*
X15258277Y-19860174D01*
X15258277Y-19860174D02*
X15277325Y-19850650D01*
X15277325Y-19850650D02*
X15315420Y-19850650D01*
X15315420Y-19850650D02*
X15334468Y-19860174D01*
X15334468Y-19860174D02*
X15343991Y-19879222D01*
X15343991Y-19879222D02*
X15343991Y-19898270D01*
X15343991Y-19898270D02*
X15248753Y-19917317D01*
X15410658Y-20060174D02*
X15420182Y-20050650D01*
X15420182Y-20050650D02*
X15439230Y-20022079D01*
X15439230Y-20022079D02*
X15448753Y-20003031D01*
X15448753Y-20003031D02*
X15458277Y-19974460D01*
X15458277Y-19974460D02*
X15467801Y-19926841D01*
X15467801Y-19926841D02*
X15467801Y-19888746D01*
X15467801Y-19888746D02*
X15458277Y-19841127D01*
X15458277Y-19841127D02*
X15448753Y-19812555D01*
X15448753Y-19812555D02*
X15439230Y-19793508D01*
X15439230Y-19793508D02*
X15420182Y-19764936D01*
X15420182Y-19764936D02*
X15410658Y-19755412D01*
D14*
X10797500Y-20156500D02*
G75*
G02*
X10687500Y-20156500I-55000J0D01*
G01*
X10687500Y-20156500D02*
G75*
G02*
X10797500Y-20156500I55000J0D01*
G01*
D12*
X11163039Y-20247984D02*
X11048753Y-20247984D01*
X11105896Y-20247984D02*
X11105896Y-20047984D01*
X11105896Y-20047984D02*
X11086848Y-20076555D01*
X11086848Y-20076555D02*
X11067801Y-20095603D01*
X11067801Y-20095603D02*
X11048753Y-20105127D01*
X11248753Y-20228936D02*
X11258277Y-20238460D01*
X11258277Y-20238460D02*
X11248753Y-20247984D01*
X11248753Y-20247984D02*
X11239229Y-20238460D01*
X11239229Y-20238460D02*
X11248753Y-20228936D01*
X11248753Y-20228936D02*
X11248753Y-20247984D01*
X11448753Y-20247984D02*
X11334467Y-20247984D01*
X11391610Y-20247984D02*
X11391610Y-20047984D01*
X11391610Y-20047984D02*
X11372562Y-20076555D01*
X11372562Y-20076555D02*
X11353515Y-20095603D01*
X11353515Y-20095603D02*
X11334467Y-20105127D01*
X11572562Y-20047984D02*
X11591610Y-20047984D01*
X11591610Y-20047984D02*
X11610658Y-20057508D01*
X11610658Y-20057508D02*
X11620182Y-20067031D01*
X11620182Y-20067031D02*
X11629705Y-20086079D01*
X11629705Y-20086079D02*
X11639229Y-20124174D01*
X11639229Y-20124174D02*
X11639229Y-20171793D01*
X11639229Y-20171793D02*
X11629705Y-20209889D01*
X11629705Y-20209889D02*
X11620182Y-20228936D01*
X11620182Y-20228936D02*
X11610658Y-20238460D01*
X11610658Y-20238460D02*
X11591610Y-20247984D01*
X11591610Y-20247984D02*
X11572562Y-20247984D01*
X11572562Y-20247984D02*
X11553515Y-20238460D01*
X11553515Y-20238460D02*
X11543991Y-20228936D01*
X11543991Y-20228936D02*
X11534467Y-20209889D01*
X11534467Y-20209889D02*
X11524943Y-20171793D01*
X11524943Y-20171793D02*
X11524943Y-20124174D01*
X11524943Y-20124174D02*
X11534467Y-20086079D01*
X11534467Y-20086079D02*
X11543991Y-20067031D01*
X11543991Y-20067031D02*
X11553515Y-20057508D01*
X11553515Y-20057508D02*
X11572562Y-20047984D01*
X11763039Y-20047984D02*
X11782086Y-20047984D01*
X11782086Y-20047984D02*
X11801134Y-20057508D01*
X11801134Y-20057508D02*
X11810658Y-20067031D01*
X11810658Y-20067031D02*
X11820182Y-20086079D01*
X11820182Y-20086079D02*
X11829705Y-20124174D01*
X11829705Y-20124174D02*
X11829705Y-20171793D01*
X11829705Y-20171793D02*
X11820182Y-20209889D01*
X11820182Y-20209889D02*
X11810658Y-20228936D01*
X11810658Y-20228936D02*
X11801134Y-20238460D01*
X11801134Y-20238460D02*
X11782086Y-20247984D01*
X11782086Y-20247984D02*
X11763039Y-20247984D01*
X11763039Y-20247984D02*
X11743991Y-20238460D01*
X11743991Y-20238460D02*
X11734467Y-20228936D01*
X11734467Y-20228936D02*
X11724943Y-20209889D01*
X11724943Y-20209889D02*
X11715420Y-20171793D01*
X11715420Y-20171793D02*
X11715420Y-20124174D01*
X11715420Y-20124174D02*
X11724943Y-20086079D01*
X11724943Y-20086079D02*
X11734467Y-20067031D01*
X11734467Y-20067031D02*
X11743991Y-20057508D01*
X11743991Y-20057508D02*
X11763039Y-20047984D01*
X11915420Y-20247984D02*
X11915420Y-20114650D01*
X11915420Y-20133698D02*
X11924943Y-20124174D01*
X11924943Y-20124174D02*
X11943991Y-20114650D01*
X11943991Y-20114650D02*
X11972563Y-20114650D01*
X11972563Y-20114650D02*
X11991610Y-20124174D01*
X11991610Y-20124174D02*
X12001134Y-20143222D01*
X12001134Y-20143222D02*
X12001134Y-20247984D01*
X12001134Y-20143222D02*
X12010658Y-20124174D01*
X12010658Y-20124174D02*
X12029705Y-20114650D01*
X12029705Y-20114650D02*
X12058277Y-20114650D01*
X12058277Y-20114650D02*
X12077324Y-20124174D01*
X12077324Y-20124174D02*
X12086848Y-20143222D01*
X12086848Y-20143222D02*
X12086848Y-20247984D01*
X12182086Y-20247984D02*
X12182086Y-20114650D01*
X12182086Y-20133698D02*
X12191610Y-20124174D01*
X12191610Y-20124174D02*
X12210658Y-20114650D01*
X12210658Y-20114650D02*
X12239229Y-20114650D01*
X12239229Y-20114650D02*
X12258277Y-20124174D01*
X12258277Y-20124174D02*
X12267801Y-20143222D01*
X12267801Y-20143222D02*
X12267801Y-20247984D01*
X12267801Y-20143222D02*
X12277324Y-20124174D01*
X12277324Y-20124174D02*
X12296372Y-20114650D01*
X12296372Y-20114650D02*
X12324943Y-20114650D01*
X12324943Y-20114650D02*
X12343991Y-20124174D01*
X12343991Y-20124174D02*
X12353515Y-20143222D01*
X12353515Y-20143222D02*
X12353515Y-20247984D01*
X12743991Y-20038460D02*
X12572563Y-20295603D01*
X13001134Y-20047984D02*
X13020182Y-20047984D01*
X13020182Y-20047984D02*
X13039229Y-20057508D01*
X13039229Y-20057508D02*
X13048753Y-20067031D01*
X13048753Y-20067031D02*
X13058277Y-20086079D01*
X13058277Y-20086079D02*
X13067801Y-20124174D01*
X13067801Y-20124174D02*
X13067801Y-20171793D01*
X13067801Y-20171793D02*
X13058277Y-20209889D01*
X13058277Y-20209889D02*
X13048753Y-20228936D01*
X13048753Y-20228936D02*
X13039229Y-20238460D01*
X13039229Y-20238460D02*
X13020182Y-20247984D01*
X13020182Y-20247984D02*
X13001134Y-20247984D01*
X13001134Y-20247984D02*
X12982086Y-20238460D01*
X12982086Y-20238460D02*
X12972563Y-20228936D01*
X12972563Y-20228936D02*
X12963039Y-20209889D01*
X12963039Y-20209889D02*
X12953515Y-20171793D01*
X12953515Y-20171793D02*
X12953515Y-20124174D01*
X12953515Y-20124174D02*
X12963039Y-20086079D01*
X12963039Y-20086079D02*
X12972563Y-20067031D01*
X12972563Y-20067031D02*
X12982086Y-20057508D01*
X12982086Y-20057508D02*
X13001134Y-20047984D01*
X13153515Y-20228936D02*
X13163039Y-20238460D01*
X13163039Y-20238460D02*
X13153515Y-20247984D01*
X13153515Y-20247984D02*
X13143991Y-20238460D01*
X13143991Y-20238460D02*
X13153515Y-20228936D01*
X13153515Y-20228936D02*
X13153515Y-20247984D01*
X13286848Y-20047984D02*
X13305896Y-20047984D01*
X13305896Y-20047984D02*
X13324944Y-20057508D01*
X13324944Y-20057508D02*
X13334467Y-20067031D01*
X13334467Y-20067031D02*
X13343991Y-20086079D01*
X13343991Y-20086079D02*
X13353515Y-20124174D01*
X13353515Y-20124174D02*
X13353515Y-20171793D01*
X13353515Y-20171793D02*
X13343991Y-20209889D01*
X13343991Y-20209889D02*
X13334467Y-20228936D01*
X13334467Y-20228936D02*
X13324944Y-20238460D01*
X13324944Y-20238460D02*
X13305896Y-20247984D01*
X13305896Y-20247984D02*
X13286848Y-20247984D01*
X13286848Y-20247984D02*
X13267801Y-20238460D01*
X13267801Y-20238460D02*
X13258277Y-20228936D01*
X13258277Y-20228936D02*
X13248753Y-20209889D01*
X13248753Y-20209889D02*
X13239229Y-20171793D01*
X13239229Y-20171793D02*
X13239229Y-20124174D01*
X13239229Y-20124174D02*
X13248753Y-20086079D01*
X13248753Y-20086079D02*
X13258277Y-20067031D01*
X13258277Y-20067031D02*
X13267801Y-20057508D01*
X13267801Y-20057508D02*
X13286848Y-20047984D01*
X13524944Y-20114650D02*
X13524944Y-20247984D01*
X13477325Y-20038460D02*
X13429706Y-20181317D01*
X13429706Y-20181317D02*
X13553515Y-20181317D01*
X13610658Y-20047984D02*
X13734467Y-20047984D01*
X13734467Y-20047984D02*
X13667801Y-20124174D01*
X13667801Y-20124174D02*
X13696372Y-20124174D01*
X13696372Y-20124174D02*
X13715420Y-20133698D01*
X13715420Y-20133698D02*
X13724944Y-20143222D01*
X13724944Y-20143222D02*
X13734467Y-20162270D01*
X13734467Y-20162270D02*
X13734467Y-20209889D01*
X13734467Y-20209889D02*
X13724944Y-20228936D01*
X13724944Y-20228936D02*
X13715420Y-20238460D01*
X13715420Y-20238460D02*
X13696372Y-20247984D01*
X13696372Y-20247984D02*
X13639229Y-20247984D01*
X13639229Y-20247984D02*
X13620182Y-20238460D01*
X13620182Y-20238460D02*
X13610658Y-20228936D01*
X13801134Y-20047984D02*
X13924944Y-20047984D01*
X13924944Y-20047984D02*
X13858277Y-20124174D01*
X13858277Y-20124174D02*
X13886848Y-20124174D01*
X13886848Y-20124174D02*
X13905896Y-20133698D01*
X13905896Y-20133698D02*
X13915420Y-20143222D01*
X13915420Y-20143222D02*
X13924944Y-20162270D01*
X13924944Y-20162270D02*
X13924944Y-20209889D01*
X13924944Y-20209889D02*
X13915420Y-20228936D01*
X13915420Y-20228936D02*
X13905896Y-20238460D01*
X13905896Y-20238460D02*
X13886848Y-20247984D01*
X13886848Y-20247984D02*
X13829706Y-20247984D01*
X13829706Y-20247984D02*
X13810658Y-20238460D01*
X13810658Y-20238460D02*
X13801134Y-20228936D01*
X14001134Y-20047984D02*
X14001134Y-20086079D01*
X14077325Y-20047984D02*
X14077325Y-20086079D01*
X14372563Y-20324174D02*
X14363039Y-20314650D01*
X14363039Y-20314650D02*
X14343991Y-20286079D01*
X14343991Y-20286079D02*
X14334468Y-20267031D01*
X14334468Y-20267031D02*
X14324944Y-20238460D01*
X14324944Y-20238460D02*
X14315420Y-20190841D01*
X14315420Y-20190841D02*
X14315420Y-20152746D01*
X14315420Y-20152746D02*
X14324944Y-20105127D01*
X14324944Y-20105127D02*
X14334468Y-20076555D01*
X14334468Y-20076555D02*
X14343991Y-20057508D01*
X14343991Y-20057508D02*
X14363039Y-20028936D01*
X14363039Y-20028936D02*
X14372563Y-20019412D01*
X14439229Y-20067031D02*
X14448753Y-20057508D01*
X14448753Y-20057508D02*
X14467801Y-20047984D01*
X14467801Y-20047984D02*
X14515420Y-20047984D01*
X14515420Y-20047984D02*
X14534468Y-20057508D01*
X14534468Y-20057508D02*
X14543991Y-20067031D01*
X14543991Y-20067031D02*
X14553515Y-20086079D01*
X14553515Y-20086079D02*
X14553515Y-20105127D01*
X14553515Y-20105127D02*
X14543991Y-20133698D01*
X14543991Y-20133698D02*
X14429706Y-20247984D01*
X14429706Y-20247984D02*
X14553515Y-20247984D01*
X14677325Y-20047984D02*
X14696372Y-20047984D01*
X14696372Y-20047984D02*
X14715420Y-20057508D01*
X14715420Y-20057508D02*
X14724944Y-20067031D01*
X14724944Y-20067031D02*
X14734468Y-20086079D01*
X14734468Y-20086079D02*
X14743991Y-20124174D01*
X14743991Y-20124174D02*
X14743991Y-20171793D01*
X14743991Y-20171793D02*
X14734468Y-20209889D01*
X14734468Y-20209889D02*
X14724944Y-20228936D01*
X14724944Y-20228936D02*
X14715420Y-20238460D01*
X14715420Y-20238460D02*
X14696372Y-20247984D01*
X14696372Y-20247984D02*
X14677325Y-20247984D01*
X14677325Y-20247984D02*
X14658277Y-20238460D01*
X14658277Y-20238460D02*
X14648753Y-20228936D01*
X14648753Y-20228936D02*
X14639229Y-20209889D01*
X14639229Y-20209889D02*
X14629706Y-20171793D01*
X14629706Y-20171793D02*
X14629706Y-20124174D01*
X14629706Y-20124174D02*
X14639229Y-20086079D01*
X14639229Y-20086079D02*
X14648753Y-20067031D01*
X14648753Y-20067031D02*
X14658277Y-20057508D01*
X14658277Y-20057508D02*
X14677325Y-20047984D01*
X14982087Y-20247984D02*
X14982087Y-20047984D01*
X15067801Y-20247984D02*
X15067801Y-20143222D01*
X15067801Y-20143222D02*
X15058277Y-20124174D01*
X15058277Y-20124174D02*
X15039230Y-20114650D01*
X15039230Y-20114650D02*
X15010658Y-20114650D01*
X15010658Y-20114650D02*
X14991610Y-20124174D01*
X14991610Y-20124174D02*
X14982087Y-20133698D01*
X15191610Y-20247984D02*
X15172563Y-20238460D01*
X15172563Y-20238460D02*
X15163039Y-20228936D01*
X15163039Y-20228936D02*
X15153515Y-20209889D01*
X15153515Y-20209889D02*
X15153515Y-20152746D01*
X15153515Y-20152746D02*
X15163039Y-20133698D01*
X15163039Y-20133698D02*
X15172563Y-20124174D01*
X15172563Y-20124174D02*
X15191610Y-20114650D01*
X15191610Y-20114650D02*
X15220182Y-20114650D01*
X15220182Y-20114650D02*
X15239230Y-20124174D01*
X15239230Y-20124174D02*
X15248753Y-20133698D01*
X15248753Y-20133698D02*
X15258277Y-20152746D01*
X15258277Y-20152746D02*
X15258277Y-20209889D01*
X15258277Y-20209889D02*
X15248753Y-20228936D01*
X15248753Y-20228936D02*
X15239230Y-20238460D01*
X15239230Y-20238460D02*
X15220182Y-20247984D01*
X15220182Y-20247984D02*
X15191610Y-20247984D01*
X15372563Y-20247984D02*
X15353515Y-20238460D01*
X15353515Y-20238460D02*
X15343991Y-20219412D01*
X15343991Y-20219412D02*
X15343991Y-20047984D01*
X15524944Y-20238460D02*
X15505896Y-20247984D01*
X15505896Y-20247984D02*
X15467801Y-20247984D01*
X15467801Y-20247984D02*
X15448753Y-20238460D01*
X15448753Y-20238460D02*
X15439230Y-20219412D01*
X15439230Y-20219412D02*
X15439230Y-20143222D01*
X15439230Y-20143222D02*
X15448753Y-20124174D01*
X15448753Y-20124174D02*
X15467801Y-20114650D01*
X15467801Y-20114650D02*
X15505896Y-20114650D01*
X15505896Y-20114650D02*
X15524944Y-20124174D01*
X15524944Y-20124174D02*
X15534468Y-20143222D01*
X15534468Y-20143222D02*
X15534468Y-20162270D01*
X15534468Y-20162270D02*
X15439230Y-20181317D01*
X15610658Y-20238460D02*
X15629706Y-20247984D01*
X15629706Y-20247984D02*
X15667801Y-20247984D01*
X15667801Y-20247984D02*
X15686849Y-20238460D01*
X15686849Y-20238460D02*
X15696372Y-20219412D01*
X15696372Y-20219412D02*
X15696372Y-20209889D01*
X15696372Y-20209889D02*
X15686849Y-20190841D01*
X15686849Y-20190841D02*
X15667801Y-20181317D01*
X15667801Y-20181317D02*
X15639230Y-20181317D01*
X15639230Y-20181317D02*
X15620182Y-20171793D01*
X15620182Y-20171793D02*
X15610658Y-20152746D01*
X15610658Y-20152746D02*
X15610658Y-20143222D01*
X15610658Y-20143222D02*
X15620182Y-20124174D01*
X15620182Y-20124174D02*
X15639230Y-20114650D01*
X15639230Y-20114650D02*
X15667801Y-20114650D01*
X15667801Y-20114650D02*
X15686849Y-20124174D01*
X15763039Y-20324174D02*
X15772563Y-20314650D01*
X15772563Y-20314650D02*
X15791611Y-20286079D01*
X15791611Y-20286079D02*
X15801134Y-20267031D01*
X15801134Y-20267031D02*
X15810658Y-20238460D01*
X15810658Y-20238460D02*
X15820182Y-20190841D01*
X15820182Y-20190841D02*
X15820182Y-20152746D01*
X15820182Y-20152746D02*
X15810658Y-20105127D01*
X15810658Y-20105127D02*
X15801134Y-20076555D01*
X15801134Y-20076555D02*
X15791611Y-20057508D01*
X15791611Y-20057508D02*
X15772563Y-20028936D01*
X15772563Y-20028936D02*
X15763039Y-20019412D01*
D15*
X10734000Y-20357000D02*
X10734000Y-20484000D01*
X10670500Y-20420500D02*
X10797500Y-20420500D01*
D12*
X11163039Y-20511984D02*
X11048753Y-20511984D01*
X11105896Y-20511984D02*
X11105896Y-20311984D01*
X11105896Y-20311984D02*
X11086848Y-20340555D01*
X11086848Y-20340555D02*
X11067801Y-20359603D01*
X11067801Y-20359603D02*
X11048753Y-20369127D01*
X11248753Y-20492936D02*
X11258277Y-20502460D01*
X11258277Y-20502460D02*
X11248753Y-20511984D01*
X11248753Y-20511984D02*
X11239229Y-20502460D01*
X11239229Y-20502460D02*
X11248753Y-20492936D01*
X11248753Y-20492936D02*
X11248753Y-20511984D01*
X11334467Y-20331031D02*
X11343991Y-20321508D01*
X11343991Y-20321508D02*
X11363039Y-20311984D01*
X11363039Y-20311984D02*
X11410658Y-20311984D01*
X11410658Y-20311984D02*
X11429705Y-20321508D01*
X11429705Y-20321508D02*
X11439229Y-20331031D01*
X11439229Y-20331031D02*
X11448753Y-20350079D01*
X11448753Y-20350079D02*
X11448753Y-20369127D01*
X11448753Y-20369127D02*
X11439229Y-20397698D01*
X11439229Y-20397698D02*
X11324943Y-20511984D01*
X11324943Y-20511984D02*
X11448753Y-20511984D01*
X11515420Y-20311984D02*
X11648753Y-20311984D01*
X11648753Y-20311984D02*
X11563039Y-20511984D01*
X11763039Y-20311984D02*
X11782086Y-20311984D01*
X11782086Y-20311984D02*
X11801134Y-20321508D01*
X11801134Y-20321508D02*
X11810658Y-20331031D01*
X11810658Y-20331031D02*
X11820182Y-20350079D01*
X11820182Y-20350079D02*
X11829705Y-20388174D01*
X11829705Y-20388174D02*
X11829705Y-20435793D01*
X11829705Y-20435793D02*
X11820182Y-20473889D01*
X11820182Y-20473889D02*
X11810658Y-20492936D01*
X11810658Y-20492936D02*
X11801134Y-20502460D01*
X11801134Y-20502460D02*
X11782086Y-20511984D01*
X11782086Y-20511984D02*
X11763039Y-20511984D01*
X11763039Y-20511984D02*
X11743991Y-20502460D01*
X11743991Y-20502460D02*
X11734467Y-20492936D01*
X11734467Y-20492936D02*
X11724943Y-20473889D01*
X11724943Y-20473889D02*
X11715420Y-20435793D01*
X11715420Y-20435793D02*
X11715420Y-20388174D01*
X11715420Y-20388174D02*
X11724943Y-20350079D01*
X11724943Y-20350079D02*
X11734467Y-20331031D01*
X11734467Y-20331031D02*
X11743991Y-20321508D01*
X11743991Y-20321508D02*
X11763039Y-20311984D01*
X11915420Y-20511984D02*
X11915420Y-20378650D01*
X11915420Y-20397698D02*
X11924943Y-20388174D01*
X11924943Y-20388174D02*
X11943991Y-20378650D01*
X11943991Y-20378650D02*
X11972563Y-20378650D01*
X11972563Y-20378650D02*
X11991610Y-20388174D01*
X11991610Y-20388174D02*
X12001134Y-20407222D01*
X12001134Y-20407222D02*
X12001134Y-20511984D01*
X12001134Y-20407222D02*
X12010658Y-20388174D01*
X12010658Y-20388174D02*
X12029705Y-20378650D01*
X12029705Y-20378650D02*
X12058277Y-20378650D01*
X12058277Y-20378650D02*
X12077324Y-20388174D01*
X12077324Y-20388174D02*
X12086848Y-20407222D01*
X12086848Y-20407222D02*
X12086848Y-20511984D01*
X12182086Y-20511984D02*
X12182086Y-20378650D01*
X12182086Y-20397698D02*
X12191610Y-20388174D01*
X12191610Y-20388174D02*
X12210658Y-20378650D01*
X12210658Y-20378650D02*
X12239229Y-20378650D01*
X12239229Y-20378650D02*
X12258277Y-20388174D01*
X12258277Y-20388174D02*
X12267801Y-20407222D01*
X12267801Y-20407222D02*
X12267801Y-20511984D01*
X12267801Y-20407222D02*
X12277324Y-20388174D01*
X12277324Y-20388174D02*
X12296372Y-20378650D01*
X12296372Y-20378650D02*
X12324943Y-20378650D01*
X12324943Y-20378650D02*
X12343991Y-20388174D01*
X12343991Y-20388174D02*
X12353515Y-20407222D01*
X12353515Y-20407222D02*
X12353515Y-20511984D01*
X12743991Y-20302460D02*
X12572563Y-20559603D01*
X13001134Y-20311984D02*
X13020182Y-20311984D01*
X13020182Y-20311984D02*
X13039229Y-20321508D01*
X13039229Y-20321508D02*
X13048753Y-20331031D01*
X13048753Y-20331031D02*
X13058277Y-20350079D01*
X13058277Y-20350079D02*
X13067801Y-20388174D01*
X13067801Y-20388174D02*
X13067801Y-20435793D01*
X13067801Y-20435793D02*
X13058277Y-20473889D01*
X13058277Y-20473889D02*
X13048753Y-20492936D01*
X13048753Y-20492936D02*
X13039229Y-20502460D01*
X13039229Y-20502460D02*
X13020182Y-20511984D01*
X13020182Y-20511984D02*
X13001134Y-20511984D01*
X13001134Y-20511984D02*
X12982086Y-20502460D01*
X12982086Y-20502460D02*
X12972563Y-20492936D01*
X12972563Y-20492936D02*
X12963039Y-20473889D01*
X12963039Y-20473889D02*
X12953515Y-20435793D01*
X12953515Y-20435793D02*
X12953515Y-20388174D01*
X12953515Y-20388174D02*
X12963039Y-20350079D01*
X12963039Y-20350079D02*
X12972563Y-20331031D01*
X12972563Y-20331031D02*
X12982086Y-20321508D01*
X12982086Y-20321508D02*
X13001134Y-20311984D01*
X13153515Y-20492936D02*
X13163039Y-20502460D01*
X13163039Y-20502460D02*
X13153515Y-20511984D01*
X13153515Y-20511984D02*
X13143991Y-20502460D01*
X13143991Y-20502460D02*
X13153515Y-20492936D01*
X13153515Y-20492936D02*
X13153515Y-20511984D01*
X13286848Y-20311984D02*
X13305896Y-20311984D01*
X13305896Y-20311984D02*
X13324944Y-20321508D01*
X13324944Y-20321508D02*
X13334467Y-20331031D01*
X13334467Y-20331031D02*
X13343991Y-20350079D01*
X13343991Y-20350079D02*
X13353515Y-20388174D01*
X13353515Y-20388174D02*
X13353515Y-20435793D01*
X13353515Y-20435793D02*
X13343991Y-20473889D01*
X13343991Y-20473889D02*
X13334467Y-20492936D01*
X13334467Y-20492936D02*
X13324944Y-20502460D01*
X13324944Y-20502460D02*
X13305896Y-20511984D01*
X13305896Y-20511984D02*
X13286848Y-20511984D01*
X13286848Y-20511984D02*
X13267801Y-20502460D01*
X13267801Y-20502460D02*
X13258277Y-20492936D01*
X13258277Y-20492936D02*
X13248753Y-20473889D01*
X13248753Y-20473889D02*
X13239229Y-20435793D01*
X13239229Y-20435793D02*
X13239229Y-20388174D01*
X13239229Y-20388174D02*
X13248753Y-20350079D01*
X13248753Y-20350079D02*
X13258277Y-20331031D01*
X13258277Y-20331031D02*
X13267801Y-20321508D01*
X13267801Y-20321508D02*
X13286848Y-20311984D01*
X13534467Y-20311984D02*
X13439229Y-20311984D01*
X13439229Y-20311984D02*
X13429706Y-20407222D01*
X13429706Y-20407222D02*
X13439229Y-20397698D01*
X13439229Y-20397698D02*
X13458277Y-20388174D01*
X13458277Y-20388174D02*
X13505896Y-20388174D01*
X13505896Y-20388174D02*
X13524944Y-20397698D01*
X13524944Y-20397698D02*
X13534467Y-20407222D01*
X13534467Y-20407222D02*
X13543991Y-20426270D01*
X13543991Y-20426270D02*
X13543991Y-20473889D01*
X13543991Y-20473889D02*
X13534467Y-20492936D01*
X13534467Y-20492936D02*
X13524944Y-20502460D01*
X13524944Y-20502460D02*
X13505896Y-20511984D01*
X13505896Y-20511984D02*
X13458277Y-20511984D01*
X13458277Y-20511984D02*
X13439229Y-20502460D01*
X13439229Y-20502460D02*
X13429706Y-20492936D01*
X13667801Y-20311984D02*
X13686848Y-20311984D01*
X13686848Y-20311984D02*
X13705896Y-20321508D01*
X13705896Y-20321508D02*
X13715420Y-20331031D01*
X13715420Y-20331031D02*
X13724944Y-20350079D01*
X13724944Y-20350079D02*
X13734467Y-20388174D01*
X13734467Y-20388174D02*
X13734467Y-20435793D01*
X13734467Y-20435793D02*
X13724944Y-20473889D01*
X13724944Y-20473889D02*
X13715420Y-20492936D01*
X13715420Y-20492936D02*
X13705896Y-20502460D01*
X13705896Y-20502460D02*
X13686848Y-20511984D01*
X13686848Y-20511984D02*
X13667801Y-20511984D01*
X13667801Y-20511984D02*
X13648753Y-20502460D01*
X13648753Y-20502460D02*
X13639229Y-20492936D01*
X13639229Y-20492936D02*
X13629706Y-20473889D01*
X13629706Y-20473889D02*
X13620182Y-20435793D01*
X13620182Y-20435793D02*
X13620182Y-20388174D01*
X13620182Y-20388174D02*
X13629706Y-20350079D01*
X13629706Y-20350079D02*
X13639229Y-20331031D01*
X13639229Y-20331031D02*
X13648753Y-20321508D01*
X13648753Y-20321508D02*
X13667801Y-20311984D01*
X13858277Y-20311984D02*
X13877325Y-20311984D01*
X13877325Y-20311984D02*
X13896372Y-20321508D01*
X13896372Y-20321508D02*
X13905896Y-20331031D01*
X13905896Y-20331031D02*
X13915420Y-20350079D01*
X13915420Y-20350079D02*
X13924944Y-20388174D01*
X13924944Y-20388174D02*
X13924944Y-20435793D01*
X13924944Y-20435793D02*
X13915420Y-20473889D01*
X13915420Y-20473889D02*
X13905896Y-20492936D01*
X13905896Y-20492936D02*
X13896372Y-20502460D01*
X13896372Y-20502460D02*
X13877325Y-20511984D01*
X13877325Y-20511984D02*
X13858277Y-20511984D01*
X13858277Y-20511984D02*
X13839229Y-20502460D01*
X13839229Y-20502460D02*
X13829706Y-20492936D01*
X13829706Y-20492936D02*
X13820182Y-20473889D01*
X13820182Y-20473889D02*
X13810658Y-20435793D01*
X13810658Y-20435793D02*
X13810658Y-20388174D01*
X13810658Y-20388174D02*
X13820182Y-20350079D01*
X13820182Y-20350079D02*
X13829706Y-20331031D01*
X13829706Y-20331031D02*
X13839229Y-20321508D01*
X13839229Y-20321508D02*
X13858277Y-20311984D01*
X14001134Y-20311984D02*
X14001134Y-20350079D01*
X14077325Y-20311984D02*
X14077325Y-20350079D01*
X14372563Y-20588174D02*
X14363039Y-20578650D01*
X14363039Y-20578650D02*
X14343991Y-20550079D01*
X14343991Y-20550079D02*
X14334468Y-20531031D01*
X14334468Y-20531031D02*
X14324944Y-20502460D01*
X14324944Y-20502460D02*
X14315420Y-20454841D01*
X14315420Y-20454841D02*
X14315420Y-20416746D01*
X14315420Y-20416746D02*
X14324944Y-20369127D01*
X14324944Y-20369127D02*
X14334468Y-20340555D01*
X14334468Y-20340555D02*
X14343991Y-20321508D01*
X14343991Y-20321508D02*
X14363039Y-20292936D01*
X14363039Y-20292936D02*
X14372563Y-20283412D01*
X14439229Y-20331031D02*
X14448753Y-20321508D01*
X14448753Y-20321508D02*
X14467801Y-20311984D01*
X14467801Y-20311984D02*
X14515420Y-20311984D01*
X14515420Y-20311984D02*
X14534468Y-20321508D01*
X14534468Y-20321508D02*
X14543991Y-20331031D01*
X14543991Y-20331031D02*
X14553515Y-20350079D01*
X14553515Y-20350079D02*
X14553515Y-20369127D01*
X14553515Y-20369127D02*
X14543991Y-20397698D01*
X14543991Y-20397698D02*
X14429706Y-20511984D01*
X14429706Y-20511984D02*
X14553515Y-20511984D01*
X14724944Y-20378650D02*
X14724944Y-20511984D01*
X14677325Y-20302460D02*
X14629706Y-20445317D01*
X14629706Y-20445317D02*
X14753515Y-20445317D01*
X14982087Y-20511984D02*
X14982087Y-20311984D01*
X15067801Y-20511984D02*
X15067801Y-20407222D01*
X15067801Y-20407222D02*
X15058277Y-20388174D01*
X15058277Y-20388174D02*
X15039230Y-20378650D01*
X15039230Y-20378650D02*
X15010658Y-20378650D01*
X15010658Y-20378650D02*
X14991610Y-20388174D01*
X14991610Y-20388174D02*
X14982087Y-20397698D01*
X15191610Y-20511984D02*
X15172563Y-20502460D01*
X15172563Y-20502460D02*
X15163039Y-20492936D01*
X15163039Y-20492936D02*
X15153515Y-20473889D01*
X15153515Y-20473889D02*
X15153515Y-20416746D01*
X15153515Y-20416746D02*
X15163039Y-20397698D01*
X15163039Y-20397698D02*
X15172563Y-20388174D01*
X15172563Y-20388174D02*
X15191610Y-20378650D01*
X15191610Y-20378650D02*
X15220182Y-20378650D01*
X15220182Y-20378650D02*
X15239230Y-20388174D01*
X15239230Y-20388174D02*
X15248753Y-20397698D01*
X15248753Y-20397698D02*
X15258277Y-20416746D01*
X15258277Y-20416746D02*
X15258277Y-20473889D01*
X15258277Y-20473889D02*
X15248753Y-20492936D01*
X15248753Y-20492936D02*
X15239230Y-20502460D01*
X15239230Y-20502460D02*
X15220182Y-20511984D01*
X15220182Y-20511984D02*
X15191610Y-20511984D01*
X15372563Y-20511984D02*
X15353515Y-20502460D01*
X15353515Y-20502460D02*
X15343991Y-20483412D01*
X15343991Y-20483412D02*
X15343991Y-20311984D01*
X15524944Y-20502460D02*
X15505896Y-20511984D01*
X15505896Y-20511984D02*
X15467801Y-20511984D01*
X15467801Y-20511984D02*
X15448753Y-20502460D01*
X15448753Y-20502460D02*
X15439230Y-20483412D01*
X15439230Y-20483412D02*
X15439230Y-20407222D01*
X15439230Y-20407222D02*
X15448753Y-20388174D01*
X15448753Y-20388174D02*
X15467801Y-20378650D01*
X15467801Y-20378650D02*
X15505896Y-20378650D01*
X15505896Y-20378650D02*
X15524944Y-20388174D01*
X15524944Y-20388174D02*
X15534468Y-20407222D01*
X15534468Y-20407222D02*
X15534468Y-20426270D01*
X15534468Y-20426270D02*
X15439230Y-20445317D01*
X15610658Y-20502460D02*
X15629706Y-20511984D01*
X15629706Y-20511984D02*
X15667801Y-20511984D01*
X15667801Y-20511984D02*
X15686849Y-20502460D01*
X15686849Y-20502460D02*
X15696372Y-20483412D01*
X15696372Y-20483412D02*
X15696372Y-20473889D01*
X15696372Y-20473889D02*
X15686849Y-20454841D01*
X15686849Y-20454841D02*
X15667801Y-20445317D01*
X15667801Y-20445317D02*
X15639230Y-20445317D01*
X15639230Y-20445317D02*
X15620182Y-20435793D01*
X15620182Y-20435793D02*
X15610658Y-20416746D01*
X15610658Y-20416746D02*
X15610658Y-20407222D01*
X15610658Y-20407222D02*
X15620182Y-20388174D01*
X15620182Y-20388174D02*
X15639230Y-20378650D01*
X15639230Y-20378650D02*
X15667801Y-20378650D01*
X15667801Y-20378650D02*
X15686849Y-20388174D01*
X15763039Y-20588174D02*
X15772563Y-20578650D01*
X15772563Y-20578650D02*
X15791611Y-20550079D01*
X15791611Y-20550079D02*
X15801134Y-20531031D01*
X15801134Y-20531031D02*
X15810658Y-20502460D01*
X15810658Y-20502460D02*
X15820182Y-20454841D01*
X15820182Y-20454841D02*
X15820182Y-20416746D01*
X15820182Y-20416746D02*
X15810658Y-20369127D01*
X15810658Y-20369127D02*
X15801134Y-20340555D01*
X15801134Y-20340555D02*
X15791611Y-20321508D01*
X15791611Y-20321508D02*
X15772563Y-20292936D01*
X15772563Y-20292936D02*
X15763039Y-20283412D01*
M02*
