M48
; DRILL file {KiCad 8.0.1} date 2024-03-26T13:51:35-0400
; FORMAT={-:-/ absolute / inch / decimal}
; #@! TF.CreationDate,2024-03-26T13:51:35-04:00
; #@! TF.GenerationSoftware,Kicad,Pcbnew,8.0.1
; #@! TF.FileFunction,Plated,1,2,PTH
FMAT,2
INCH
; #@! TA.AperFunction,Plated,PTH,ViaDrill
T1C0.0118
; #@! TA.AperFunction,Plated,PTH,ComponentDrill
T2C0.0433
; #@! TA.AperFunction,Plated,PTH,ComponentDrill
T3C0.0500
%
G90
G05
T1
X7.5591Y-2.427
T2
X5.0295Y-2.4311
X5.0295Y-2.687
X5.2067Y-2.4311
X5.2067Y-2.687
X5.5217Y-2.4311
X5.5217Y-2.687
X5.6988Y-2.4311
X5.6988Y-2.687
X6.0138Y-2.4311
X6.0138Y-2.687
X6.1909Y-2.4311
X6.1909Y-2.687
X6.5059Y-2.4311
X6.5059Y-2.687
X6.6831Y-2.4311
X6.6831Y-2.687
X6.998Y-2.4311
X6.998Y-2.687
X7.1752Y-2.4311
X7.1752Y-2.687
T3
X5.2795Y-3.9902
X5.4764Y-4.0728
X6.6063Y-4.0689
X6.8031Y-4.1516
X7.7598Y-4.6713
X7.9567Y-4.7539
X8.4252Y-6.8917
X8.622Y-6.9744
X8.8661Y-5.4232
X8.9567Y-4.0807
X9.063Y-5.5059
X9.1535Y-4.1634
X10.0984Y-4.7303
X10.1063Y-3.3917
X10.2953Y-4.813
X10.3031Y-3.4744
X11.4291Y-4.7421
X11.4488Y-3.3996
X11.626Y-4.8248
X11.6457Y-3.4823
X12.7087Y-3.4429
X12.7165Y-4.7815
X12.9055Y-3.5256
X12.9134Y-4.8642
M30
