M48
; DRILL file {KiCad 8.0.1} date 2024-03-26T13:51:35-0400
; FORMAT={-:-/ absolute / inch / decimal}
; #@! TF.CreationDate,2024-03-26T13:51:35-04:00
; #@! TF.GenerationSoftware,Kicad,Pcbnew,8.0.1
; #@! TF.FileFunction,NonPlated,1,2,NPTH
FMAT,2
INCH
; #@! TA.AperFunction,NonPlated,NPTH,ComponentDrill
T1C0.0670
; #@! TA.AperFunction,NonPlated,NPTH,ComponentDrill
T2C0.1181
; #@! TA.AperFunction,NonPlated,NPTH,ComponentDrill
T3C0.1350
%
G90
G05
T1
X5.2598Y-3.8406
X5.6929Y-3.8406
X6.5866Y-3.9193
X7.0197Y-3.9193
X7.7402Y-4.5217
X8.1732Y-4.5217
X8.4055Y-6.7421
X8.8386Y-6.7421
X8.8465Y-5.2736
X8.937Y-3.9311
X9.2795Y-5.2736
X9.3701Y-3.9311
X10.0787Y-4.5807
X10.0866Y-3.2421
X10.5118Y-4.5807
X10.5197Y-3.2421
X11.4094Y-4.5925
X11.4291Y-3.25
X11.8425Y-4.5925
X11.8622Y-3.25
X12.689Y-3.2933
X12.6969Y-4.6319
X13.122Y-3.2933
X13.1299Y-4.6319
T2
X5.4764Y-3.6063
X5.6732Y-3.6929
X6.8031Y-3.685
X7.0Y-3.7717
X7.9567Y-4.2874
X8.1535Y-4.374
X8.622Y-6.5079
X8.8189Y-6.5945
X9.063Y-5.0394
X9.1535Y-3.6969
X9.2598Y-5.126
X9.3504Y-3.7835
X10.2953Y-4.3465
X10.3031Y-3.0079
X10.4921Y-4.4331
X10.5Y-3.0945
X11.626Y-4.3583
X11.6457Y-3.0157
X11.8228Y-4.4449
X11.8425Y-3.1024
X12.9055Y-3.0591
X12.9134Y-4.3976
X13.1024Y-3.1457
X13.1102Y-4.4843
T3
X5.4764Y-3.8406
X6.8031Y-3.9193
X7.9567Y-4.5217
X8.622Y-6.7421
X9.063Y-5.2736
X9.1535Y-3.9311
X10.2953Y-4.5807
X10.3031Y-3.2421
X11.626Y-4.5925
X11.6457Y-3.25
X12.9055Y-3.2933
X12.9134Y-4.6319
M30
