%TF.GenerationSoftware,KiCad,Pcbnew,8.0.1*%
%TF.CreationDate,2024-03-26T13:51:38-04:00*%
%TF.ProjectId,hitbox,68697462-6f78-42e6-9b69-6361645f7063,rev?*%
%TF.SameCoordinates,Original*%
%TF.FileFunction,Legend,Bot*%
%TF.FilePolarity,Positive*%
%FSLAX46Y46*%
G04 Gerber Fmt 4.6, Leading zero omitted, Abs format (unit mm)*
G04 Created by KiCad (PCBNEW 8.0.1) date 2024-03-26 13:51:38*
%MOMM*%
%LPD*%
G01*
G04 APERTURE LIST*
%ADD10C,0.150000*%
G04 APERTURE END LIST*
D10*
X269619047Y-108661009D02*
X269476190Y-108708628D01*
X269476190Y-108708628D02*
X269428571Y-108756247D01*
X269428571Y-108756247D02*
X269380952Y-108851485D01*
X269380952Y-108851485D02*
X269380952Y-108994342D01*
X269380952Y-108994342D02*
X269428571Y-109089580D01*
X269428571Y-109089580D02*
X269476190Y-109137200D01*
X269476190Y-109137200D02*
X269571428Y-109184819D01*
X269571428Y-109184819D02*
X269952380Y-109184819D01*
X269952380Y-109184819D02*
X269952380Y-108184819D01*
X269952380Y-108184819D02*
X269619047Y-108184819D01*
X269619047Y-108184819D02*
X269523809Y-108232438D01*
X269523809Y-108232438D02*
X269476190Y-108280057D01*
X269476190Y-108280057D02*
X269428571Y-108375295D01*
X269428571Y-108375295D02*
X269428571Y-108470533D01*
X269428571Y-108470533D02*
X269476190Y-108565771D01*
X269476190Y-108565771D02*
X269523809Y-108613390D01*
X269523809Y-108613390D02*
X269619047Y-108661009D01*
X269619047Y-108661009D02*
X269952380Y-108661009D01*
X268238095Y-108137200D02*
X269095237Y-109422914D01*
X267333333Y-109089580D02*
X267380952Y-109137200D01*
X267380952Y-109137200D02*
X267523809Y-109184819D01*
X267523809Y-109184819D02*
X267619047Y-109184819D01*
X267619047Y-109184819D02*
X267761904Y-109137200D01*
X267761904Y-109137200D02*
X267857142Y-109041961D01*
X267857142Y-109041961D02*
X267904761Y-108946723D01*
X267904761Y-108946723D02*
X267952380Y-108756247D01*
X267952380Y-108756247D02*
X267952380Y-108613390D01*
X267952380Y-108613390D02*
X267904761Y-108422914D01*
X267904761Y-108422914D02*
X267857142Y-108327676D01*
X267857142Y-108327676D02*
X267761904Y-108232438D01*
X267761904Y-108232438D02*
X267619047Y-108184819D01*
X267619047Y-108184819D02*
X267523809Y-108184819D01*
X267523809Y-108184819D02*
X267380952Y-108232438D01*
X267380952Y-108232438D02*
X267333333Y-108280057D01*
X266904761Y-109184819D02*
X266904761Y-108518152D01*
X266904761Y-108184819D02*
X266952380Y-108232438D01*
X266952380Y-108232438D02*
X266904761Y-108280057D01*
X266904761Y-108280057D02*
X266857142Y-108232438D01*
X266857142Y-108232438D02*
X266904761Y-108184819D01*
X266904761Y-108184819D02*
X266904761Y-108280057D01*
X266428571Y-109184819D02*
X266428571Y-108518152D01*
X266428571Y-108708628D02*
X266380952Y-108613390D01*
X266380952Y-108613390D02*
X266333333Y-108565771D01*
X266333333Y-108565771D02*
X266238095Y-108518152D01*
X266238095Y-108518152D02*
X266142857Y-108518152D01*
X265380952Y-109137200D02*
X265476190Y-109184819D01*
X265476190Y-109184819D02*
X265666666Y-109184819D01*
X265666666Y-109184819D02*
X265761904Y-109137200D01*
X265761904Y-109137200D02*
X265809523Y-109089580D01*
X265809523Y-109089580D02*
X265857142Y-108994342D01*
X265857142Y-108994342D02*
X265857142Y-108708628D01*
X265857142Y-108708628D02*
X265809523Y-108613390D01*
X265809523Y-108613390D02*
X265761904Y-108565771D01*
X265761904Y-108565771D02*
X265666666Y-108518152D01*
X265666666Y-108518152D02*
X265476190Y-108518152D01*
X265476190Y-108518152D02*
X265380952Y-108565771D01*
X264809523Y-109184819D02*
X264904761Y-109137200D01*
X264904761Y-109137200D02*
X264952380Y-109041961D01*
X264952380Y-109041961D02*
X264952380Y-108184819D01*
X264047618Y-109137200D02*
X264142856Y-109184819D01*
X264142856Y-109184819D02*
X264333332Y-109184819D01*
X264333332Y-109184819D02*
X264428570Y-109137200D01*
X264428570Y-109137200D02*
X264476189Y-109041961D01*
X264476189Y-109041961D02*
X264476189Y-108661009D01*
X264476189Y-108661009D02*
X264428570Y-108565771D01*
X264428570Y-108565771D02*
X264333332Y-108518152D01*
X264333332Y-108518152D02*
X264142856Y-108518152D01*
X264142856Y-108518152D02*
X264047618Y-108565771D01*
X264047618Y-108565771D02*
X263999999Y-108661009D01*
X263999999Y-108661009D02*
X263999999Y-108756247D01*
X263999999Y-108756247D02*
X264476189Y-108851485D01*
X177983094Y-91384819D02*
X177983094Y-92194342D01*
X177983094Y-92194342D02*
X177935475Y-92289580D01*
X177935475Y-92289580D02*
X177887856Y-92337200D01*
X177887856Y-92337200D02*
X177792618Y-92384819D01*
X177792618Y-92384819D02*
X177602142Y-92384819D01*
X177602142Y-92384819D02*
X177506904Y-92337200D01*
X177506904Y-92337200D02*
X177459285Y-92289580D01*
X177459285Y-92289580D02*
X177411666Y-92194342D01*
X177411666Y-92194342D02*
X177411666Y-91384819D01*
X176935475Y-91718152D02*
X176935475Y-92718152D01*
X176935475Y-91765771D02*
X176840237Y-91718152D01*
X176840237Y-91718152D02*
X176649761Y-91718152D01*
X176649761Y-91718152D02*
X176554523Y-91765771D01*
X176554523Y-91765771D02*
X176506904Y-91813390D01*
X176506904Y-91813390D02*
X176459285Y-91908628D01*
X176459285Y-91908628D02*
X176459285Y-92194342D01*
X176459285Y-92194342D02*
X176506904Y-92289580D01*
X176506904Y-92289580D02*
X176554523Y-92337200D01*
X176554523Y-92337200D02*
X176649761Y-92384819D01*
X176649761Y-92384819D02*
X176840237Y-92384819D01*
X176840237Y-92384819D02*
X176935475Y-92337200D01*
X144235476Y-90384819D02*
X144711666Y-90384819D01*
X144711666Y-90384819D02*
X144711666Y-89384819D01*
X143521190Y-90337200D02*
X143616428Y-90384819D01*
X143616428Y-90384819D02*
X143806904Y-90384819D01*
X143806904Y-90384819D02*
X143902142Y-90337200D01*
X143902142Y-90337200D02*
X143949761Y-90241961D01*
X143949761Y-90241961D02*
X143949761Y-89861009D01*
X143949761Y-89861009D02*
X143902142Y-89765771D01*
X143902142Y-89765771D02*
X143806904Y-89718152D01*
X143806904Y-89718152D02*
X143616428Y-89718152D01*
X143616428Y-89718152D02*
X143521190Y-89765771D01*
X143521190Y-89765771D02*
X143473571Y-89861009D01*
X143473571Y-89861009D02*
X143473571Y-89956247D01*
X143473571Y-89956247D02*
X143949761Y-90051485D01*
X143187856Y-89718152D02*
X142806904Y-89718152D01*
X143044999Y-90384819D02*
X143044999Y-89527676D01*
X143044999Y-89527676D02*
X142997380Y-89432438D01*
X142997380Y-89432438D02*
X142902142Y-89384819D01*
X142902142Y-89384819D02*
X142806904Y-89384819D01*
X142616427Y-89718152D02*
X142235475Y-89718152D01*
X142473570Y-89384819D02*
X142473570Y-90241961D01*
X142473570Y-90241961D02*
X142425951Y-90337200D01*
X142425951Y-90337200D02*
X142330713Y-90384819D01*
X142330713Y-90384819D02*
X142235475Y-90384819D01*
X332516428Y-110484819D02*
X332992618Y-110484819D01*
X332992618Y-110484819D02*
X332992618Y-109484819D01*
X332325951Y-109484819D02*
X331754523Y-109484819D01*
X332040237Y-110484819D02*
X332040237Y-109484819D01*
X224183094Y-163084819D02*
X224183094Y-163894342D01*
X224183094Y-163894342D02*
X224135475Y-163989580D01*
X224135475Y-163989580D02*
X224087856Y-164037200D01*
X224087856Y-164037200D02*
X223992618Y-164084819D01*
X223992618Y-164084819D02*
X223802142Y-164084819D01*
X223802142Y-164084819D02*
X223706904Y-164037200D01*
X223706904Y-164037200D02*
X223659285Y-163989580D01*
X223659285Y-163989580D02*
X223611666Y-163894342D01*
X223611666Y-163894342D02*
X223611666Y-163084819D01*
X223135475Y-163418152D02*
X223135475Y-164418152D01*
X223135475Y-163465771D02*
X223040237Y-163418152D01*
X223040237Y-163418152D02*
X222849761Y-163418152D01*
X222849761Y-163418152D02*
X222754523Y-163465771D01*
X222754523Y-163465771D02*
X222706904Y-163513390D01*
X222706904Y-163513390D02*
X222659285Y-163608628D01*
X222659285Y-163608628D02*
X222659285Y-163894342D01*
X222659285Y-163894342D02*
X222706904Y-163989580D01*
X222706904Y-163989580D02*
X222754523Y-164037200D01*
X222754523Y-164037200D02*
X222849761Y-164084819D01*
X222849761Y-164084819D02*
X223040237Y-164084819D01*
X223040237Y-164084819D02*
X223135475Y-164037200D01*
X332435476Y-76484819D02*
X332911666Y-76484819D01*
X332911666Y-76484819D02*
X332911666Y-75484819D01*
X331768809Y-75961009D02*
X331625952Y-76008628D01*
X331625952Y-76008628D02*
X331578333Y-76056247D01*
X331578333Y-76056247D02*
X331530714Y-76151485D01*
X331530714Y-76151485D02*
X331530714Y-76294342D01*
X331530714Y-76294342D02*
X331578333Y-76389580D01*
X331578333Y-76389580D02*
X331625952Y-76437200D01*
X331625952Y-76437200D02*
X331721190Y-76484819D01*
X331721190Y-76484819D02*
X332102142Y-76484819D01*
X332102142Y-76484819D02*
X332102142Y-75484819D01*
X332102142Y-75484819D02*
X331768809Y-75484819D01*
X331768809Y-75484819D02*
X331673571Y-75532438D01*
X331673571Y-75532438D02*
X331625952Y-75580057D01*
X331625952Y-75580057D02*
X331578333Y-75675295D01*
X331578333Y-75675295D02*
X331578333Y-75770533D01*
X331578333Y-75770533D02*
X331625952Y-75865771D01*
X331625952Y-75865771D02*
X331673571Y-75913390D01*
X331673571Y-75913390D02*
X331768809Y-75961009D01*
X331768809Y-75961009D02*
X332102142Y-75961009D01*
X272000000Y-74708628D02*
X272000000Y-75184819D01*
X272333333Y-74184819D02*
X272000000Y-74708628D01*
X272000000Y-74708628D02*
X271666667Y-74184819D01*
X270619048Y-74137200D02*
X271476190Y-75422914D01*
X270428571Y-74184819D02*
X269857143Y-74184819D01*
X270142857Y-75184819D02*
X270142857Y-74184819D01*
X269523809Y-75184819D02*
X269523809Y-74518152D01*
X269523809Y-74708628D02*
X269476190Y-74613390D01*
X269476190Y-74613390D02*
X269428571Y-74565771D01*
X269428571Y-74565771D02*
X269333333Y-74518152D01*
X269333333Y-74518152D02*
X269238095Y-74518152D01*
X268904761Y-75184819D02*
X268904761Y-74518152D01*
X268904761Y-74184819D02*
X268952380Y-74232438D01*
X268952380Y-74232438D02*
X268904761Y-74280057D01*
X268904761Y-74280057D02*
X268857142Y-74232438D01*
X268857142Y-74232438D02*
X268904761Y-74184819D01*
X268904761Y-74184819D02*
X268904761Y-74280057D01*
X268000000Y-75184819D02*
X268000000Y-74661009D01*
X268000000Y-74661009D02*
X268047619Y-74565771D01*
X268047619Y-74565771D02*
X268142857Y-74518152D01*
X268142857Y-74518152D02*
X268333333Y-74518152D01*
X268333333Y-74518152D02*
X268428571Y-74565771D01*
X268000000Y-75137200D02*
X268095238Y-75184819D01*
X268095238Y-75184819D02*
X268333333Y-75184819D01*
X268333333Y-75184819D02*
X268428571Y-75137200D01*
X268428571Y-75137200D02*
X268476190Y-75041961D01*
X268476190Y-75041961D02*
X268476190Y-74946723D01*
X268476190Y-74946723D02*
X268428571Y-74851485D01*
X268428571Y-74851485D02*
X268333333Y-74803866D01*
X268333333Y-74803866D02*
X268095238Y-74803866D01*
X268095238Y-74803866D02*
X268000000Y-74756247D01*
X267523809Y-74518152D02*
X267523809Y-75184819D01*
X267523809Y-74613390D02*
X267476190Y-74565771D01*
X267476190Y-74565771D02*
X267380952Y-74518152D01*
X267380952Y-74518152D02*
X267238095Y-74518152D01*
X267238095Y-74518152D02*
X267142857Y-74565771D01*
X267142857Y-74565771D02*
X267095238Y-74661009D01*
X267095238Y-74661009D02*
X267095238Y-75184819D01*
X266190476Y-74518152D02*
X266190476Y-75327676D01*
X266190476Y-75327676D02*
X266238095Y-75422914D01*
X266238095Y-75422914D02*
X266285714Y-75470533D01*
X266285714Y-75470533D02*
X266380952Y-75518152D01*
X266380952Y-75518152D02*
X266523809Y-75518152D01*
X266523809Y-75518152D02*
X266619047Y-75470533D01*
X266190476Y-75137200D02*
X266285714Y-75184819D01*
X266285714Y-75184819D02*
X266476190Y-75184819D01*
X266476190Y-75184819D02*
X266571428Y-75137200D01*
X266571428Y-75137200D02*
X266619047Y-75089580D01*
X266619047Y-75089580D02*
X266666666Y-74994342D01*
X266666666Y-74994342D02*
X266666666Y-74708628D01*
X266666666Y-74708628D02*
X266619047Y-74613390D01*
X266619047Y-74613390D02*
X266571428Y-74565771D01*
X266571428Y-74565771D02*
X266476190Y-74518152D01*
X266476190Y-74518152D02*
X266285714Y-74518152D01*
X266285714Y-74518152D02*
X266190476Y-74565771D01*
X265571428Y-75184819D02*
X265666666Y-75137200D01*
X265666666Y-75137200D02*
X265714285Y-75041961D01*
X265714285Y-75041961D02*
X265714285Y-74184819D01*
X264809523Y-75137200D02*
X264904761Y-75184819D01*
X264904761Y-75184819D02*
X265095237Y-75184819D01*
X265095237Y-75184819D02*
X265190475Y-75137200D01*
X265190475Y-75137200D02*
X265238094Y-75041961D01*
X265238094Y-75041961D02*
X265238094Y-74661009D01*
X265238094Y-74661009D02*
X265190475Y-74565771D01*
X265190475Y-74565771D02*
X265095237Y-74518152D01*
X265095237Y-74518152D02*
X264904761Y-74518152D01*
X264904761Y-74518152D02*
X264809523Y-74565771D01*
X264809523Y-74565771D02*
X264761904Y-74661009D01*
X264761904Y-74661009D02*
X264761904Y-74756247D01*
X264761904Y-74756247D02*
X265238094Y-74851485D01*
X207664047Y-107684819D02*
X207997380Y-107208628D01*
X208235475Y-107684819D02*
X208235475Y-106684819D01*
X208235475Y-106684819D02*
X207854523Y-106684819D01*
X207854523Y-106684819D02*
X207759285Y-106732438D01*
X207759285Y-106732438D02*
X207711666Y-106780057D01*
X207711666Y-106780057D02*
X207664047Y-106875295D01*
X207664047Y-106875295D02*
X207664047Y-107018152D01*
X207664047Y-107018152D02*
X207711666Y-107113390D01*
X207711666Y-107113390D02*
X207759285Y-107161009D01*
X207759285Y-107161009D02*
X207854523Y-107208628D01*
X207854523Y-107208628D02*
X208235475Y-107208628D01*
X207235475Y-107684819D02*
X207235475Y-107018152D01*
X207235475Y-106684819D02*
X207283094Y-106732438D01*
X207283094Y-106732438D02*
X207235475Y-106780057D01*
X207235475Y-106780057D02*
X207187856Y-106732438D01*
X207187856Y-106732438D02*
X207235475Y-106684819D01*
X207235475Y-106684819D02*
X207235475Y-106780057D01*
X206330714Y-107018152D02*
X206330714Y-107827676D01*
X206330714Y-107827676D02*
X206378333Y-107922914D01*
X206378333Y-107922914D02*
X206425952Y-107970533D01*
X206425952Y-107970533D02*
X206521190Y-108018152D01*
X206521190Y-108018152D02*
X206664047Y-108018152D01*
X206664047Y-108018152D02*
X206759285Y-107970533D01*
X206330714Y-107637200D02*
X206425952Y-107684819D01*
X206425952Y-107684819D02*
X206616428Y-107684819D01*
X206616428Y-107684819D02*
X206711666Y-107637200D01*
X206711666Y-107637200D02*
X206759285Y-107589580D01*
X206759285Y-107589580D02*
X206806904Y-107494342D01*
X206806904Y-107494342D02*
X206806904Y-107208628D01*
X206806904Y-107208628D02*
X206759285Y-107113390D01*
X206759285Y-107113390D02*
X206711666Y-107065771D01*
X206711666Y-107065771D02*
X206616428Y-107018152D01*
X206616428Y-107018152D02*
X206425952Y-107018152D01*
X206425952Y-107018152D02*
X206330714Y-107065771D01*
X205854523Y-107684819D02*
X205854523Y-106684819D01*
X205425952Y-107684819D02*
X205425952Y-107161009D01*
X205425952Y-107161009D02*
X205473571Y-107065771D01*
X205473571Y-107065771D02*
X205568809Y-107018152D01*
X205568809Y-107018152D02*
X205711666Y-107018152D01*
X205711666Y-107018152D02*
X205806904Y-107065771D01*
X205806904Y-107065771D02*
X205854523Y-107113390D01*
X205092618Y-107018152D02*
X204711666Y-107018152D01*
X204949761Y-106684819D02*
X204949761Y-107541961D01*
X204949761Y-107541961D02*
X204902142Y-107637200D01*
X204902142Y-107637200D02*
X204806904Y-107684819D01*
X204806904Y-107684819D02*
X204711666Y-107684819D01*
X241928571Y-91684819D02*
X241261905Y-92684819D01*
X241261905Y-91684819D02*
X241928571Y-92684819D01*
X240166667Y-91637200D02*
X241023809Y-92922914D01*
X239880952Y-92637200D02*
X239738095Y-92684819D01*
X239738095Y-92684819D02*
X239500000Y-92684819D01*
X239500000Y-92684819D02*
X239404762Y-92637200D01*
X239404762Y-92637200D02*
X239357143Y-92589580D01*
X239357143Y-92589580D02*
X239309524Y-92494342D01*
X239309524Y-92494342D02*
X239309524Y-92399104D01*
X239309524Y-92399104D02*
X239357143Y-92303866D01*
X239357143Y-92303866D02*
X239404762Y-92256247D01*
X239404762Y-92256247D02*
X239500000Y-92208628D01*
X239500000Y-92208628D02*
X239690476Y-92161009D01*
X239690476Y-92161009D02*
X239785714Y-92113390D01*
X239785714Y-92113390D02*
X239833333Y-92065771D01*
X239833333Y-92065771D02*
X239880952Y-91970533D01*
X239880952Y-91970533D02*
X239880952Y-91875295D01*
X239880952Y-91875295D02*
X239833333Y-91780057D01*
X239833333Y-91780057D02*
X239785714Y-91732438D01*
X239785714Y-91732438D02*
X239690476Y-91684819D01*
X239690476Y-91684819D02*
X239452381Y-91684819D01*
X239452381Y-91684819D02*
X239309524Y-91732438D01*
X238452381Y-92018152D02*
X238452381Y-93018152D01*
X238452381Y-92637200D02*
X238547619Y-92684819D01*
X238547619Y-92684819D02*
X238738095Y-92684819D01*
X238738095Y-92684819D02*
X238833333Y-92637200D01*
X238833333Y-92637200D02*
X238880952Y-92589580D01*
X238880952Y-92589580D02*
X238928571Y-92494342D01*
X238928571Y-92494342D02*
X238928571Y-92208628D01*
X238928571Y-92208628D02*
X238880952Y-92113390D01*
X238880952Y-92113390D02*
X238833333Y-92065771D01*
X238833333Y-92065771D02*
X238738095Y-92018152D01*
X238738095Y-92018152D02*
X238547619Y-92018152D01*
X238547619Y-92018152D02*
X238452381Y-92065771D01*
X237547619Y-92018152D02*
X237547619Y-92684819D01*
X237976190Y-92018152D02*
X237976190Y-92541961D01*
X237976190Y-92541961D02*
X237928571Y-92637200D01*
X237928571Y-92637200D02*
X237833333Y-92684819D01*
X237833333Y-92684819D02*
X237690476Y-92684819D01*
X237690476Y-92684819D02*
X237595238Y-92637200D01*
X237595238Y-92637200D02*
X237547619Y-92589580D01*
X236642857Y-92684819D02*
X236642857Y-92161009D01*
X236642857Y-92161009D02*
X236690476Y-92065771D01*
X236690476Y-92065771D02*
X236785714Y-92018152D01*
X236785714Y-92018152D02*
X236976190Y-92018152D01*
X236976190Y-92018152D02*
X237071428Y-92065771D01*
X236642857Y-92637200D02*
X236738095Y-92684819D01*
X236738095Y-92684819D02*
X236976190Y-92684819D01*
X236976190Y-92684819D02*
X237071428Y-92637200D01*
X237071428Y-92637200D02*
X237119047Y-92541961D01*
X237119047Y-92541961D02*
X237119047Y-92446723D01*
X237119047Y-92446723D02*
X237071428Y-92351485D01*
X237071428Y-92351485D02*
X236976190Y-92303866D01*
X236976190Y-92303866D02*
X236738095Y-92303866D01*
X236738095Y-92303866D02*
X236642857Y-92256247D01*
X236166666Y-92684819D02*
X236166666Y-92018152D01*
X236166666Y-92208628D02*
X236119047Y-92113390D01*
X236119047Y-92113390D02*
X236071428Y-92065771D01*
X236071428Y-92065771D02*
X235976190Y-92018152D01*
X235976190Y-92018152D02*
X235880952Y-92018152D01*
X235166666Y-92637200D02*
X235261904Y-92684819D01*
X235261904Y-92684819D02*
X235452380Y-92684819D01*
X235452380Y-92684819D02*
X235547618Y-92637200D01*
X235547618Y-92637200D02*
X235595237Y-92541961D01*
X235595237Y-92541961D02*
X235595237Y-92161009D01*
X235595237Y-92161009D02*
X235547618Y-92065771D01*
X235547618Y-92065771D02*
X235452380Y-92018152D01*
X235452380Y-92018152D02*
X235261904Y-92018152D01*
X235261904Y-92018152D02*
X235166666Y-92065771D01*
X235166666Y-92065771D02*
X235119047Y-92161009D01*
X235119047Y-92161009D02*
X235119047Y-92256247D01*
X235119047Y-92256247D02*
X235595237Y-92351485D01*
X235930713Y-125784819D02*
X235264047Y-126784819D01*
X235264047Y-125784819D02*
X235930713Y-126784819D01*
X234168809Y-125737200D02*
X235025951Y-127022914D01*
X233883094Y-126499104D02*
X233406904Y-126499104D01*
X233978332Y-126784819D02*
X233644999Y-125784819D01*
X233644999Y-125784819D02*
X233311666Y-126784819D01*
X299816428Y-109484819D02*
X300149761Y-109008628D01*
X300387856Y-109484819D02*
X300387856Y-108484819D01*
X300387856Y-108484819D02*
X300006904Y-108484819D01*
X300006904Y-108484819D02*
X299911666Y-108532438D01*
X299911666Y-108532438D02*
X299864047Y-108580057D01*
X299864047Y-108580057D02*
X299816428Y-108675295D01*
X299816428Y-108675295D02*
X299816428Y-108818152D01*
X299816428Y-108818152D02*
X299864047Y-108913390D01*
X299864047Y-108913390D02*
X299911666Y-108961009D01*
X299911666Y-108961009D02*
X300006904Y-109008628D01*
X300006904Y-109008628D02*
X300387856Y-109008628D01*
X299530713Y-108484819D02*
X298959285Y-108484819D01*
X299244999Y-109484819D02*
X299244999Y-108484819D01*
X300435476Y-75384819D02*
X300768809Y-74908628D01*
X301006904Y-75384819D02*
X301006904Y-74384819D01*
X301006904Y-74384819D02*
X300625952Y-74384819D01*
X300625952Y-74384819D02*
X300530714Y-74432438D01*
X300530714Y-74432438D02*
X300483095Y-74480057D01*
X300483095Y-74480057D02*
X300435476Y-74575295D01*
X300435476Y-74575295D02*
X300435476Y-74718152D01*
X300435476Y-74718152D02*
X300483095Y-74813390D01*
X300483095Y-74813390D02*
X300530714Y-74861009D01*
X300530714Y-74861009D02*
X300625952Y-74908628D01*
X300625952Y-74908628D02*
X301006904Y-74908628D01*
X299673571Y-74861009D02*
X299530714Y-74908628D01*
X299530714Y-74908628D02*
X299483095Y-74956247D01*
X299483095Y-74956247D02*
X299435476Y-75051485D01*
X299435476Y-75051485D02*
X299435476Y-75194342D01*
X299435476Y-75194342D02*
X299483095Y-75289580D01*
X299483095Y-75289580D02*
X299530714Y-75337200D01*
X299530714Y-75337200D02*
X299625952Y-75384819D01*
X299625952Y-75384819D02*
X300006904Y-75384819D01*
X300006904Y-75384819D02*
X300006904Y-74384819D01*
X300006904Y-74384819D02*
X299673571Y-74384819D01*
X299673571Y-74384819D02*
X299578333Y-74432438D01*
X299578333Y-74432438D02*
X299530714Y-74480057D01*
X299530714Y-74480057D02*
X299483095Y-74575295D01*
X299483095Y-74575295D02*
X299483095Y-74670533D01*
X299483095Y-74670533D02*
X299530714Y-74765771D01*
X299530714Y-74765771D02*
X299578333Y-74813390D01*
X299578333Y-74813390D02*
X299673571Y-74861009D01*
X299673571Y-74861009D02*
X300006904Y-74861009D01*
%TO.C,B/Circle*%
X259500000Y-108650000D02*
X260000000Y-108150000D01*
X259500000Y-112150000D02*
X260000000Y-112650000D01*
X260000000Y-108150000D02*
X263000000Y-108150000D01*
X260000000Y-112650000D02*
X262500000Y-112650000D01*
X263000000Y-108150000D02*
X263500000Y-108650000D01*
X263500000Y-109650000D02*
X263500000Y-108650000D01*
X264000000Y-114150000D02*
X264000000Y-114850000D01*
X264000000Y-114850000D02*
X268500000Y-114850000D01*
X268500000Y-110150000D02*
X264000000Y-110150000D01*
X268500000Y-110750000D02*
X268500000Y-110150000D01*
X268500000Y-114850000D02*
X268500000Y-114350000D01*
X262500000Y-112650000D02*
G75*
G02*
X264000000Y-114150000I0J-1500000D01*
G01*
X264000000Y-110150000D02*
G75*
G02*
X263500000Y-109650000I0J500000D01*
G01*
%TO.C,Up*%
X170800000Y-91850000D02*
X171300000Y-91350000D01*
X170800000Y-95350000D02*
X171300000Y-95850000D01*
X171300000Y-91350000D02*
X174300000Y-91350000D01*
X171300000Y-95850000D02*
X173800000Y-95850000D01*
X174300000Y-91350000D02*
X174800000Y-91850000D01*
X174800000Y-92850000D02*
X174800000Y-91850000D01*
X175300000Y-97350000D02*
X175300000Y-98050000D01*
X175300000Y-98050000D02*
X179800000Y-98050000D01*
X179800000Y-93350000D02*
X175300000Y-93350000D01*
X179800000Y-93950000D02*
X179800000Y-93350000D01*
X179800000Y-98050000D02*
X179800000Y-97550000D01*
X173800000Y-95850000D02*
G75*
G02*
X175300000Y-97350000I0J-1500000D01*
G01*
X175300000Y-93350000D02*
G75*
G02*
X174800000Y-92850000I0J500000D01*
G01*
%TO.C,Left*%
X137100000Y-89850000D02*
X137600000Y-89350000D01*
X137100000Y-93350000D02*
X137600000Y-93850000D01*
X137600000Y-89350000D02*
X140600000Y-89350000D01*
X137600000Y-93850000D02*
X140100000Y-93850000D01*
X140600000Y-89350000D02*
X141100000Y-89850000D01*
X141100000Y-90850000D02*
X141100000Y-89850000D01*
X141600000Y-95350000D02*
X141600000Y-96050000D01*
X141600000Y-96050000D02*
X146100000Y-96050000D01*
X146100000Y-91350000D02*
X141600000Y-91350000D01*
X146100000Y-91950000D02*
X146100000Y-91350000D01*
X146100000Y-96050000D02*
X146100000Y-95550000D01*
X140100000Y-93850000D02*
G75*
G02*
X141600000Y-95350000I0J-1500000D01*
G01*
X141600000Y-91350000D02*
G75*
G02*
X141100000Y-90850000I0J500000D01*
G01*
%TO.C,LT*%
X326000000Y-109950000D02*
X326500000Y-109450000D01*
X326000000Y-113450000D02*
X326500000Y-113950000D01*
X326500000Y-109450000D02*
X329500000Y-109450000D01*
X326500000Y-113950000D02*
X329000000Y-113950000D01*
X329500000Y-109450000D02*
X330000000Y-109950000D01*
X330000000Y-110950000D02*
X330000000Y-109950000D01*
X330500000Y-115450000D02*
X330500000Y-116150000D01*
X330500000Y-116150000D02*
X335000000Y-116150000D01*
X335000000Y-111450000D02*
X330500000Y-111450000D01*
X335000000Y-112050000D02*
X335000000Y-111450000D01*
X335000000Y-116150000D02*
X335000000Y-115650000D01*
X329000000Y-113950000D02*
G75*
G02*
X330500000Y-115450000I0J-1500000D01*
G01*
X330500000Y-111450000D02*
G75*
G02*
X330000000Y-110950000I0J500000D01*
G01*
%TO.C,Up*%
X217000000Y-163550000D02*
X217500000Y-163050000D01*
X217000000Y-167050000D02*
X217500000Y-167550000D01*
X217500000Y-163050000D02*
X220500000Y-163050000D01*
X217500000Y-167550000D02*
X220000000Y-167550000D01*
X220500000Y-163050000D02*
X221000000Y-163550000D01*
X221000000Y-164550000D02*
X221000000Y-163550000D01*
X221500000Y-169050000D02*
X221500000Y-169750000D01*
X221500000Y-169750000D02*
X226000000Y-169750000D01*
X226000000Y-165050000D02*
X221500000Y-165050000D01*
X226000000Y-165650000D02*
X226000000Y-165050000D01*
X226000000Y-169750000D02*
X226000000Y-169250000D01*
X220000000Y-167550000D02*
G75*
G02*
X221500000Y-169050000I0J-1500000D01*
G01*
X221500000Y-165050000D02*
G75*
G02*
X221000000Y-164550000I0J500000D01*
G01*
%TO.C,LB*%
X325800000Y-75950000D02*
X326300000Y-75450000D01*
X325800000Y-79450000D02*
X326300000Y-79950000D01*
X326300000Y-75450000D02*
X329300000Y-75450000D01*
X326300000Y-79950000D02*
X328800000Y-79950000D01*
X329300000Y-75450000D02*
X329800000Y-75950000D01*
X329800000Y-76950000D02*
X329800000Y-75950000D01*
X330300000Y-81450000D02*
X330300000Y-82150000D01*
X330300000Y-82150000D02*
X334800000Y-82150000D01*
X334800000Y-77450000D02*
X330300000Y-77450000D01*
X334800000Y-78050000D02*
X334800000Y-77450000D01*
X334800000Y-82150000D02*
X334800000Y-81650000D01*
X328800000Y-79950000D02*
G75*
G02*
X330300000Y-81450000I0J-1500000D01*
G01*
X330300000Y-77450000D02*
G75*
G02*
X329800000Y-76950000I0J500000D01*
G01*
%TO.C,Y/Triangle*%
X264200000Y-76150000D02*
G75*
G02*
X263700000Y-75650000I0J500000D01*
G01*
X262700000Y-78650000D02*
G75*
G02*
X264200000Y-80150000I0J-1500000D01*
G01*
X268700000Y-80850000D02*
X268700000Y-80350000D01*
X268700000Y-76750000D02*
X268700000Y-76150000D01*
X268700000Y-76150000D02*
X264200000Y-76150000D01*
X264200000Y-80850000D02*
X268700000Y-80850000D01*
X264200000Y-80150000D02*
X264200000Y-80850000D01*
X263700000Y-75650000D02*
X263700000Y-74650000D01*
X263200000Y-74150000D02*
X263700000Y-74650000D01*
X260200000Y-78650000D02*
X262700000Y-78650000D01*
X260200000Y-74150000D02*
X263200000Y-74150000D01*
X259700000Y-78150000D02*
X260200000Y-78650000D01*
X259700000Y-74650000D02*
X260200000Y-74150000D01*
%TO.C,Right*%
X200100000Y-107150000D02*
X200600000Y-106650000D01*
X200100000Y-110650000D02*
X200600000Y-111150000D01*
X200600000Y-106650000D02*
X203600000Y-106650000D01*
X200600000Y-111150000D02*
X203100000Y-111150000D01*
X203600000Y-106650000D02*
X204100000Y-107150000D01*
X204100000Y-108150000D02*
X204100000Y-107150000D01*
X204600000Y-112650000D02*
X204600000Y-113350000D01*
X204600000Y-113350000D02*
X209100000Y-113350000D01*
X209100000Y-108650000D02*
X204600000Y-108650000D01*
X209100000Y-109250000D02*
X209100000Y-108650000D01*
X209100000Y-113350000D02*
X209100000Y-112850000D01*
X203100000Y-111150000D02*
G75*
G02*
X204600000Y-112650000I0J-1500000D01*
G01*
X204600000Y-108650000D02*
G75*
G02*
X204100000Y-108150000I0J500000D01*
G01*
%TO.C,X/Square*%
X230500000Y-92150000D02*
X231000000Y-91650000D01*
X230500000Y-95650000D02*
X231000000Y-96150000D01*
X231000000Y-91650000D02*
X234000000Y-91650000D01*
X231000000Y-96150000D02*
X233500000Y-96150000D01*
X234000000Y-91650000D02*
X234500000Y-92150000D01*
X234500000Y-93150000D02*
X234500000Y-92150000D01*
X235000000Y-97650000D02*
X235000000Y-98350000D01*
X235000000Y-98350000D02*
X239500000Y-98350000D01*
X239500000Y-93650000D02*
X235000000Y-93650000D01*
X239500000Y-94250000D02*
X239500000Y-93650000D01*
X239500000Y-98350000D02*
X239500000Y-97850000D01*
X233500000Y-96150000D02*
G75*
G02*
X235000000Y-97650000I0J-1500000D01*
G01*
X235000000Y-93650000D02*
G75*
G02*
X234500000Y-93150000I0J500000D01*
G01*
%TO.C,X/A*%
X228200000Y-126250000D02*
X228700000Y-125750000D01*
X228200000Y-129750000D02*
X228700000Y-130250000D01*
X228700000Y-125750000D02*
X231700000Y-125750000D01*
X228700000Y-130250000D02*
X231200000Y-130250000D01*
X231700000Y-125750000D02*
X232200000Y-126250000D01*
X232200000Y-127250000D02*
X232200000Y-126250000D01*
X232700000Y-131750000D02*
X232700000Y-132450000D01*
X232700000Y-132450000D02*
X237200000Y-132450000D01*
X237200000Y-127750000D02*
X232700000Y-127750000D01*
X237200000Y-128350000D02*
X237200000Y-127750000D01*
X237200000Y-132450000D02*
X237200000Y-131950000D01*
X231200000Y-130250000D02*
G75*
G02*
X232700000Y-131750000I0J-1500000D01*
G01*
X232700000Y-127750000D02*
G75*
G02*
X232200000Y-127250000I0J500000D01*
G01*
%TO.C,RT*%
X293300000Y-108950000D02*
X293800000Y-108450000D01*
X293300000Y-112450000D02*
X293800000Y-112950000D01*
X293800000Y-108450000D02*
X296800000Y-108450000D01*
X293800000Y-112950000D02*
X296300000Y-112950000D01*
X296800000Y-108450000D02*
X297300000Y-108950000D01*
X297300000Y-109950000D02*
X297300000Y-108950000D01*
X297800000Y-114450000D02*
X297800000Y-115150000D01*
X297800000Y-115150000D02*
X302300000Y-115150000D01*
X302300000Y-110450000D02*
X297800000Y-110450000D01*
X302300000Y-111050000D02*
X302300000Y-110450000D01*
X302300000Y-115150000D02*
X302300000Y-114650000D01*
X296300000Y-112950000D02*
G75*
G02*
X297800000Y-114450000I0J-1500000D01*
G01*
X297800000Y-110450000D02*
G75*
G02*
X297300000Y-109950000I0J500000D01*
G01*
%TO.C,RB*%
X293800000Y-74850000D02*
X294300000Y-74350000D01*
X293800000Y-78350000D02*
X294300000Y-78850000D01*
X294300000Y-74350000D02*
X297300000Y-74350000D01*
X294300000Y-78850000D02*
X296800000Y-78850000D01*
X297300000Y-74350000D02*
X297800000Y-74850000D01*
X297800000Y-75850000D02*
X297800000Y-74850000D01*
X298300000Y-80350000D02*
X298300000Y-81050000D01*
X298300000Y-81050000D02*
X302800000Y-81050000D01*
X302800000Y-76350000D02*
X298300000Y-76350000D01*
X302800000Y-76950000D02*
X302800000Y-76350000D01*
X302800000Y-81050000D02*
X302800000Y-80550000D01*
X296800000Y-78850000D02*
G75*
G02*
X298300000Y-80350000I0J-1500000D01*
G01*
X298300000Y-76350000D02*
G75*
G02*
X297800000Y-75850000I0J500000D01*
G01*
%TD*%
M02*
