%TF.GenerationSoftware,KiCad,Pcbnew,8.0.1*%
%TF.CreationDate,2024-03-26T13:51:36-04:00*%
%TF.ProjectId,hitbox,68697462-6f78-42e6-9b69-6361645f7063,rev?*%
%TF.SameCoordinates,Original*%
%TF.FileFunction,Drillmap*%
%TF.FilePolarity,Positive*%
%FSLAX45Y45*%
G04 Gerber Fmt 4.5, Leading zero omitted, Abs format (unit mm)*
G04 Created by KiCad (PCBNEW 8.0.1) date 2024-03-26 13:51:36*
%MOMM*%
%LPD*%
G01*
G04 APERTURE LIST*
%ADD10C,0.050000*%
%ADD11C,0.120000*%
%ADD12C,0.200000*%
%ADD13C,0.170180*%
%ADD14C,0.300000*%
%ADD15C,0.342900*%
G04 APERTURE END LIST*
D10*
X23620000Y-6450000D02*
G75*
G02*
X22980000Y-6450000I-320000J0D01*
G01*
X22980000Y-6450000D02*
G75*
G02*
X23620000Y-6450000I320000J0D01*
G01*
X23620000Y-18550000D02*
G75*
G02*
X22980000Y-18550000I-320000J0D01*
G01*
X22980000Y-18550000D02*
G75*
G02*
X23620000Y-18550000I320000J0D01*
G01*
X35420000Y-18550000D02*
G75*
G02*
X34780000Y-18550000I-320000J0D01*
G01*
X34780000Y-18550000D02*
G75*
G02*
X35420000Y-18550000I320000J0D01*
G01*
X35420000Y-6450000D02*
G75*
G02*
X34780000Y-6450000I-320000J0D01*
G01*
X34780000Y-6450000D02*
G75*
G02*
X35420000Y-6450000I320000J0D01*
G01*
X11820000Y-6450000D02*
G75*
G02*
X11180000Y-6450000I-320000J0D01*
G01*
X11180000Y-6450000D02*
G75*
G02*
X11820000Y-6450000I320000J0D01*
G01*
X11820000Y-18550000D02*
G75*
G02*
X11180000Y-18550000I-320000J0D01*
G01*
X11180000Y-18550000D02*
G75*
G02*
X11820000Y-18550000I320000J0D01*
G01*
X19691419Y-5751496D02*
X10800000Y-5750000D01*
X35800000Y-5750000D02*
X20891419Y-5751496D01*
X10800000Y-19250000D02*
X35800000Y-19250000D01*
X10800000Y-5750000D02*
X10800000Y-19250000D01*
X35800000Y-19250000D02*
X35800000Y-5750000D01*
D11*
X19691419Y-5751496D02*
X19691419Y-7851496D01*
X19691419Y-7851496D02*
X20891419Y-7851496D01*
X20891419Y-7851496D02*
X20891419Y-5751496D01*
D12*
D13*
X13274910Y-9669910D02*
X13445090Y-9840090D01*
X13445090Y-9669910D02*
X13274910Y-9840090D01*
X14374910Y-9669910D02*
X14545090Y-9840090D01*
X14545090Y-9669910D02*
X14374910Y-9840090D01*
X16644910Y-9869910D02*
X16815090Y-10040090D01*
X16815090Y-9869910D02*
X16644910Y-10040090D01*
X17744910Y-9869910D02*
X17915090Y-10040090D01*
X17915090Y-9869910D02*
X17744910Y-10040090D01*
X19574910Y-11399910D02*
X19745090Y-11570090D01*
X19745090Y-11399910D02*
X19574910Y-11570090D01*
X20674910Y-11399910D02*
X20845090Y-11570090D01*
X20845090Y-11399910D02*
X20674910Y-11570090D01*
X21264910Y-17039910D02*
X21435090Y-17210090D01*
X21435090Y-17039910D02*
X21264910Y-17210090D01*
X22364910Y-17039910D02*
X22535090Y-17210090D01*
X22535090Y-17039910D02*
X22364910Y-17210090D01*
X22384910Y-13309910D02*
X22555090Y-13480090D01*
X22555090Y-13309910D02*
X22384910Y-13480090D01*
X22614910Y-9899910D02*
X22785090Y-10070090D01*
X22785090Y-9899910D02*
X22614910Y-10070090D01*
X23484910Y-13309910D02*
X23655090Y-13480090D01*
X23655090Y-13309910D02*
X23484910Y-13480090D01*
X23714910Y-9899910D02*
X23885090Y-10070090D01*
X23885090Y-9899910D02*
X23714910Y-10070090D01*
X25514910Y-11549910D02*
X25685090Y-11720090D01*
X25685090Y-11549910D02*
X25514910Y-11720090D01*
X25534910Y-8149910D02*
X25705090Y-8320090D01*
X25705090Y-8149910D02*
X25534910Y-8320090D01*
X26614910Y-11549910D02*
X26785090Y-11720090D01*
X26785090Y-11549910D02*
X26614910Y-11720090D01*
X26634910Y-8149910D02*
X26805090Y-8320090D01*
X26805090Y-8149910D02*
X26634910Y-8320090D01*
X28894910Y-11579910D02*
X29065090Y-11750090D01*
X29065090Y-11579910D02*
X28894910Y-11750090D01*
X28944910Y-8169910D02*
X29115090Y-8340090D01*
X29115090Y-8169910D02*
X28944910Y-8340090D01*
X29994910Y-11579910D02*
X30165090Y-11750090D01*
X30165090Y-11579910D02*
X29994910Y-11750090D01*
X30044910Y-8169910D02*
X30215090Y-8340090D01*
X30215090Y-8169910D02*
X30044910Y-8340090D01*
X32144910Y-8279910D02*
X32315090Y-8450090D01*
X32315090Y-8279910D02*
X32144910Y-8450090D01*
X32164910Y-11679910D02*
X32335090Y-11850090D01*
X32335090Y-11679910D02*
X32164910Y-11850090D01*
X33244910Y-8279910D02*
X33415090Y-8450090D01*
X33415090Y-8279910D02*
X33244910Y-8450090D01*
X33264910Y-11679910D02*
X33435090Y-11850090D01*
X33435090Y-11679910D02*
X33264910Y-11850090D01*
D14*
X14060000Y-9160000D02*
G75*
G02*
X13760000Y-9160000I-150000J0D01*
G01*
X13760000Y-9160000D02*
G75*
G02*
X14060000Y-9160000I150000J0D01*
G01*
X14560000Y-9380000D02*
G75*
G02*
X14260000Y-9380000I-150000J0D01*
G01*
X14260000Y-9380000D02*
G75*
G02*
X14560000Y-9380000I150000J0D01*
G01*
X17430000Y-9360000D02*
G75*
G02*
X17130000Y-9360000I-150000J0D01*
G01*
X17130000Y-9360000D02*
G75*
G02*
X17430000Y-9360000I150000J0D01*
G01*
X17930000Y-9580000D02*
G75*
G02*
X17630000Y-9580000I-150000J0D01*
G01*
X17630000Y-9580000D02*
G75*
G02*
X17930000Y-9580000I150000J0D01*
G01*
X20360000Y-10890000D02*
G75*
G02*
X20060000Y-10890000I-150000J0D01*
G01*
X20060000Y-10890000D02*
G75*
G02*
X20360000Y-10890000I150000J0D01*
G01*
X20860000Y-11110000D02*
G75*
G02*
X20560000Y-11110000I-150000J0D01*
G01*
X20560000Y-11110000D02*
G75*
G02*
X20860000Y-11110000I150000J0D01*
G01*
X22050000Y-16530000D02*
G75*
G02*
X21750000Y-16530000I-150000J0D01*
G01*
X21750000Y-16530000D02*
G75*
G02*
X22050000Y-16530000I150000J0D01*
G01*
X22550000Y-16750000D02*
G75*
G02*
X22250000Y-16750000I-150000J0D01*
G01*
X22250000Y-16750000D02*
G75*
G02*
X22550000Y-16750000I150000J0D01*
G01*
X23170000Y-12800000D02*
G75*
G02*
X22870000Y-12800000I-150000J0D01*
G01*
X22870000Y-12800000D02*
G75*
G02*
X23170000Y-12800000I150000J0D01*
G01*
X23400000Y-9390000D02*
G75*
G02*
X23100000Y-9390000I-150000J0D01*
G01*
X23100000Y-9390000D02*
G75*
G02*
X23400000Y-9390000I150000J0D01*
G01*
X23670000Y-13020000D02*
G75*
G02*
X23370000Y-13020000I-150000J0D01*
G01*
X23370000Y-13020000D02*
G75*
G02*
X23670000Y-13020000I150000J0D01*
G01*
X23900000Y-9610000D02*
G75*
G02*
X23600000Y-9610000I-150000J0D01*
G01*
X23600000Y-9610000D02*
G75*
G02*
X23900000Y-9610000I150000J0D01*
G01*
X26300000Y-11040000D02*
G75*
G02*
X26000000Y-11040000I-150000J0D01*
G01*
X26000000Y-11040000D02*
G75*
G02*
X26300000Y-11040000I150000J0D01*
G01*
X26320000Y-7640000D02*
G75*
G02*
X26020000Y-7640000I-150000J0D01*
G01*
X26020000Y-7640000D02*
G75*
G02*
X26320000Y-7640000I150000J0D01*
G01*
X26800000Y-11260000D02*
G75*
G02*
X26500000Y-11260000I-150000J0D01*
G01*
X26500000Y-11260000D02*
G75*
G02*
X26800000Y-11260000I150000J0D01*
G01*
X26820000Y-7860000D02*
G75*
G02*
X26520000Y-7860000I-150000J0D01*
G01*
X26520000Y-7860000D02*
G75*
G02*
X26820000Y-7860000I150000J0D01*
G01*
X29680000Y-11070000D02*
G75*
G02*
X29380000Y-11070000I-150000J0D01*
G01*
X29380000Y-11070000D02*
G75*
G02*
X29680000Y-11070000I150000J0D01*
G01*
X29730000Y-7660000D02*
G75*
G02*
X29430000Y-7660000I-150000J0D01*
G01*
X29430000Y-7660000D02*
G75*
G02*
X29730000Y-7660000I150000J0D01*
G01*
X30180000Y-11290000D02*
G75*
G02*
X29880000Y-11290000I-150000J0D01*
G01*
X29880000Y-11290000D02*
G75*
G02*
X30180000Y-11290000I150000J0D01*
G01*
X30230000Y-7880000D02*
G75*
G02*
X29930000Y-7880000I-150000J0D01*
G01*
X29930000Y-7880000D02*
G75*
G02*
X30230000Y-7880000I150000J0D01*
G01*
X32930000Y-7770000D02*
G75*
G02*
X32630000Y-7770000I-150000J0D01*
G01*
X32630000Y-7770000D02*
G75*
G02*
X32930000Y-7770000I150000J0D01*
G01*
X32950000Y-11170000D02*
G75*
G02*
X32650000Y-11170000I-150000J0D01*
G01*
X32650000Y-11170000D02*
G75*
G02*
X32950000Y-11170000I150000J0D01*
G01*
X33430000Y-7990000D02*
G75*
G02*
X33130000Y-7990000I-150000J0D01*
G01*
X33130000Y-7990000D02*
G75*
G02*
X33430000Y-7990000I150000J0D01*
G01*
X33450000Y-11390000D02*
G75*
G02*
X33150000Y-11390000I-150000J0D01*
G01*
X33150000Y-11390000D02*
G75*
G02*
X33450000Y-11390000I150000J0D01*
G01*
D15*
X13910000Y-9583550D02*
X13910000Y-9926450D01*
X13738550Y-9755000D02*
X14081450Y-9755000D01*
X17280000Y-9783550D02*
X17280000Y-10126450D01*
X17108550Y-9955000D02*
X17451450Y-9955000D01*
X20210000Y-11313550D02*
X20210000Y-11656450D01*
X20038550Y-11485000D02*
X20381450Y-11485000D01*
X21900000Y-16953550D02*
X21900000Y-17296450D01*
X21728550Y-17125000D02*
X22071450Y-17125000D01*
X23020000Y-13223550D02*
X23020000Y-13566450D01*
X22848550Y-13395000D02*
X23191450Y-13395000D01*
X23250000Y-9813550D02*
X23250000Y-10156450D01*
X23078550Y-9985000D02*
X23421450Y-9985000D01*
X26150000Y-11463550D02*
X26150000Y-11806450D01*
X25978550Y-11635000D02*
X26321450Y-11635000D01*
X26170000Y-8063550D02*
X26170000Y-8406450D01*
X25998550Y-8235000D02*
X26341450Y-8235000D01*
X29530000Y-11493550D02*
X29530000Y-11836450D01*
X29358550Y-11665000D02*
X29701450Y-11665000D01*
X29580000Y-8083550D02*
X29580000Y-8426450D01*
X29408550Y-8255000D02*
X29751450Y-8255000D01*
X32780000Y-8193550D02*
X32780000Y-8536450D01*
X32608550Y-8365000D02*
X32951450Y-8365000D01*
X32800000Y-11593550D02*
X32800000Y-11936450D01*
X32628550Y-11765000D02*
X32971450Y-11765000D01*
D12*
X11058277Y-19563984D02*
X11058277Y-19363984D01*
X11058277Y-19363984D02*
X11105896Y-19363984D01*
X11105896Y-19363984D02*
X11134467Y-19373508D01*
X11134467Y-19373508D02*
X11153515Y-19392555D01*
X11153515Y-19392555D02*
X11163039Y-19411603D01*
X11163039Y-19411603D02*
X11172563Y-19449698D01*
X11172563Y-19449698D02*
X11172563Y-19478270D01*
X11172563Y-19478270D02*
X11163039Y-19516365D01*
X11163039Y-19516365D02*
X11153515Y-19535412D01*
X11153515Y-19535412D02*
X11134467Y-19554460D01*
X11134467Y-19554460D02*
X11105896Y-19563984D01*
X11105896Y-19563984D02*
X11058277Y-19563984D01*
X11258277Y-19563984D02*
X11258277Y-19430650D01*
X11258277Y-19468746D02*
X11267801Y-19449698D01*
X11267801Y-19449698D02*
X11277324Y-19440174D01*
X11277324Y-19440174D02*
X11296372Y-19430650D01*
X11296372Y-19430650D02*
X11315420Y-19430650D01*
X11382086Y-19563984D02*
X11382086Y-19430650D01*
X11382086Y-19363984D02*
X11372562Y-19373508D01*
X11372562Y-19373508D02*
X11382086Y-19383031D01*
X11382086Y-19383031D02*
X11391610Y-19373508D01*
X11391610Y-19373508D02*
X11382086Y-19363984D01*
X11382086Y-19363984D02*
X11382086Y-19383031D01*
X11505896Y-19563984D02*
X11486848Y-19554460D01*
X11486848Y-19554460D02*
X11477324Y-19535412D01*
X11477324Y-19535412D02*
X11477324Y-19363984D01*
X11610658Y-19563984D02*
X11591610Y-19554460D01*
X11591610Y-19554460D02*
X11582086Y-19535412D01*
X11582086Y-19535412D02*
X11582086Y-19363984D01*
X11839229Y-19563984D02*
X11839229Y-19363984D01*
X11839229Y-19363984D02*
X11905896Y-19506841D01*
X11905896Y-19506841D02*
X11972562Y-19363984D01*
X11972562Y-19363984D02*
X11972562Y-19563984D01*
X12153515Y-19563984D02*
X12153515Y-19459222D01*
X12153515Y-19459222D02*
X12143991Y-19440174D01*
X12143991Y-19440174D02*
X12124943Y-19430650D01*
X12124943Y-19430650D02*
X12086848Y-19430650D01*
X12086848Y-19430650D02*
X12067801Y-19440174D01*
X12153515Y-19554460D02*
X12134467Y-19563984D01*
X12134467Y-19563984D02*
X12086848Y-19563984D01*
X12086848Y-19563984D02*
X12067801Y-19554460D01*
X12067801Y-19554460D02*
X12058277Y-19535412D01*
X12058277Y-19535412D02*
X12058277Y-19516365D01*
X12058277Y-19516365D02*
X12067801Y-19497317D01*
X12067801Y-19497317D02*
X12086848Y-19487793D01*
X12086848Y-19487793D02*
X12134467Y-19487793D01*
X12134467Y-19487793D02*
X12153515Y-19478270D01*
X12248753Y-19430650D02*
X12248753Y-19630650D01*
X12248753Y-19440174D02*
X12267801Y-19430650D01*
X12267801Y-19430650D02*
X12305896Y-19430650D01*
X12305896Y-19430650D02*
X12324943Y-19440174D01*
X12324943Y-19440174D02*
X12334467Y-19449698D01*
X12334467Y-19449698D02*
X12343991Y-19468746D01*
X12343991Y-19468746D02*
X12343991Y-19525889D01*
X12343991Y-19525889D02*
X12334467Y-19544936D01*
X12334467Y-19544936D02*
X12324943Y-19554460D01*
X12324943Y-19554460D02*
X12305896Y-19563984D01*
X12305896Y-19563984D02*
X12267801Y-19563984D01*
X12267801Y-19563984D02*
X12248753Y-19554460D01*
X12429705Y-19544936D02*
X12439229Y-19554460D01*
X12439229Y-19554460D02*
X12429705Y-19563984D01*
X12429705Y-19563984D02*
X12420182Y-19554460D01*
X12420182Y-19554460D02*
X12429705Y-19544936D01*
X12429705Y-19544936D02*
X12429705Y-19563984D01*
X12429705Y-19440174D02*
X12439229Y-19449698D01*
X12439229Y-19449698D02*
X12429705Y-19459222D01*
X12429705Y-19459222D02*
X12420182Y-19449698D01*
X12420182Y-19449698D02*
X12429705Y-19440174D01*
X12429705Y-19440174D02*
X12429705Y-19459222D01*
D13*
X10627320Y-19807410D02*
X10797500Y-19977590D01*
X10797500Y-19807410D02*
X10627320Y-19977590D01*
D12*
X11163039Y-19983984D02*
X11048753Y-19983984D01*
X11105896Y-19983984D02*
X11105896Y-19783984D01*
X11105896Y-19783984D02*
X11086848Y-19812555D01*
X11086848Y-19812555D02*
X11067801Y-19831603D01*
X11067801Y-19831603D02*
X11048753Y-19841127D01*
X11248753Y-19964936D02*
X11258277Y-19974460D01*
X11258277Y-19974460D02*
X11248753Y-19983984D01*
X11248753Y-19983984D02*
X11239229Y-19974460D01*
X11239229Y-19974460D02*
X11248753Y-19964936D01*
X11248753Y-19964936D02*
X11248753Y-19983984D01*
X11324943Y-19783984D02*
X11458277Y-19783984D01*
X11458277Y-19783984D02*
X11372562Y-19983984D01*
X11572562Y-19783984D02*
X11591610Y-19783984D01*
X11591610Y-19783984D02*
X11610658Y-19793508D01*
X11610658Y-19793508D02*
X11620182Y-19803031D01*
X11620182Y-19803031D02*
X11629705Y-19822079D01*
X11629705Y-19822079D02*
X11639229Y-19860174D01*
X11639229Y-19860174D02*
X11639229Y-19907793D01*
X11639229Y-19907793D02*
X11629705Y-19945889D01*
X11629705Y-19945889D02*
X11620182Y-19964936D01*
X11620182Y-19964936D02*
X11610658Y-19974460D01*
X11610658Y-19974460D02*
X11591610Y-19983984D01*
X11591610Y-19983984D02*
X11572562Y-19983984D01*
X11572562Y-19983984D02*
X11553515Y-19974460D01*
X11553515Y-19974460D02*
X11543991Y-19964936D01*
X11543991Y-19964936D02*
X11534467Y-19945889D01*
X11534467Y-19945889D02*
X11524943Y-19907793D01*
X11524943Y-19907793D02*
X11524943Y-19860174D01*
X11524943Y-19860174D02*
X11534467Y-19822079D01*
X11534467Y-19822079D02*
X11543991Y-19803031D01*
X11543991Y-19803031D02*
X11553515Y-19793508D01*
X11553515Y-19793508D02*
X11572562Y-19783984D01*
X11715420Y-19803031D02*
X11724943Y-19793508D01*
X11724943Y-19793508D02*
X11743991Y-19783984D01*
X11743991Y-19783984D02*
X11791610Y-19783984D01*
X11791610Y-19783984D02*
X11810658Y-19793508D01*
X11810658Y-19793508D02*
X11820182Y-19803031D01*
X11820182Y-19803031D02*
X11829705Y-19822079D01*
X11829705Y-19822079D02*
X11829705Y-19841127D01*
X11829705Y-19841127D02*
X11820182Y-19869698D01*
X11820182Y-19869698D02*
X11705896Y-19983984D01*
X11705896Y-19983984D02*
X11829705Y-19983984D01*
X11915420Y-19983984D02*
X11915420Y-19850650D01*
X11915420Y-19869698D02*
X11924943Y-19860174D01*
X11924943Y-19860174D02*
X11943991Y-19850650D01*
X11943991Y-19850650D02*
X11972563Y-19850650D01*
X11972563Y-19850650D02*
X11991610Y-19860174D01*
X11991610Y-19860174D02*
X12001134Y-19879222D01*
X12001134Y-19879222D02*
X12001134Y-19983984D01*
X12001134Y-19879222D02*
X12010658Y-19860174D01*
X12010658Y-19860174D02*
X12029705Y-19850650D01*
X12029705Y-19850650D02*
X12058277Y-19850650D01*
X12058277Y-19850650D02*
X12077324Y-19860174D01*
X12077324Y-19860174D02*
X12086848Y-19879222D01*
X12086848Y-19879222D02*
X12086848Y-19983984D01*
X12182086Y-19983984D02*
X12182086Y-19850650D01*
X12182086Y-19869698D02*
X12191610Y-19860174D01*
X12191610Y-19860174D02*
X12210658Y-19850650D01*
X12210658Y-19850650D02*
X12239229Y-19850650D01*
X12239229Y-19850650D02*
X12258277Y-19860174D01*
X12258277Y-19860174D02*
X12267801Y-19879222D01*
X12267801Y-19879222D02*
X12267801Y-19983984D01*
X12267801Y-19879222D02*
X12277324Y-19860174D01*
X12277324Y-19860174D02*
X12296372Y-19850650D01*
X12296372Y-19850650D02*
X12324943Y-19850650D01*
X12324943Y-19850650D02*
X12343991Y-19860174D01*
X12343991Y-19860174D02*
X12353515Y-19879222D01*
X12353515Y-19879222D02*
X12353515Y-19983984D01*
X12743991Y-19774460D02*
X12572563Y-20031603D01*
X13001134Y-19783984D02*
X13020182Y-19783984D01*
X13020182Y-19783984D02*
X13039229Y-19793508D01*
X13039229Y-19793508D02*
X13048753Y-19803031D01*
X13048753Y-19803031D02*
X13058277Y-19822079D01*
X13058277Y-19822079D02*
X13067801Y-19860174D01*
X13067801Y-19860174D02*
X13067801Y-19907793D01*
X13067801Y-19907793D02*
X13058277Y-19945889D01*
X13058277Y-19945889D02*
X13048753Y-19964936D01*
X13048753Y-19964936D02*
X13039229Y-19974460D01*
X13039229Y-19974460D02*
X13020182Y-19983984D01*
X13020182Y-19983984D02*
X13001134Y-19983984D01*
X13001134Y-19983984D02*
X12982086Y-19974460D01*
X12982086Y-19974460D02*
X12972563Y-19964936D01*
X12972563Y-19964936D02*
X12963039Y-19945889D01*
X12963039Y-19945889D02*
X12953515Y-19907793D01*
X12953515Y-19907793D02*
X12953515Y-19860174D01*
X12953515Y-19860174D02*
X12963039Y-19822079D01*
X12963039Y-19822079D02*
X12972563Y-19803031D01*
X12972563Y-19803031D02*
X12982086Y-19793508D01*
X12982086Y-19793508D02*
X13001134Y-19783984D01*
X13153515Y-19964936D02*
X13163039Y-19974460D01*
X13163039Y-19974460D02*
X13153515Y-19983984D01*
X13153515Y-19983984D02*
X13143991Y-19974460D01*
X13143991Y-19974460D02*
X13153515Y-19964936D01*
X13153515Y-19964936D02*
X13153515Y-19983984D01*
X13286848Y-19783984D02*
X13305896Y-19783984D01*
X13305896Y-19783984D02*
X13324944Y-19793508D01*
X13324944Y-19793508D02*
X13334467Y-19803031D01*
X13334467Y-19803031D02*
X13343991Y-19822079D01*
X13343991Y-19822079D02*
X13353515Y-19860174D01*
X13353515Y-19860174D02*
X13353515Y-19907793D01*
X13353515Y-19907793D02*
X13343991Y-19945889D01*
X13343991Y-19945889D02*
X13334467Y-19964936D01*
X13334467Y-19964936D02*
X13324944Y-19974460D01*
X13324944Y-19974460D02*
X13305896Y-19983984D01*
X13305896Y-19983984D02*
X13286848Y-19983984D01*
X13286848Y-19983984D02*
X13267801Y-19974460D01*
X13267801Y-19974460D02*
X13258277Y-19964936D01*
X13258277Y-19964936D02*
X13248753Y-19945889D01*
X13248753Y-19945889D02*
X13239229Y-19907793D01*
X13239229Y-19907793D02*
X13239229Y-19860174D01*
X13239229Y-19860174D02*
X13248753Y-19822079D01*
X13248753Y-19822079D02*
X13258277Y-19803031D01*
X13258277Y-19803031D02*
X13267801Y-19793508D01*
X13267801Y-19793508D02*
X13286848Y-19783984D01*
X13524944Y-19783984D02*
X13486848Y-19783984D01*
X13486848Y-19783984D02*
X13467801Y-19793508D01*
X13467801Y-19793508D02*
X13458277Y-19803031D01*
X13458277Y-19803031D02*
X13439229Y-19831603D01*
X13439229Y-19831603D02*
X13429706Y-19869698D01*
X13429706Y-19869698D02*
X13429706Y-19945889D01*
X13429706Y-19945889D02*
X13439229Y-19964936D01*
X13439229Y-19964936D02*
X13448753Y-19974460D01*
X13448753Y-19974460D02*
X13467801Y-19983984D01*
X13467801Y-19983984D02*
X13505896Y-19983984D01*
X13505896Y-19983984D02*
X13524944Y-19974460D01*
X13524944Y-19974460D02*
X13534467Y-19964936D01*
X13534467Y-19964936D02*
X13543991Y-19945889D01*
X13543991Y-19945889D02*
X13543991Y-19898270D01*
X13543991Y-19898270D02*
X13534467Y-19879222D01*
X13534467Y-19879222D02*
X13524944Y-19869698D01*
X13524944Y-19869698D02*
X13505896Y-19860174D01*
X13505896Y-19860174D02*
X13467801Y-19860174D01*
X13467801Y-19860174D02*
X13448753Y-19869698D01*
X13448753Y-19869698D02*
X13439229Y-19879222D01*
X13439229Y-19879222D02*
X13429706Y-19898270D01*
X13610658Y-19783984D02*
X13743991Y-19783984D01*
X13743991Y-19783984D02*
X13658277Y-19983984D01*
X13858277Y-19783984D02*
X13877325Y-19783984D01*
X13877325Y-19783984D02*
X13896372Y-19793508D01*
X13896372Y-19793508D02*
X13905896Y-19803031D01*
X13905896Y-19803031D02*
X13915420Y-19822079D01*
X13915420Y-19822079D02*
X13924944Y-19860174D01*
X13924944Y-19860174D02*
X13924944Y-19907793D01*
X13924944Y-19907793D02*
X13915420Y-19945889D01*
X13915420Y-19945889D02*
X13905896Y-19964936D01*
X13905896Y-19964936D02*
X13896372Y-19974460D01*
X13896372Y-19974460D02*
X13877325Y-19983984D01*
X13877325Y-19983984D02*
X13858277Y-19983984D01*
X13858277Y-19983984D02*
X13839229Y-19974460D01*
X13839229Y-19974460D02*
X13829706Y-19964936D01*
X13829706Y-19964936D02*
X13820182Y-19945889D01*
X13820182Y-19945889D02*
X13810658Y-19907793D01*
X13810658Y-19907793D02*
X13810658Y-19860174D01*
X13810658Y-19860174D02*
X13820182Y-19822079D01*
X13820182Y-19822079D02*
X13829706Y-19803031D01*
X13829706Y-19803031D02*
X13839229Y-19793508D01*
X13839229Y-19793508D02*
X13858277Y-19783984D01*
X14001134Y-19783984D02*
X14001134Y-19822079D01*
X14077325Y-19783984D02*
X14077325Y-19822079D01*
X14372563Y-20060174D02*
X14363039Y-20050650D01*
X14363039Y-20050650D02*
X14343991Y-20022079D01*
X14343991Y-20022079D02*
X14334468Y-20003031D01*
X14334468Y-20003031D02*
X14324944Y-19974460D01*
X14324944Y-19974460D02*
X14315420Y-19926841D01*
X14315420Y-19926841D02*
X14315420Y-19888746D01*
X14315420Y-19888746D02*
X14324944Y-19841127D01*
X14324944Y-19841127D02*
X14334468Y-19812555D01*
X14334468Y-19812555D02*
X14343991Y-19793508D01*
X14343991Y-19793508D02*
X14363039Y-19764936D01*
X14363039Y-19764936D02*
X14372563Y-19755412D01*
X14439229Y-19803031D02*
X14448753Y-19793508D01*
X14448753Y-19793508D02*
X14467801Y-19783984D01*
X14467801Y-19783984D02*
X14515420Y-19783984D01*
X14515420Y-19783984D02*
X14534468Y-19793508D01*
X14534468Y-19793508D02*
X14543991Y-19803031D01*
X14543991Y-19803031D02*
X14553515Y-19822079D01*
X14553515Y-19822079D02*
X14553515Y-19841127D01*
X14553515Y-19841127D02*
X14543991Y-19869698D01*
X14543991Y-19869698D02*
X14429706Y-19983984D01*
X14429706Y-19983984D02*
X14553515Y-19983984D01*
X14724944Y-19850650D02*
X14724944Y-19983984D01*
X14677325Y-19774460D02*
X14629706Y-19917317D01*
X14629706Y-19917317D02*
X14753515Y-19917317D01*
X14982087Y-19983984D02*
X14982087Y-19783984D01*
X15067801Y-19983984D02*
X15067801Y-19879222D01*
X15067801Y-19879222D02*
X15058277Y-19860174D01*
X15058277Y-19860174D02*
X15039230Y-19850650D01*
X15039230Y-19850650D02*
X15010658Y-19850650D01*
X15010658Y-19850650D02*
X14991610Y-19860174D01*
X14991610Y-19860174D02*
X14982087Y-19869698D01*
X15191610Y-19983984D02*
X15172563Y-19974460D01*
X15172563Y-19974460D02*
X15163039Y-19964936D01*
X15163039Y-19964936D02*
X15153515Y-19945889D01*
X15153515Y-19945889D02*
X15153515Y-19888746D01*
X15153515Y-19888746D02*
X15163039Y-19869698D01*
X15163039Y-19869698D02*
X15172563Y-19860174D01*
X15172563Y-19860174D02*
X15191610Y-19850650D01*
X15191610Y-19850650D02*
X15220182Y-19850650D01*
X15220182Y-19850650D02*
X15239230Y-19860174D01*
X15239230Y-19860174D02*
X15248753Y-19869698D01*
X15248753Y-19869698D02*
X15258277Y-19888746D01*
X15258277Y-19888746D02*
X15258277Y-19945889D01*
X15258277Y-19945889D02*
X15248753Y-19964936D01*
X15248753Y-19964936D02*
X15239230Y-19974460D01*
X15239230Y-19974460D02*
X15220182Y-19983984D01*
X15220182Y-19983984D02*
X15191610Y-19983984D01*
X15372563Y-19983984D02*
X15353515Y-19974460D01*
X15353515Y-19974460D02*
X15343991Y-19955412D01*
X15343991Y-19955412D02*
X15343991Y-19783984D01*
X15524944Y-19974460D02*
X15505896Y-19983984D01*
X15505896Y-19983984D02*
X15467801Y-19983984D01*
X15467801Y-19983984D02*
X15448753Y-19974460D01*
X15448753Y-19974460D02*
X15439230Y-19955412D01*
X15439230Y-19955412D02*
X15439230Y-19879222D01*
X15439230Y-19879222D02*
X15448753Y-19860174D01*
X15448753Y-19860174D02*
X15467801Y-19850650D01*
X15467801Y-19850650D02*
X15505896Y-19850650D01*
X15505896Y-19850650D02*
X15524944Y-19860174D01*
X15524944Y-19860174D02*
X15534468Y-19879222D01*
X15534468Y-19879222D02*
X15534468Y-19898270D01*
X15534468Y-19898270D02*
X15439230Y-19917317D01*
X15610658Y-19974460D02*
X15629706Y-19983984D01*
X15629706Y-19983984D02*
X15667801Y-19983984D01*
X15667801Y-19983984D02*
X15686849Y-19974460D01*
X15686849Y-19974460D02*
X15696372Y-19955412D01*
X15696372Y-19955412D02*
X15696372Y-19945889D01*
X15696372Y-19945889D02*
X15686849Y-19926841D01*
X15686849Y-19926841D02*
X15667801Y-19917317D01*
X15667801Y-19917317D02*
X15639230Y-19917317D01*
X15639230Y-19917317D02*
X15620182Y-19907793D01*
X15620182Y-19907793D02*
X15610658Y-19888746D01*
X15610658Y-19888746D02*
X15610658Y-19879222D01*
X15610658Y-19879222D02*
X15620182Y-19860174D01*
X15620182Y-19860174D02*
X15639230Y-19850650D01*
X15639230Y-19850650D02*
X15667801Y-19850650D01*
X15667801Y-19850650D02*
X15686849Y-19860174D01*
X15763039Y-20060174D02*
X15772563Y-20050650D01*
X15772563Y-20050650D02*
X15791611Y-20022079D01*
X15791611Y-20022079D02*
X15801134Y-20003031D01*
X15801134Y-20003031D02*
X15810658Y-19974460D01*
X15810658Y-19974460D02*
X15820182Y-19926841D01*
X15820182Y-19926841D02*
X15820182Y-19888746D01*
X15820182Y-19888746D02*
X15810658Y-19841127D01*
X15810658Y-19841127D02*
X15801134Y-19812555D01*
X15801134Y-19812555D02*
X15791611Y-19793508D01*
X15791611Y-19793508D02*
X15772563Y-19764936D01*
X15772563Y-19764936D02*
X15763039Y-19755412D01*
X16124944Y-20060174D02*
X16115420Y-20050650D01*
X16115420Y-20050650D02*
X16096372Y-20022079D01*
X16096372Y-20022079D02*
X16086849Y-20003031D01*
X16086849Y-20003031D02*
X16077325Y-19974460D01*
X16077325Y-19974460D02*
X16067801Y-19926841D01*
X16067801Y-19926841D02*
X16067801Y-19888746D01*
X16067801Y-19888746D02*
X16077325Y-19841127D01*
X16077325Y-19841127D02*
X16086849Y-19812555D01*
X16086849Y-19812555D02*
X16096372Y-19793508D01*
X16096372Y-19793508D02*
X16115420Y-19764936D01*
X16115420Y-19764936D02*
X16124944Y-19755412D01*
X16201134Y-19850650D02*
X16201134Y-19983984D01*
X16201134Y-19869698D02*
X16210658Y-19860174D01*
X16210658Y-19860174D02*
X16229706Y-19850650D01*
X16229706Y-19850650D02*
X16258277Y-19850650D01*
X16258277Y-19850650D02*
X16277325Y-19860174D01*
X16277325Y-19860174D02*
X16286849Y-19879222D01*
X16286849Y-19879222D02*
X16286849Y-19983984D01*
X16410658Y-19983984D02*
X16391611Y-19974460D01*
X16391611Y-19974460D02*
X16382087Y-19964936D01*
X16382087Y-19964936D02*
X16372563Y-19945889D01*
X16372563Y-19945889D02*
X16372563Y-19888746D01*
X16372563Y-19888746D02*
X16382087Y-19869698D01*
X16382087Y-19869698D02*
X16391611Y-19860174D01*
X16391611Y-19860174D02*
X16410658Y-19850650D01*
X16410658Y-19850650D02*
X16439230Y-19850650D01*
X16439230Y-19850650D02*
X16458277Y-19860174D01*
X16458277Y-19860174D02*
X16467801Y-19869698D01*
X16467801Y-19869698D02*
X16477325Y-19888746D01*
X16477325Y-19888746D02*
X16477325Y-19945889D01*
X16477325Y-19945889D02*
X16467801Y-19964936D01*
X16467801Y-19964936D02*
X16458277Y-19974460D01*
X16458277Y-19974460D02*
X16439230Y-19983984D01*
X16439230Y-19983984D02*
X16410658Y-19983984D01*
X16534468Y-19850650D02*
X16610658Y-19850650D01*
X16563039Y-19783984D02*
X16563039Y-19955412D01*
X16563039Y-19955412D02*
X16572563Y-19974460D01*
X16572563Y-19974460D02*
X16591611Y-19983984D01*
X16591611Y-19983984D02*
X16610658Y-19983984D01*
X16829706Y-19850650D02*
X16829706Y-20050650D01*
X16829706Y-19860174D02*
X16848754Y-19850650D01*
X16848754Y-19850650D02*
X16886849Y-19850650D01*
X16886849Y-19850650D02*
X16905896Y-19860174D01*
X16905896Y-19860174D02*
X16915420Y-19869698D01*
X16915420Y-19869698D02*
X16924944Y-19888746D01*
X16924944Y-19888746D02*
X16924944Y-19945889D01*
X16924944Y-19945889D02*
X16915420Y-19964936D01*
X16915420Y-19964936D02*
X16905896Y-19974460D01*
X16905896Y-19974460D02*
X16886849Y-19983984D01*
X16886849Y-19983984D02*
X16848754Y-19983984D01*
X16848754Y-19983984D02*
X16829706Y-19974460D01*
X17039230Y-19983984D02*
X17020182Y-19974460D01*
X17020182Y-19974460D02*
X17010658Y-19955412D01*
X17010658Y-19955412D02*
X17010658Y-19783984D01*
X17201135Y-19983984D02*
X17201135Y-19879222D01*
X17201135Y-19879222D02*
X17191611Y-19860174D01*
X17191611Y-19860174D02*
X17172563Y-19850650D01*
X17172563Y-19850650D02*
X17134468Y-19850650D01*
X17134468Y-19850650D02*
X17115420Y-19860174D01*
X17201135Y-19974460D02*
X17182087Y-19983984D01*
X17182087Y-19983984D02*
X17134468Y-19983984D01*
X17134468Y-19983984D02*
X17115420Y-19974460D01*
X17115420Y-19974460D02*
X17105896Y-19955412D01*
X17105896Y-19955412D02*
X17105896Y-19936365D01*
X17105896Y-19936365D02*
X17115420Y-19917317D01*
X17115420Y-19917317D02*
X17134468Y-19907793D01*
X17134468Y-19907793D02*
X17182087Y-19907793D01*
X17182087Y-19907793D02*
X17201135Y-19898270D01*
X17267801Y-19850650D02*
X17343992Y-19850650D01*
X17296373Y-19783984D02*
X17296373Y-19955412D01*
X17296373Y-19955412D02*
X17305896Y-19974460D01*
X17305896Y-19974460D02*
X17324944Y-19983984D01*
X17324944Y-19983984D02*
X17343992Y-19983984D01*
X17486849Y-19974460D02*
X17467801Y-19983984D01*
X17467801Y-19983984D02*
X17429706Y-19983984D01*
X17429706Y-19983984D02*
X17410658Y-19974460D01*
X17410658Y-19974460D02*
X17401135Y-19955412D01*
X17401135Y-19955412D02*
X17401135Y-19879222D01*
X17401135Y-19879222D02*
X17410658Y-19860174D01*
X17410658Y-19860174D02*
X17429706Y-19850650D01*
X17429706Y-19850650D02*
X17467801Y-19850650D01*
X17467801Y-19850650D02*
X17486849Y-19860174D01*
X17486849Y-19860174D02*
X17496373Y-19879222D01*
X17496373Y-19879222D02*
X17496373Y-19898270D01*
X17496373Y-19898270D02*
X17401135Y-19917317D01*
X17667801Y-19983984D02*
X17667801Y-19783984D01*
X17667801Y-19974460D02*
X17648754Y-19983984D01*
X17648754Y-19983984D02*
X17610658Y-19983984D01*
X17610658Y-19983984D02*
X17591611Y-19974460D01*
X17591611Y-19974460D02*
X17582087Y-19964936D01*
X17582087Y-19964936D02*
X17572563Y-19945889D01*
X17572563Y-19945889D02*
X17572563Y-19888746D01*
X17572563Y-19888746D02*
X17582087Y-19869698D01*
X17582087Y-19869698D02*
X17591611Y-19860174D01*
X17591611Y-19860174D02*
X17610658Y-19850650D01*
X17610658Y-19850650D02*
X17648754Y-19850650D01*
X17648754Y-19850650D02*
X17667801Y-19860174D01*
X17743992Y-20060174D02*
X17753516Y-20050650D01*
X17753516Y-20050650D02*
X17772563Y-20022079D01*
X17772563Y-20022079D02*
X17782087Y-20003031D01*
X17782087Y-20003031D02*
X17791611Y-19974460D01*
X17791611Y-19974460D02*
X17801135Y-19926841D01*
X17801135Y-19926841D02*
X17801135Y-19888746D01*
X17801135Y-19888746D02*
X17791611Y-19841127D01*
X17791611Y-19841127D02*
X17782087Y-19812555D01*
X17782087Y-19812555D02*
X17772563Y-19793508D01*
X17772563Y-19793508D02*
X17753516Y-19764936D01*
X17753516Y-19764936D02*
X17743992Y-19755412D01*
X10797500Y-20182680D02*
G75*
G02*
X10597500Y-20182680I-100000J0D01*
G01*
X10597500Y-20182680D02*
G75*
G02*
X10797500Y-20182680I100000J0D01*
G01*
X11039229Y-20074164D02*
X11163039Y-20074164D01*
X11163039Y-20074164D02*
X11096372Y-20150354D01*
X11096372Y-20150354D02*
X11124944Y-20150354D01*
X11124944Y-20150354D02*
X11143991Y-20159878D01*
X11143991Y-20159878D02*
X11153515Y-20169402D01*
X11153515Y-20169402D02*
X11163039Y-20188450D01*
X11163039Y-20188450D02*
X11163039Y-20236069D01*
X11163039Y-20236069D02*
X11153515Y-20255116D01*
X11153515Y-20255116D02*
X11143991Y-20264640D01*
X11143991Y-20264640D02*
X11124944Y-20274164D01*
X11124944Y-20274164D02*
X11067801Y-20274164D01*
X11067801Y-20274164D02*
X11048753Y-20264640D01*
X11048753Y-20264640D02*
X11039229Y-20255116D01*
X11248753Y-20255116D02*
X11258277Y-20264640D01*
X11258277Y-20264640D02*
X11248753Y-20274164D01*
X11248753Y-20274164D02*
X11239229Y-20264640D01*
X11239229Y-20264640D02*
X11248753Y-20255116D01*
X11248753Y-20255116D02*
X11248753Y-20274164D01*
X11382086Y-20074164D02*
X11401134Y-20074164D01*
X11401134Y-20074164D02*
X11420182Y-20083688D01*
X11420182Y-20083688D02*
X11429705Y-20093211D01*
X11429705Y-20093211D02*
X11439229Y-20112259D01*
X11439229Y-20112259D02*
X11448753Y-20150354D01*
X11448753Y-20150354D02*
X11448753Y-20197973D01*
X11448753Y-20197973D02*
X11439229Y-20236069D01*
X11439229Y-20236069D02*
X11429705Y-20255116D01*
X11429705Y-20255116D02*
X11420182Y-20264640D01*
X11420182Y-20264640D02*
X11401134Y-20274164D01*
X11401134Y-20274164D02*
X11382086Y-20274164D01*
X11382086Y-20274164D02*
X11363039Y-20264640D01*
X11363039Y-20264640D02*
X11353515Y-20255116D01*
X11353515Y-20255116D02*
X11343991Y-20236069D01*
X11343991Y-20236069D02*
X11334467Y-20197973D01*
X11334467Y-20197973D02*
X11334467Y-20150354D01*
X11334467Y-20150354D02*
X11343991Y-20112259D01*
X11343991Y-20112259D02*
X11353515Y-20093211D01*
X11353515Y-20093211D02*
X11363039Y-20083688D01*
X11363039Y-20083688D02*
X11382086Y-20074164D01*
X11572562Y-20074164D02*
X11591610Y-20074164D01*
X11591610Y-20074164D02*
X11610658Y-20083688D01*
X11610658Y-20083688D02*
X11620182Y-20093211D01*
X11620182Y-20093211D02*
X11629705Y-20112259D01*
X11629705Y-20112259D02*
X11639229Y-20150354D01*
X11639229Y-20150354D02*
X11639229Y-20197973D01*
X11639229Y-20197973D02*
X11629705Y-20236069D01*
X11629705Y-20236069D02*
X11620182Y-20255116D01*
X11620182Y-20255116D02*
X11610658Y-20264640D01*
X11610658Y-20264640D02*
X11591610Y-20274164D01*
X11591610Y-20274164D02*
X11572562Y-20274164D01*
X11572562Y-20274164D02*
X11553515Y-20264640D01*
X11553515Y-20264640D02*
X11543991Y-20255116D01*
X11543991Y-20255116D02*
X11534467Y-20236069D01*
X11534467Y-20236069D02*
X11524943Y-20197973D01*
X11524943Y-20197973D02*
X11524943Y-20150354D01*
X11524943Y-20150354D02*
X11534467Y-20112259D01*
X11534467Y-20112259D02*
X11543991Y-20093211D01*
X11543991Y-20093211D02*
X11553515Y-20083688D01*
X11553515Y-20083688D02*
X11572562Y-20074164D01*
X11763039Y-20074164D02*
X11782086Y-20074164D01*
X11782086Y-20074164D02*
X11801134Y-20083688D01*
X11801134Y-20083688D02*
X11810658Y-20093211D01*
X11810658Y-20093211D02*
X11820182Y-20112259D01*
X11820182Y-20112259D02*
X11829705Y-20150354D01*
X11829705Y-20150354D02*
X11829705Y-20197973D01*
X11829705Y-20197973D02*
X11820182Y-20236069D01*
X11820182Y-20236069D02*
X11810658Y-20255116D01*
X11810658Y-20255116D02*
X11801134Y-20264640D01*
X11801134Y-20264640D02*
X11782086Y-20274164D01*
X11782086Y-20274164D02*
X11763039Y-20274164D01*
X11763039Y-20274164D02*
X11743991Y-20264640D01*
X11743991Y-20264640D02*
X11734467Y-20255116D01*
X11734467Y-20255116D02*
X11724943Y-20236069D01*
X11724943Y-20236069D02*
X11715420Y-20197973D01*
X11715420Y-20197973D02*
X11715420Y-20150354D01*
X11715420Y-20150354D02*
X11724943Y-20112259D01*
X11724943Y-20112259D02*
X11734467Y-20093211D01*
X11734467Y-20093211D02*
X11743991Y-20083688D01*
X11743991Y-20083688D02*
X11763039Y-20074164D01*
X11915420Y-20274164D02*
X11915420Y-20140830D01*
X11915420Y-20159878D02*
X11924943Y-20150354D01*
X11924943Y-20150354D02*
X11943991Y-20140830D01*
X11943991Y-20140830D02*
X11972563Y-20140830D01*
X11972563Y-20140830D02*
X11991610Y-20150354D01*
X11991610Y-20150354D02*
X12001134Y-20169402D01*
X12001134Y-20169402D02*
X12001134Y-20274164D01*
X12001134Y-20169402D02*
X12010658Y-20150354D01*
X12010658Y-20150354D02*
X12029705Y-20140830D01*
X12029705Y-20140830D02*
X12058277Y-20140830D01*
X12058277Y-20140830D02*
X12077324Y-20150354D01*
X12077324Y-20150354D02*
X12086848Y-20169402D01*
X12086848Y-20169402D02*
X12086848Y-20274164D01*
X12182086Y-20274164D02*
X12182086Y-20140830D01*
X12182086Y-20159878D02*
X12191610Y-20150354D01*
X12191610Y-20150354D02*
X12210658Y-20140830D01*
X12210658Y-20140830D02*
X12239229Y-20140830D01*
X12239229Y-20140830D02*
X12258277Y-20150354D01*
X12258277Y-20150354D02*
X12267801Y-20169402D01*
X12267801Y-20169402D02*
X12267801Y-20274164D01*
X12267801Y-20169402D02*
X12277324Y-20150354D01*
X12277324Y-20150354D02*
X12296372Y-20140830D01*
X12296372Y-20140830D02*
X12324943Y-20140830D01*
X12324943Y-20140830D02*
X12343991Y-20150354D01*
X12343991Y-20150354D02*
X12353515Y-20169402D01*
X12353515Y-20169402D02*
X12353515Y-20274164D01*
X12743991Y-20064640D02*
X12572563Y-20321783D01*
X13001134Y-20074164D02*
X13020182Y-20074164D01*
X13020182Y-20074164D02*
X13039229Y-20083688D01*
X13039229Y-20083688D02*
X13048753Y-20093211D01*
X13048753Y-20093211D02*
X13058277Y-20112259D01*
X13058277Y-20112259D02*
X13067801Y-20150354D01*
X13067801Y-20150354D02*
X13067801Y-20197973D01*
X13067801Y-20197973D02*
X13058277Y-20236069D01*
X13058277Y-20236069D02*
X13048753Y-20255116D01*
X13048753Y-20255116D02*
X13039229Y-20264640D01*
X13039229Y-20264640D02*
X13020182Y-20274164D01*
X13020182Y-20274164D02*
X13001134Y-20274164D01*
X13001134Y-20274164D02*
X12982086Y-20264640D01*
X12982086Y-20264640D02*
X12972563Y-20255116D01*
X12972563Y-20255116D02*
X12963039Y-20236069D01*
X12963039Y-20236069D02*
X12953515Y-20197973D01*
X12953515Y-20197973D02*
X12953515Y-20150354D01*
X12953515Y-20150354D02*
X12963039Y-20112259D01*
X12963039Y-20112259D02*
X12972563Y-20093211D01*
X12972563Y-20093211D02*
X12982086Y-20083688D01*
X12982086Y-20083688D02*
X13001134Y-20074164D01*
X13153515Y-20255116D02*
X13163039Y-20264640D01*
X13163039Y-20264640D02*
X13153515Y-20274164D01*
X13153515Y-20274164D02*
X13143991Y-20264640D01*
X13143991Y-20264640D02*
X13153515Y-20255116D01*
X13153515Y-20255116D02*
X13153515Y-20274164D01*
X13353515Y-20274164D02*
X13239229Y-20274164D01*
X13296372Y-20274164D02*
X13296372Y-20074164D01*
X13296372Y-20074164D02*
X13277325Y-20102735D01*
X13277325Y-20102735D02*
X13258277Y-20121783D01*
X13258277Y-20121783D02*
X13239229Y-20131307D01*
X13543991Y-20274164D02*
X13429706Y-20274164D01*
X13486848Y-20274164D02*
X13486848Y-20074164D01*
X13486848Y-20074164D02*
X13467801Y-20102735D01*
X13467801Y-20102735D02*
X13448753Y-20121783D01*
X13448753Y-20121783D02*
X13429706Y-20131307D01*
X13658277Y-20159878D02*
X13639229Y-20150354D01*
X13639229Y-20150354D02*
X13629706Y-20140830D01*
X13629706Y-20140830D02*
X13620182Y-20121783D01*
X13620182Y-20121783D02*
X13620182Y-20112259D01*
X13620182Y-20112259D02*
X13629706Y-20093211D01*
X13629706Y-20093211D02*
X13639229Y-20083688D01*
X13639229Y-20083688D02*
X13658277Y-20074164D01*
X13658277Y-20074164D02*
X13696372Y-20074164D01*
X13696372Y-20074164D02*
X13715420Y-20083688D01*
X13715420Y-20083688D02*
X13724944Y-20093211D01*
X13724944Y-20093211D02*
X13734467Y-20112259D01*
X13734467Y-20112259D02*
X13734467Y-20121783D01*
X13734467Y-20121783D02*
X13724944Y-20140830D01*
X13724944Y-20140830D02*
X13715420Y-20150354D01*
X13715420Y-20150354D02*
X13696372Y-20159878D01*
X13696372Y-20159878D02*
X13658277Y-20159878D01*
X13658277Y-20159878D02*
X13639229Y-20169402D01*
X13639229Y-20169402D02*
X13629706Y-20178926D01*
X13629706Y-20178926D02*
X13620182Y-20197973D01*
X13620182Y-20197973D02*
X13620182Y-20236069D01*
X13620182Y-20236069D02*
X13629706Y-20255116D01*
X13629706Y-20255116D02*
X13639229Y-20264640D01*
X13639229Y-20264640D02*
X13658277Y-20274164D01*
X13658277Y-20274164D02*
X13696372Y-20274164D01*
X13696372Y-20274164D02*
X13715420Y-20264640D01*
X13715420Y-20264640D02*
X13724944Y-20255116D01*
X13724944Y-20255116D02*
X13734467Y-20236069D01*
X13734467Y-20236069D02*
X13734467Y-20197973D01*
X13734467Y-20197973D02*
X13724944Y-20178926D01*
X13724944Y-20178926D02*
X13715420Y-20169402D01*
X13715420Y-20169402D02*
X13696372Y-20159878D01*
X13924944Y-20274164D02*
X13810658Y-20274164D01*
X13867801Y-20274164D02*
X13867801Y-20074164D01*
X13867801Y-20074164D02*
X13848753Y-20102735D01*
X13848753Y-20102735D02*
X13829706Y-20121783D01*
X13829706Y-20121783D02*
X13810658Y-20131307D01*
X14001134Y-20074164D02*
X14001134Y-20112259D01*
X14077325Y-20074164D02*
X14077325Y-20112259D01*
X14372563Y-20350354D02*
X14363039Y-20340830D01*
X14363039Y-20340830D02*
X14343991Y-20312259D01*
X14343991Y-20312259D02*
X14334468Y-20293211D01*
X14334468Y-20293211D02*
X14324944Y-20264640D01*
X14324944Y-20264640D02*
X14315420Y-20217021D01*
X14315420Y-20217021D02*
X14315420Y-20178926D01*
X14315420Y-20178926D02*
X14324944Y-20131307D01*
X14324944Y-20131307D02*
X14334468Y-20102735D01*
X14334468Y-20102735D02*
X14343991Y-20083688D01*
X14343991Y-20083688D02*
X14363039Y-20055116D01*
X14363039Y-20055116D02*
X14372563Y-20045592D01*
X14439229Y-20093211D02*
X14448753Y-20083688D01*
X14448753Y-20083688D02*
X14467801Y-20074164D01*
X14467801Y-20074164D02*
X14515420Y-20074164D01*
X14515420Y-20074164D02*
X14534468Y-20083688D01*
X14534468Y-20083688D02*
X14543991Y-20093211D01*
X14543991Y-20093211D02*
X14553515Y-20112259D01*
X14553515Y-20112259D02*
X14553515Y-20131307D01*
X14553515Y-20131307D02*
X14543991Y-20159878D01*
X14543991Y-20159878D02*
X14429706Y-20274164D01*
X14429706Y-20274164D02*
X14553515Y-20274164D01*
X14724944Y-20140830D02*
X14724944Y-20274164D01*
X14677325Y-20064640D02*
X14629706Y-20207497D01*
X14629706Y-20207497D02*
X14753515Y-20207497D01*
X14982087Y-20274164D02*
X14982087Y-20074164D01*
X15067801Y-20274164D02*
X15067801Y-20169402D01*
X15067801Y-20169402D02*
X15058277Y-20150354D01*
X15058277Y-20150354D02*
X15039230Y-20140830D01*
X15039230Y-20140830D02*
X15010658Y-20140830D01*
X15010658Y-20140830D02*
X14991610Y-20150354D01*
X14991610Y-20150354D02*
X14982087Y-20159878D01*
X15191610Y-20274164D02*
X15172563Y-20264640D01*
X15172563Y-20264640D02*
X15163039Y-20255116D01*
X15163039Y-20255116D02*
X15153515Y-20236069D01*
X15153515Y-20236069D02*
X15153515Y-20178926D01*
X15153515Y-20178926D02*
X15163039Y-20159878D01*
X15163039Y-20159878D02*
X15172563Y-20150354D01*
X15172563Y-20150354D02*
X15191610Y-20140830D01*
X15191610Y-20140830D02*
X15220182Y-20140830D01*
X15220182Y-20140830D02*
X15239230Y-20150354D01*
X15239230Y-20150354D02*
X15248753Y-20159878D01*
X15248753Y-20159878D02*
X15258277Y-20178926D01*
X15258277Y-20178926D02*
X15258277Y-20236069D01*
X15258277Y-20236069D02*
X15248753Y-20255116D01*
X15248753Y-20255116D02*
X15239230Y-20264640D01*
X15239230Y-20264640D02*
X15220182Y-20274164D01*
X15220182Y-20274164D02*
X15191610Y-20274164D01*
X15372563Y-20274164D02*
X15353515Y-20264640D01*
X15353515Y-20264640D02*
X15343991Y-20245592D01*
X15343991Y-20245592D02*
X15343991Y-20074164D01*
X15524944Y-20264640D02*
X15505896Y-20274164D01*
X15505896Y-20274164D02*
X15467801Y-20274164D01*
X15467801Y-20274164D02*
X15448753Y-20264640D01*
X15448753Y-20264640D02*
X15439230Y-20245592D01*
X15439230Y-20245592D02*
X15439230Y-20169402D01*
X15439230Y-20169402D02*
X15448753Y-20150354D01*
X15448753Y-20150354D02*
X15467801Y-20140830D01*
X15467801Y-20140830D02*
X15505896Y-20140830D01*
X15505896Y-20140830D02*
X15524944Y-20150354D01*
X15524944Y-20150354D02*
X15534468Y-20169402D01*
X15534468Y-20169402D02*
X15534468Y-20188450D01*
X15534468Y-20188450D02*
X15439230Y-20207497D01*
X15610658Y-20264640D02*
X15629706Y-20274164D01*
X15629706Y-20274164D02*
X15667801Y-20274164D01*
X15667801Y-20274164D02*
X15686849Y-20264640D01*
X15686849Y-20264640D02*
X15696372Y-20245592D01*
X15696372Y-20245592D02*
X15696372Y-20236069D01*
X15696372Y-20236069D02*
X15686849Y-20217021D01*
X15686849Y-20217021D02*
X15667801Y-20207497D01*
X15667801Y-20207497D02*
X15639230Y-20207497D01*
X15639230Y-20207497D02*
X15620182Y-20197973D01*
X15620182Y-20197973D02*
X15610658Y-20178926D01*
X15610658Y-20178926D02*
X15610658Y-20169402D01*
X15610658Y-20169402D02*
X15620182Y-20150354D01*
X15620182Y-20150354D02*
X15639230Y-20140830D01*
X15639230Y-20140830D02*
X15667801Y-20140830D01*
X15667801Y-20140830D02*
X15686849Y-20150354D01*
X15763039Y-20350354D02*
X15772563Y-20340830D01*
X15772563Y-20340830D02*
X15791611Y-20312259D01*
X15791611Y-20312259D02*
X15801134Y-20293211D01*
X15801134Y-20293211D02*
X15810658Y-20264640D01*
X15810658Y-20264640D02*
X15820182Y-20217021D01*
X15820182Y-20217021D02*
X15820182Y-20178926D01*
X15820182Y-20178926D02*
X15810658Y-20131307D01*
X15810658Y-20131307D02*
X15801134Y-20102735D01*
X15801134Y-20102735D02*
X15791611Y-20083688D01*
X15791611Y-20083688D02*
X15772563Y-20055116D01*
X15772563Y-20055116D02*
X15763039Y-20045592D01*
X16124944Y-20350354D02*
X16115420Y-20340830D01*
X16115420Y-20340830D02*
X16096372Y-20312259D01*
X16096372Y-20312259D02*
X16086849Y-20293211D01*
X16086849Y-20293211D02*
X16077325Y-20264640D01*
X16077325Y-20264640D02*
X16067801Y-20217021D01*
X16067801Y-20217021D02*
X16067801Y-20178926D01*
X16067801Y-20178926D02*
X16077325Y-20131307D01*
X16077325Y-20131307D02*
X16086849Y-20102735D01*
X16086849Y-20102735D02*
X16096372Y-20083688D01*
X16096372Y-20083688D02*
X16115420Y-20055116D01*
X16115420Y-20055116D02*
X16124944Y-20045592D01*
X16201134Y-20140830D02*
X16201134Y-20274164D01*
X16201134Y-20159878D02*
X16210658Y-20150354D01*
X16210658Y-20150354D02*
X16229706Y-20140830D01*
X16229706Y-20140830D02*
X16258277Y-20140830D01*
X16258277Y-20140830D02*
X16277325Y-20150354D01*
X16277325Y-20150354D02*
X16286849Y-20169402D01*
X16286849Y-20169402D02*
X16286849Y-20274164D01*
X16410658Y-20274164D02*
X16391611Y-20264640D01*
X16391611Y-20264640D02*
X16382087Y-20255116D01*
X16382087Y-20255116D02*
X16372563Y-20236069D01*
X16372563Y-20236069D02*
X16372563Y-20178926D01*
X16372563Y-20178926D02*
X16382087Y-20159878D01*
X16382087Y-20159878D02*
X16391611Y-20150354D01*
X16391611Y-20150354D02*
X16410658Y-20140830D01*
X16410658Y-20140830D02*
X16439230Y-20140830D01*
X16439230Y-20140830D02*
X16458277Y-20150354D01*
X16458277Y-20150354D02*
X16467801Y-20159878D01*
X16467801Y-20159878D02*
X16477325Y-20178926D01*
X16477325Y-20178926D02*
X16477325Y-20236069D01*
X16477325Y-20236069D02*
X16467801Y-20255116D01*
X16467801Y-20255116D02*
X16458277Y-20264640D01*
X16458277Y-20264640D02*
X16439230Y-20274164D01*
X16439230Y-20274164D02*
X16410658Y-20274164D01*
X16534468Y-20140830D02*
X16610658Y-20140830D01*
X16563039Y-20074164D02*
X16563039Y-20245592D01*
X16563039Y-20245592D02*
X16572563Y-20264640D01*
X16572563Y-20264640D02*
X16591611Y-20274164D01*
X16591611Y-20274164D02*
X16610658Y-20274164D01*
X16829706Y-20140830D02*
X16829706Y-20340830D01*
X16829706Y-20150354D02*
X16848754Y-20140830D01*
X16848754Y-20140830D02*
X16886849Y-20140830D01*
X16886849Y-20140830D02*
X16905896Y-20150354D01*
X16905896Y-20150354D02*
X16915420Y-20159878D01*
X16915420Y-20159878D02*
X16924944Y-20178926D01*
X16924944Y-20178926D02*
X16924944Y-20236069D01*
X16924944Y-20236069D02*
X16915420Y-20255116D01*
X16915420Y-20255116D02*
X16905896Y-20264640D01*
X16905896Y-20264640D02*
X16886849Y-20274164D01*
X16886849Y-20274164D02*
X16848754Y-20274164D01*
X16848754Y-20274164D02*
X16829706Y-20264640D01*
X17039230Y-20274164D02*
X17020182Y-20264640D01*
X17020182Y-20264640D02*
X17010658Y-20245592D01*
X17010658Y-20245592D02*
X17010658Y-20074164D01*
X17201135Y-20274164D02*
X17201135Y-20169402D01*
X17201135Y-20169402D02*
X17191611Y-20150354D01*
X17191611Y-20150354D02*
X17172563Y-20140830D01*
X17172563Y-20140830D02*
X17134468Y-20140830D01*
X17134468Y-20140830D02*
X17115420Y-20150354D01*
X17201135Y-20264640D02*
X17182087Y-20274164D01*
X17182087Y-20274164D02*
X17134468Y-20274164D01*
X17134468Y-20274164D02*
X17115420Y-20264640D01*
X17115420Y-20264640D02*
X17105896Y-20245592D01*
X17105896Y-20245592D02*
X17105896Y-20226545D01*
X17105896Y-20226545D02*
X17115420Y-20207497D01*
X17115420Y-20207497D02*
X17134468Y-20197973D01*
X17134468Y-20197973D02*
X17182087Y-20197973D01*
X17182087Y-20197973D02*
X17201135Y-20188450D01*
X17267801Y-20140830D02*
X17343992Y-20140830D01*
X17296373Y-20074164D02*
X17296373Y-20245592D01*
X17296373Y-20245592D02*
X17305896Y-20264640D01*
X17305896Y-20264640D02*
X17324944Y-20274164D01*
X17324944Y-20274164D02*
X17343992Y-20274164D01*
X17486849Y-20264640D02*
X17467801Y-20274164D01*
X17467801Y-20274164D02*
X17429706Y-20274164D01*
X17429706Y-20274164D02*
X17410658Y-20264640D01*
X17410658Y-20264640D02*
X17401135Y-20245592D01*
X17401135Y-20245592D02*
X17401135Y-20169402D01*
X17401135Y-20169402D02*
X17410658Y-20150354D01*
X17410658Y-20150354D02*
X17429706Y-20140830D01*
X17429706Y-20140830D02*
X17467801Y-20140830D01*
X17467801Y-20140830D02*
X17486849Y-20150354D01*
X17486849Y-20150354D02*
X17496373Y-20169402D01*
X17496373Y-20169402D02*
X17496373Y-20188450D01*
X17496373Y-20188450D02*
X17401135Y-20207497D01*
X17667801Y-20274164D02*
X17667801Y-20074164D01*
X17667801Y-20264640D02*
X17648754Y-20274164D01*
X17648754Y-20274164D02*
X17610658Y-20274164D01*
X17610658Y-20274164D02*
X17591611Y-20264640D01*
X17591611Y-20264640D02*
X17582087Y-20255116D01*
X17582087Y-20255116D02*
X17572563Y-20236069D01*
X17572563Y-20236069D02*
X17572563Y-20178926D01*
X17572563Y-20178926D02*
X17582087Y-20159878D01*
X17582087Y-20159878D02*
X17591611Y-20150354D01*
X17591611Y-20150354D02*
X17610658Y-20140830D01*
X17610658Y-20140830D02*
X17648754Y-20140830D01*
X17648754Y-20140830D02*
X17667801Y-20150354D01*
X17743992Y-20350354D02*
X17753516Y-20340830D01*
X17753516Y-20340830D02*
X17772563Y-20312259D01*
X17772563Y-20312259D02*
X17782087Y-20293211D01*
X17782087Y-20293211D02*
X17791611Y-20264640D01*
X17791611Y-20264640D02*
X17801135Y-20217021D01*
X17801135Y-20217021D02*
X17801135Y-20178926D01*
X17801135Y-20178926D02*
X17791611Y-20131307D01*
X17791611Y-20131307D02*
X17782087Y-20102735D01*
X17782087Y-20102735D02*
X17772563Y-20083688D01*
X17772563Y-20083688D02*
X17753516Y-20055116D01*
X17753516Y-20055116D02*
X17743992Y-20045592D01*
X10697500Y-20402680D02*
X10697500Y-20602680D01*
X10597500Y-20502680D02*
X10797500Y-20502680D01*
X11039229Y-20394164D02*
X11163039Y-20394164D01*
X11163039Y-20394164D02*
X11096372Y-20470354D01*
X11096372Y-20470354D02*
X11124944Y-20470354D01*
X11124944Y-20470354D02*
X11143991Y-20479878D01*
X11143991Y-20479878D02*
X11153515Y-20489402D01*
X11153515Y-20489402D02*
X11163039Y-20508450D01*
X11163039Y-20508450D02*
X11163039Y-20556069D01*
X11163039Y-20556069D02*
X11153515Y-20575116D01*
X11153515Y-20575116D02*
X11143991Y-20584640D01*
X11143991Y-20584640D02*
X11124944Y-20594164D01*
X11124944Y-20594164D02*
X11067801Y-20594164D01*
X11067801Y-20594164D02*
X11048753Y-20584640D01*
X11048753Y-20584640D02*
X11039229Y-20575116D01*
X11248753Y-20575116D02*
X11258277Y-20584640D01*
X11258277Y-20584640D02*
X11248753Y-20594164D01*
X11248753Y-20594164D02*
X11239229Y-20584640D01*
X11239229Y-20584640D02*
X11248753Y-20575116D01*
X11248753Y-20575116D02*
X11248753Y-20594164D01*
X11429705Y-20460830D02*
X11429705Y-20594164D01*
X11382086Y-20384640D02*
X11334467Y-20527497D01*
X11334467Y-20527497D02*
X11458277Y-20527497D01*
X11524943Y-20413211D02*
X11534467Y-20403688D01*
X11534467Y-20403688D02*
X11553515Y-20394164D01*
X11553515Y-20394164D02*
X11601134Y-20394164D01*
X11601134Y-20394164D02*
X11620182Y-20403688D01*
X11620182Y-20403688D02*
X11629705Y-20413211D01*
X11629705Y-20413211D02*
X11639229Y-20432259D01*
X11639229Y-20432259D02*
X11639229Y-20451307D01*
X11639229Y-20451307D02*
X11629705Y-20479878D01*
X11629705Y-20479878D02*
X11515420Y-20594164D01*
X11515420Y-20594164D02*
X11639229Y-20594164D01*
X11734467Y-20594164D02*
X11772562Y-20594164D01*
X11772562Y-20594164D02*
X11791610Y-20584640D01*
X11791610Y-20584640D02*
X11801134Y-20575116D01*
X11801134Y-20575116D02*
X11820182Y-20546545D01*
X11820182Y-20546545D02*
X11829705Y-20508450D01*
X11829705Y-20508450D02*
X11829705Y-20432259D01*
X11829705Y-20432259D02*
X11820182Y-20413211D01*
X11820182Y-20413211D02*
X11810658Y-20403688D01*
X11810658Y-20403688D02*
X11791610Y-20394164D01*
X11791610Y-20394164D02*
X11753515Y-20394164D01*
X11753515Y-20394164D02*
X11734467Y-20403688D01*
X11734467Y-20403688D02*
X11724943Y-20413211D01*
X11724943Y-20413211D02*
X11715420Y-20432259D01*
X11715420Y-20432259D02*
X11715420Y-20479878D01*
X11715420Y-20479878D02*
X11724943Y-20498926D01*
X11724943Y-20498926D02*
X11734467Y-20508450D01*
X11734467Y-20508450D02*
X11753515Y-20517973D01*
X11753515Y-20517973D02*
X11791610Y-20517973D01*
X11791610Y-20517973D02*
X11810658Y-20508450D01*
X11810658Y-20508450D02*
X11820182Y-20498926D01*
X11820182Y-20498926D02*
X11829705Y-20479878D01*
X11915420Y-20594164D02*
X11915420Y-20460830D01*
X11915420Y-20479878D02*
X11924943Y-20470354D01*
X11924943Y-20470354D02*
X11943991Y-20460830D01*
X11943991Y-20460830D02*
X11972563Y-20460830D01*
X11972563Y-20460830D02*
X11991610Y-20470354D01*
X11991610Y-20470354D02*
X12001134Y-20489402D01*
X12001134Y-20489402D02*
X12001134Y-20594164D01*
X12001134Y-20489402D02*
X12010658Y-20470354D01*
X12010658Y-20470354D02*
X12029705Y-20460830D01*
X12029705Y-20460830D02*
X12058277Y-20460830D01*
X12058277Y-20460830D02*
X12077324Y-20470354D01*
X12077324Y-20470354D02*
X12086848Y-20489402D01*
X12086848Y-20489402D02*
X12086848Y-20594164D01*
X12182086Y-20594164D02*
X12182086Y-20460830D01*
X12182086Y-20479878D02*
X12191610Y-20470354D01*
X12191610Y-20470354D02*
X12210658Y-20460830D01*
X12210658Y-20460830D02*
X12239229Y-20460830D01*
X12239229Y-20460830D02*
X12258277Y-20470354D01*
X12258277Y-20470354D02*
X12267801Y-20489402D01*
X12267801Y-20489402D02*
X12267801Y-20594164D01*
X12267801Y-20489402D02*
X12277324Y-20470354D01*
X12277324Y-20470354D02*
X12296372Y-20460830D01*
X12296372Y-20460830D02*
X12324943Y-20460830D01*
X12324943Y-20460830D02*
X12343991Y-20470354D01*
X12343991Y-20470354D02*
X12353515Y-20489402D01*
X12353515Y-20489402D02*
X12353515Y-20594164D01*
X12743991Y-20384640D02*
X12572563Y-20641783D01*
X13001134Y-20394164D02*
X13020182Y-20394164D01*
X13020182Y-20394164D02*
X13039229Y-20403688D01*
X13039229Y-20403688D02*
X13048753Y-20413211D01*
X13048753Y-20413211D02*
X13058277Y-20432259D01*
X13058277Y-20432259D02*
X13067801Y-20470354D01*
X13067801Y-20470354D02*
X13067801Y-20517973D01*
X13067801Y-20517973D02*
X13058277Y-20556069D01*
X13058277Y-20556069D02*
X13048753Y-20575116D01*
X13048753Y-20575116D02*
X13039229Y-20584640D01*
X13039229Y-20584640D02*
X13020182Y-20594164D01*
X13020182Y-20594164D02*
X13001134Y-20594164D01*
X13001134Y-20594164D02*
X12982086Y-20584640D01*
X12982086Y-20584640D02*
X12972563Y-20575116D01*
X12972563Y-20575116D02*
X12963039Y-20556069D01*
X12963039Y-20556069D02*
X12953515Y-20517973D01*
X12953515Y-20517973D02*
X12953515Y-20470354D01*
X12953515Y-20470354D02*
X12963039Y-20432259D01*
X12963039Y-20432259D02*
X12972563Y-20413211D01*
X12972563Y-20413211D02*
X12982086Y-20403688D01*
X12982086Y-20403688D02*
X13001134Y-20394164D01*
X13153515Y-20575116D02*
X13163039Y-20584640D01*
X13163039Y-20584640D02*
X13153515Y-20594164D01*
X13153515Y-20594164D02*
X13143991Y-20584640D01*
X13143991Y-20584640D02*
X13153515Y-20575116D01*
X13153515Y-20575116D02*
X13153515Y-20594164D01*
X13353515Y-20594164D02*
X13239229Y-20594164D01*
X13296372Y-20594164D02*
X13296372Y-20394164D01*
X13296372Y-20394164D02*
X13277325Y-20422735D01*
X13277325Y-20422735D02*
X13258277Y-20441783D01*
X13258277Y-20441783D02*
X13239229Y-20451307D01*
X13420182Y-20394164D02*
X13543991Y-20394164D01*
X13543991Y-20394164D02*
X13477325Y-20470354D01*
X13477325Y-20470354D02*
X13505896Y-20470354D01*
X13505896Y-20470354D02*
X13524944Y-20479878D01*
X13524944Y-20479878D02*
X13534467Y-20489402D01*
X13534467Y-20489402D02*
X13543991Y-20508450D01*
X13543991Y-20508450D02*
X13543991Y-20556069D01*
X13543991Y-20556069D02*
X13534467Y-20575116D01*
X13534467Y-20575116D02*
X13524944Y-20584640D01*
X13524944Y-20584640D02*
X13505896Y-20594164D01*
X13505896Y-20594164D02*
X13448753Y-20594164D01*
X13448753Y-20594164D02*
X13429706Y-20584640D01*
X13429706Y-20584640D02*
X13420182Y-20575116D01*
X13724944Y-20394164D02*
X13629706Y-20394164D01*
X13629706Y-20394164D02*
X13620182Y-20489402D01*
X13620182Y-20489402D02*
X13629706Y-20479878D01*
X13629706Y-20479878D02*
X13648753Y-20470354D01*
X13648753Y-20470354D02*
X13696372Y-20470354D01*
X13696372Y-20470354D02*
X13715420Y-20479878D01*
X13715420Y-20479878D02*
X13724944Y-20489402D01*
X13724944Y-20489402D02*
X13734467Y-20508450D01*
X13734467Y-20508450D02*
X13734467Y-20556069D01*
X13734467Y-20556069D02*
X13724944Y-20575116D01*
X13724944Y-20575116D02*
X13715420Y-20584640D01*
X13715420Y-20584640D02*
X13696372Y-20594164D01*
X13696372Y-20594164D02*
X13648753Y-20594164D01*
X13648753Y-20594164D02*
X13629706Y-20584640D01*
X13629706Y-20584640D02*
X13620182Y-20575116D01*
X13858277Y-20394164D02*
X13877325Y-20394164D01*
X13877325Y-20394164D02*
X13896372Y-20403688D01*
X13896372Y-20403688D02*
X13905896Y-20413211D01*
X13905896Y-20413211D02*
X13915420Y-20432259D01*
X13915420Y-20432259D02*
X13924944Y-20470354D01*
X13924944Y-20470354D02*
X13924944Y-20517973D01*
X13924944Y-20517973D02*
X13915420Y-20556069D01*
X13915420Y-20556069D02*
X13905896Y-20575116D01*
X13905896Y-20575116D02*
X13896372Y-20584640D01*
X13896372Y-20584640D02*
X13877325Y-20594164D01*
X13877325Y-20594164D02*
X13858277Y-20594164D01*
X13858277Y-20594164D02*
X13839229Y-20584640D01*
X13839229Y-20584640D02*
X13829706Y-20575116D01*
X13829706Y-20575116D02*
X13820182Y-20556069D01*
X13820182Y-20556069D02*
X13810658Y-20517973D01*
X13810658Y-20517973D02*
X13810658Y-20470354D01*
X13810658Y-20470354D02*
X13820182Y-20432259D01*
X13820182Y-20432259D02*
X13829706Y-20413211D01*
X13829706Y-20413211D02*
X13839229Y-20403688D01*
X13839229Y-20403688D02*
X13858277Y-20394164D01*
X14001134Y-20394164D02*
X14001134Y-20432259D01*
X14077325Y-20394164D02*
X14077325Y-20432259D01*
X14372563Y-20670354D02*
X14363039Y-20660830D01*
X14363039Y-20660830D02*
X14343991Y-20632259D01*
X14343991Y-20632259D02*
X14334468Y-20613211D01*
X14334468Y-20613211D02*
X14324944Y-20584640D01*
X14324944Y-20584640D02*
X14315420Y-20537021D01*
X14315420Y-20537021D02*
X14315420Y-20498926D01*
X14315420Y-20498926D02*
X14324944Y-20451307D01*
X14324944Y-20451307D02*
X14334468Y-20422735D01*
X14334468Y-20422735D02*
X14343991Y-20403688D01*
X14343991Y-20403688D02*
X14363039Y-20375116D01*
X14363039Y-20375116D02*
X14372563Y-20365592D01*
X14553515Y-20594164D02*
X14439229Y-20594164D01*
X14496372Y-20594164D02*
X14496372Y-20394164D01*
X14496372Y-20394164D02*
X14477325Y-20422735D01*
X14477325Y-20422735D02*
X14458277Y-20441783D01*
X14458277Y-20441783D02*
X14439229Y-20451307D01*
X14629706Y-20413211D02*
X14639229Y-20403688D01*
X14639229Y-20403688D02*
X14658277Y-20394164D01*
X14658277Y-20394164D02*
X14705896Y-20394164D01*
X14705896Y-20394164D02*
X14724944Y-20403688D01*
X14724944Y-20403688D02*
X14734468Y-20413211D01*
X14734468Y-20413211D02*
X14743991Y-20432259D01*
X14743991Y-20432259D02*
X14743991Y-20451307D01*
X14743991Y-20451307D02*
X14734468Y-20479878D01*
X14734468Y-20479878D02*
X14620182Y-20594164D01*
X14620182Y-20594164D02*
X14743991Y-20594164D01*
X14982087Y-20594164D02*
X14982087Y-20394164D01*
X15067801Y-20594164D02*
X15067801Y-20489402D01*
X15067801Y-20489402D02*
X15058277Y-20470354D01*
X15058277Y-20470354D02*
X15039230Y-20460830D01*
X15039230Y-20460830D02*
X15010658Y-20460830D01*
X15010658Y-20460830D02*
X14991610Y-20470354D01*
X14991610Y-20470354D02*
X14982087Y-20479878D01*
X15191610Y-20594164D02*
X15172563Y-20584640D01*
X15172563Y-20584640D02*
X15163039Y-20575116D01*
X15163039Y-20575116D02*
X15153515Y-20556069D01*
X15153515Y-20556069D02*
X15153515Y-20498926D01*
X15153515Y-20498926D02*
X15163039Y-20479878D01*
X15163039Y-20479878D02*
X15172563Y-20470354D01*
X15172563Y-20470354D02*
X15191610Y-20460830D01*
X15191610Y-20460830D02*
X15220182Y-20460830D01*
X15220182Y-20460830D02*
X15239230Y-20470354D01*
X15239230Y-20470354D02*
X15248753Y-20479878D01*
X15248753Y-20479878D02*
X15258277Y-20498926D01*
X15258277Y-20498926D02*
X15258277Y-20556069D01*
X15258277Y-20556069D02*
X15248753Y-20575116D01*
X15248753Y-20575116D02*
X15239230Y-20584640D01*
X15239230Y-20584640D02*
X15220182Y-20594164D01*
X15220182Y-20594164D02*
X15191610Y-20594164D01*
X15372563Y-20594164D02*
X15353515Y-20584640D01*
X15353515Y-20584640D02*
X15343991Y-20565592D01*
X15343991Y-20565592D02*
X15343991Y-20394164D01*
X15524944Y-20584640D02*
X15505896Y-20594164D01*
X15505896Y-20594164D02*
X15467801Y-20594164D01*
X15467801Y-20594164D02*
X15448753Y-20584640D01*
X15448753Y-20584640D02*
X15439230Y-20565592D01*
X15439230Y-20565592D02*
X15439230Y-20489402D01*
X15439230Y-20489402D02*
X15448753Y-20470354D01*
X15448753Y-20470354D02*
X15467801Y-20460830D01*
X15467801Y-20460830D02*
X15505896Y-20460830D01*
X15505896Y-20460830D02*
X15524944Y-20470354D01*
X15524944Y-20470354D02*
X15534468Y-20489402D01*
X15534468Y-20489402D02*
X15534468Y-20508450D01*
X15534468Y-20508450D02*
X15439230Y-20527497D01*
X15610658Y-20584640D02*
X15629706Y-20594164D01*
X15629706Y-20594164D02*
X15667801Y-20594164D01*
X15667801Y-20594164D02*
X15686849Y-20584640D01*
X15686849Y-20584640D02*
X15696372Y-20565592D01*
X15696372Y-20565592D02*
X15696372Y-20556069D01*
X15696372Y-20556069D02*
X15686849Y-20537021D01*
X15686849Y-20537021D02*
X15667801Y-20527497D01*
X15667801Y-20527497D02*
X15639230Y-20527497D01*
X15639230Y-20527497D02*
X15620182Y-20517973D01*
X15620182Y-20517973D02*
X15610658Y-20498926D01*
X15610658Y-20498926D02*
X15610658Y-20489402D01*
X15610658Y-20489402D02*
X15620182Y-20470354D01*
X15620182Y-20470354D02*
X15639230Y-20460830D01*
X15639230Y-20460830D02*
X15667801Y-20460830D01*
X15667801Y-20460830D02*
X15686849Y-20470354D01*
X15763039Y-20670354D02*
X15772563Y-20660830D01*
X15772563Y-20660830D02*
X15791611Y-20632259D01*
X15791611Y-20632259D02*
X15801134Y-20613211D01*
X15801134Y-20613211D02*
X15810658Y-20584640D01*
X15810658Y-20584640D02*
X15820182Y-20537021D01*
X15820182Y-20537021D02*
X15820182Y-20498926D01*
X15820182Y-20498926D02*
X15810658Y-20451307D01*
X15810658Y-20451307D02*
X15801134Y-20422735D01*
X15801134Y-20422735D02*
X15791611Y-20403688D01*
X15791611Y-20403688D02*
X15772563Y-20375116D01*
X15772563Y-20375116D02*
X15763039Y-20365592D01*
X16124944Y-20670354D02*
X16115420Y-20660830D01*
X16115420Y-20660830D02*
X16096372Y-20632259D01*
X16096372Y-20632259D02*
X16086849Y-20613211D01*
X16086849Y-20613211D02*
X16077325Y-20584640D01*
X16077325Y-20584640D02*
X16067801Y-20537021D01*
X16067801Y-20537021D02*
X16067801Y-20498926D01*
X16067801Y-20498926D02*
X16077325Y-20451307D01*
X16077325Y-20451307D02*
X16086849Y-20422735D01*
X16086849Y-20422735D02*
X16096372Y-20403688D01*
X16096372Y-20403688D02*
X16115420Y-20375116D01*
X16115420Y-20375116D02*
X16124944Y-20365592D01*
X16201134Y-20460830D02*
X16201134Y-20594164D01*
X16201134Y-20479878D02*
X16210658Y-20470354D01*
X16210658Y-20470354D02*
X16229706Y-20460830D01*
X16229706Y-20460830D02*
X16258277Y-20460830D01*
X16258277Y-20460830D02*
X16277325Y-20470354D01*
X16277325Y-20470354D02*
X16286849Y-20489402D01*
X16286849Y-20489402D02*
X16286849Y-20594164D01*
X16410658Y-20594164D02*
X16391611Y-20584640D01*
X16391611Y-20584640D02*
X16382087Y-20575116D01*
X16382087Y-20575116D02*
X16372563Y-20556069D01*
X16372563Y-20556069D02*
X16372563Y-20498926D01*
X16372563Y-20498926D02*
X16382087Y-20479878D01*
X16382087Y-20479878D02*
X16391611Y-20470354D01*
X16391611Y-20470354D02*
X16410658Y-20460830D01*
X16410658Y-20460830D02*
X16439230Y-20460830D01*
X16439230Y-20460830D02*
X16458277Y-20470354D01*
X16458277Y-20470354D02*
X16467801Y-20479878D01*
X16467801Y-20479878D02*
X16477325Y-20498926D01*
X16477325Y-20498926D02*
X16477325Y-20556069D01*
X16477325Y-20556069D02*
X16467801Y-20575116D01*
X16467801Y-20575116D02*
X16458277Y-20584640D01*
X16458277Y-20584640D02*
X16439230Y-20594164D01*
X16439230Y-20594164D02*
X16410658Y-20594164D01*
X16534468Y-20460830D02*
X16610658Y-20460830D01*
X16563039Y-20394164D02*
X16563039Y-20565592D01*
X16563039Y-20565592D02*
X16572563Y-20584640D01*
X16572563Y-20584640D02*
X16591611Y-20594164D01*
X16591611Y-20594164D02*
X16610658Y-20594164D01*
X16829706Y-20460830D02*
X16829706Y-20660830D01*
X16829706Y-20470354D02*
X16848754Y-20460830D01*
X16848754Y-20460830D02*
X16886849Y-20460830D01*
X16886849Y-20460830D02*
X16905896Y-20470354D01*
X16905896Y-20470354D02*
X16915420Y-20479878D01*
X16915420Y-20479878D02*
X16924944Y-20498926D01*
X16924944Y-20498926D02*
X16924944Y-20556069D01*
X16924944Y-20556069D02*
X16915420Y-20575116D01*
X16915420Y-20575116D02*
X16905896Y-20584640D01*
X16905896Y-20584640D02*
X16886849Y-20594164D01*
X16886849Y-20594164D02*
X16848754Y-20594164D01*
X16848754Y-20594164D02*
X16829706Y-20584640D01*
X17039230Y-20594164D02*
X17020182Y-20584640D01*
X17020182Y-20584640D02*
X17010658Y-20565592D01*
X17010658Y-20565592D02*
X17010658Y-20394164D01*
X17201135Y-20594164D02*
X17201135Y-20489402D01*
X17201135Y-20489402D02*
X17191611Y-20470354D01*
X17191611Y-20470354D02*
X17172563Y-20460830D01*
X17172563Y-20460830D02*
X17134468Y-20460830D01*
X17134468Y-20460830D02*
X17115420Y-20470354D01*
X17201135Y-20584640D02*
X17182087Y-20594164D01*
X17182087Y-20594164D02*
X17134468Y-20594164D01*
X17134468Y-20594164D02*
X17115420Y-20584640D01*
X17115420Y-20584640D02*
X17105896Y-20565592D01*
X17105896Y-20565592D02*
X17105896Y-20546545D01*
X17105896Y-20546545D02*
X17115420Y-20527497D01*
X17115420Y-20527497D02*
X17134468Y-20517973D01*
X17134468Y-20517973D02*
X17182087Y-20517973D01*
X17182087Y-20517973D02*
X17201135Y-20508450D01*
X17267801Y-20460830D02*
X17343992Y-20460830D01*
X17296373Y-20394164D02*
X17296373Y-20565592D01*
X17296373Y-20565592D02*
X17305896Y-20584640D01*
X17305896Y-20584640D02*
X17324944Y-20594164D01*
X17324944Y-20594164D02*
X17343992Y-20594164D01*
X17486849Y-20584640D02*
X17467801Y-20594164D01*
X17467801Y-20594164D02*
X17429706Y-20594164D01*
X17429706Y-20594164D02*
X17410658Y-20584640D01*
X17410658Y-20584640D02*
X17401135Y-20565592D01*
X17401135Y-20565592D02*
X17401135Y-20489402D01*
X17401135Y-20489402D02*
X17410658Y-20470354D01*
X17410658Y-20470354D02*
X17429706Y-20460830D01*
X17429706Y-20460830D02*
X17467801Y-20460830D01*
X17467801Y-20460830D02*
X17486849Y-20470354D01*
X17486849Y-20470354D02*
X17496373Y-20489402D01*
X17496373Y-20489402D02*
X17496373Y-20508450D01*
X17496373Y-20508450D02*
X17401135Y-20527497D01*
X17667801Y-20594164D02*
X17667801Y-20394164D01*
X17667801Y-20584640D02*
X17648754Y-20594164D01*
X17648754Y-20594164D02*
X17610658Y-20594164D01*
X17610658Y-20594164D02*
X17591611Y-20584640D01*
X17591611Y-20584640D02*
X17582087Y-20575116D01*
X17582087Y-20575116D02*
X17572563Y-20556069D01*
X17572563Y-20556069D02*
X17572563Y-20498926D01*
X17572563Y-20498926D02*
X17582087Y-20479878D01*
X17582087Y-20479878D02*
X17591611Y-20470354D01*
X17591611Y-20470354D02*
X17610658Y-20460830D01*
X17610658Y-20460830D02*
X17648754Y-20460830D01*
X17648754Y-20460830D02*
X17667801Y-20470354D01*
X17743992Y-20670354D02*
X17753516Y-20660830D01*
X17753516Y-20660830D02*
X17772563Y-20632259D01*
X17772563Y-20632259D02*
X17782087Y-20613211D01*
X17782087Y-20613211D02*
X17791611Y-20584640D01*
X17791611Y-20584640D02*
X17801135Y-20537021D01*
X17801135Y-20537021D02*
X17801135Y-20498926D01*
X17801135Y-20498926D02*
X17791611Y-20451307D01*
X17791611Y-20451307D02*
X17782087Y-20422735D01*
X17782087Y-20422735D02*
X17772563Y-20403688D01*
X17772563Y-20403688D02*
X17753516Y-20375116D01*
X17753516Y-20375116D02*
X17743992Y-20365592D01*
M02*
