%TF.GenerationSoftware,KiCad,Pcbnew,8.0.1*%
%TF.CreationDate,2024-03-26T13:51:38-04:00*%
%TF.ProjectId,hitbox,68697462-6f78-42e6-9b69-6361645f7063,rev?*%
%TF.SameCoordinates,Original*%
%TF.FileFunction,Legend,Top*%
%TF.FilePolarity,Positive*%
%FSLAX46Y46*%
G04 Gerber Fmt 4.6, Leading zero omitted, Abs format (unit mm)*
G04 Created by KiCad (PCBNEW 8.0.1) date 2024-03-26 13:51:38*
%MOMM*%
%LPD*%
G01*
G04 APERTURE LIST*
%ADD10C,0.100000*%
%ADD11C,0.150000*%
%ADD12C,0.120000*%
G04 APERTURE END LIST*
D10*
X245250000Y-99850000D02*
G75*
G02*
X219750000Y-99850000I-12750000J0D01*
G01*
X219750000Y-99850000D02*
G75*
G02*
X245250000Y-99850000I12750000J0D01*
G01*
X274450000Y-82350000D02*
G75*
G02*
X248950000Y-82350000I-12750000J0D01*
G01*
X248950000Y-82350000D02*
G75*
G02*
X274450000Y-82350000I12750000J0D01*
G01*
X274250000Y-116350000D02*
G75*
G02*
X248750000Y-116350000I-12750000J0D01*
G01*
X248750000Y-116350000D02*
G75*
G02*
X274250000Y-116350000I12750000J0D01*
G01*
X242950000Y-133950000D02*
G75*
G02*
X217450000Y-133950000I-12750000J0D01*
G01*
X217450000Y-133950000D02*
G75*
G02*
X242950000Y-133950000I12750000J0D01*
G01*
X308050000Y-116650000D02*
G75*
G02*
X282550000Y-116650000I-12750000J0D01*
G01*
X282550000Y-116650000D02*
G75*
G02*
X308050000Y-116650000I12750000J0D01*
G01*
X214850000Y-114850000D02*
G75*
G02*
X189350000Y-114850000I-12750000J0D01*
G01*
X189350000Y-114850000D02*
G75*
G02*
X214850000Y-114850000I12750000J0D01*
G01*
X234300000Y-171250000D02*
G75*
G02*
X203700000Y-171250000I-15300000J0D01*
G01*
X203700000Y-171250000D02*
G75*
G02*
X234300000Y-171250000I15300000J0D01*
G01*
X151850000Y-97550000D02*
G75*
G02*
X126350000Y-97550000I-12750000J0D01*
G01*
X126350000Y-97550000D02*
G75*
G02*
X151850000Y-97550000I12750000J0D01*
G01*
X185550000Y-99550000D02*
G75*
G02*
X160050000Y-99550000I-12750000J0D01*
G01*
X160050000Y-99550000D02*
G75*
G02*
X185550000Y-99550000I12750000J0D01*
G01*
X340750000Y-117650000D02*
G75*
G02*
X315250000Y-117650000I-12750000J0D01*
G01*
X315250000Y-117650000D02*
G75*
G02*
X340750000Y-117650000I12750000J0D01*
G01*
X340550000Y-83650000D02*
G75*
G02*
X315050000Y-83650000I-12750000J0D01*
G01*
X315050000Y-83650000D02*
G75*
G02*
X340550000Y-83650000I12750000J0D01*
G01*
X308550000Y-82550000D02*
G75*
G02*
X283050000Y-82550000I-12750000J0D01*
G01*
X283050000Y-82550000D02*
G75*
G02*
X308550000Y-82550000I12750000J0D01*
G01*
D11*
X128166667Y-70954819D02*
X128166667Y-69954819D01*
X128166667Y-70431009D02*
X128738095Y-70431009D01*
X128738095Y-70954819D02*
X128738095Y-69954819D01*
X129357143Y-70954819D02*
X129261905Y-70907200D01*
X129261905Y-70907200D02*
X129214286Y-70859580D01*
X129214286Y-70859580D02*
X129166667Y-70764342D01*
X129166667Y-70764342D02*
X129166667Y-70478628D01*
X129166667Y-70478628D02*
X129214286Y-70383390D01*
X129214286Y-70383390D02*
X129261905Y-70335771D01*
X129261905Y-70335771D02*
X129357143Y-70288152D01*
X129357143Y-70288152D02*
X129500000Y-70288152D01*
X129500000Y-70288152D02*
X129595238Y-70335771D01*
X129595238Y-70335771D02*
X129642857Y-70383390D01*
X129642857Y-70383390D02*
X129690476Y-70478628D01*
X129690476Y-70478628D02*
X129690476Y-70764342D01*
X129690476Y-70764342D02*
X129642857Y-70859580D01*
X129642857Y-70859580D02*
X129595238Y-70907200D01*
X129595238Y-70907200D02*
X129500000Y-70954819D01*
X129500000Y-70954819D02*
X129357143Y-70954819D01*
X130119048Y-70954819D02*
X130119048Y-70288152D01*
X130119048Y-70383390D02*
X130166667Y-70335771D01*
X130166667Y-70335771D02*
X130261905Y-70288152D01*
X130261905Y-70288152D02*
X130404762Y-70288152D01*
X130404762Y-70288152D02*
X130500000Y-70335771D01*
X130500000Y-70335771D02*
X130547619Y-70431009D01*
X130547619Y-70431009D02*
X130547619Y-70954819D01*
X130547619Y-70431009D02*
X130595238Y-70335771D01*
X130595238Y-70335771D02*
X130690476Y-70288152D01*
X130690476Y-70288152D02*
X130833333Y-70288152D01*
X130833333Y-70288152D02*
X130928572Y-70335771D01*
X130928572Y-70335771D02*
X130976191Y-70431009D01*
X130976191Y-70431009D02*
X130976191Y-70954819D01*
X131833333Y-70907200D02*
X131738095Y-70954819D01*
X131738095Y-70954819D02*
X131547619Y-70954819D01*
X131547619Y-70954819D02*
X131452381Y-70907200D01*
X131452381Y-70907200D02*
X131404762Y-70811961D01*
X131404762Y-70811961D02*
X131404762Y-70431009D01*
X131404762Y-70431009D02*
X131452381Y-70335771D01*
X131452381Y-70335771D02*
X131547619Y-70288152D01*
X131547619Y-70288152D02*
X131738095Y-70288152D01*
X131738095Y-70288152D02*
X131833333Y-70335771D01*
X131833333Y-70335771D02*
X131880952Y-70431009D01*
X131880952Y-70431009D02*
X131880952Y-70526247D01*
X131880952Y-70526247D02*
X131404762Y-70621485D01*
X258880952Y-107431009D02*
X259023809Y-107478628D01*
X259023809Y-107478628D02*
X259071428Y-107526247D01*
X259071428Y-107526247D02*
X259119047Y-107621485D01*
X259119047Y-107621485D02*
X259119047Y-107764342D01*
X259119047Y-107764342D02*
X259071428Y-107859580D01*
X259071428Y-107859580D02*
X259023809Y-107907200D01*
X259023809Y-107907200D02*
X258928571Y-107954819D01*
X258928571Y-107954819D02*
X258547619Y-107954819D01*
X258547619Y-107954819D02*
X258547619Y-106954819D01*
X258547619Y-106954819D02*
X258880952Y-106954819D01*
X258880952Y-106954819D02*
X258976190Y-107002438D01*
X258976190Y-107002438D02*
X259023809Y-107050057D01*
X259023809Y-107050057D02*
X259071428Y-107145295D01*
X259071428Y-107145295D02*
X259071428Y-107240533D01*
X259071428Y-107240533D02*
X259023809Y-107335771D01*
X259023809Y-107335771D02*
X258976190Y-107383390D01*
X258976190Y-107383390D02*
X258880952Y-107431009D01*
X258880952Y-107431009D02*
X258547619Y-107431009D01*
X260261904Y-106907200D02*
X259404762Y-108192914D01*
X261166666Y-107859580D02*
X261119047Y-107907200D01*
X261119047Y-107907200D02*
X260976190Y-107954819D01*
X260976190Y-107954819D02*
X260880952Y-107954819D01*
X260880952Y-107954819D02*
X260738095Y-107907200D01*
X260738095Y-107907200D02*
X260642857Y-107811961D01*
X260642857Y-107811961D02*
X260595238Y-107716723D01*
X260595238Y-107716723D02*
X260547619Y-107526247D01*
X260547619Y-107526247D02*
X260547619Y-107383390D01*
X260547619Y-107383390D02*
X260595238Y-107192914D01*
X260595238Y-107192914D02*
X260642857Y-107097676D01*
X260642857Y-107097676D02*
X260738095Y-107002438D01*
X260738095Y-107002438D02*
X260880952Y-106954819D01*
X260880952Y-106954819D02*
X260976190Y-106954819D01*
X260976190Y-106954819D02*
X261119047Y-107002438D01*
X261119047Y-107002438D02*
X261166666Y-107050057D01*
X261595238Y-107954819D02*
X261595238Y-107288152D01*
X261595238Y-106954819D02*
X261547619Y-107002438D01*
X261547619Y-107002438D02*
X261595238Y-107050057D01*
X261595238Y-107050057D02*
X261642857Y-107002438D01*
X261642857Y-107002438D02*
X261595238Y-106954819D01*
X261595238Y-106954819D02*
X261595238Y-107050057D01*
X262071428Y-107954819D02*
X262071428Y-107288152D01*
X262071428Y-107478628D02*
X262119047Y-107383390D01*
X262119047Y-107383390D02*
X262166666Y-107335771D01*
X262166666Y-107335771D02*
X262261904Y-107288152D01*
X262261904Y-107288152D02*
X262357142Y-107288152D01*
X263119047Y-107907200D02*
X263023809Y-107954819D01*
X263023809Y-107954819D02*
X262833333Y-107954819D01*
X262833333Y-107954819D02*
X262738095Y-107907200D01*
X262738095Y-107907200D02*
X262690476Y-107859580D01*
X262690476Y-107859580D02*
X262642857Y-107764342D01*
X262642857Y-107764342D02*
X262642857Y-107478628D01*
X262642857Y-107478628D02*
X262690476Y-107383390D01*
X262690476Y-107383390D02*
X262738095Y-107335771D01*
X262738095Y-107335771D02*
X262833333Y-107288152D01*
X262833333Y-107288152D02*
X263023809Y-107288152D01*
X263023809Y-107288152D02*
X263119047Y-107335771D01*
X263690476Y-107954819D02*
X263595238Y-107907200D01*
X263595238Y-107907200D02*
X263547619Y-107811961D01*
X263547619Y-107811961D02*
X263547619Y-106954819D01*
X264452381Y-107907200D02*
X264357143Y-107954819D01*
X264357143Y-107954819D02*
X264166667Y-107954819D01*
X264166667Y-107954819D02*
X264071429Y-107907200D01*
X264071429Y-107907200D02*
X264023810Y-107811961D01*
X264023810Y-107811961D02*
X264023810Y-107431009D01*
X264023810Y-107431009D02*
X264071429Y-107335771D01*
X264071429Y-107335771D02*
X264166667Y-107288152D01*
X264166667Y-107288152D02*
X264357143Y-107288152D01*
X264357143Y-107288152D02*
X264452381Y-107335771D01*
X264452381Y-107335771D02*
X264500000Y-107431009D01*
X264500000Y-107431009D02*
X264500000Y-107526247D01*
X264500000Y-107526247D02*
X264023810Y-107621485D01*
X171687030Y-89954819D02*
X171687030Y-90764342D01*
X171687030Y-90764342D02*
X171734649Y-90859580D01*
X171734649Y-90859580D02*
X171782268Y-90907200D01*
X171782268Y-90907200D02*
X171877506Y-90954819D01*
X171877506Y-90954819D02*
X172067982Y-90954819D01*
X172067982Y-90954819D02*
X172163220Y-90907200D01*
X172163220Y-90907200D02*
X172210839Y-90859580D01*
X172210839Y-90859580D02*
X172258458Y-90764342D01*
X172258458Y-90764342D02*
X172258458Y-89954819D01*
X172734649Y-90288152D02*
X172734649Y-91288152D01*
X172734649Y-90335771D02*
X172829887Y-90288152D01*
X172829887Y-90288152D02*
X173020363Y-90288152D01*
X173020363Y-90288152D02*
X173115601Y-90335771D01*
X173115601Y-90335771D02*
X173163220Y-90383390D01*
X173163220Y-90383390D02*
X173210839Y-90478628D01*
X173210839Y-90478628D02*
X173210839Y-90764342D01*
X173210839Y-90764342D02*
X173163220Y-90859580D01*
X173163220Y-90859580D02*
X173115601Y-90907200D01*
X173115601Y-90907200D02*
X173020363Y-90954819D01*
X173020363Y-90954819D02*
X172829887Y-90954819D01*
X172829887Y-90954819D02*
X172734649Y-90907200D01*
X138409523Y-89454819D02*
X137933333Y-89454819D01*
X137933333Y-89454819D02*
X137933333Y-88454819D01*
X139123809Y-89407200D02*
X139028571Y-89454819D01*
X139028571Y-89454819D02*
X138838095Y-89454819D01*
X138838095Y-89454819D02*
X138742857Y-89407200D01*
X138742857Y-89407200D02*
X138695238Y-89311961D01*
X138695238Y-89311961D02*
X138695238Y-88931009D01*
X138695238Y-88931009D02*
X138742857Y-88835771D01*
X138742857Y-88835771D02*
X138838095Y-88788152D01*
X138838095Y-88788152D02*
X139028571Y-88788152D01*
X139028571Y-88788152D02*
X139123809Y-88835771D01*
X139123809Y-88835771D02*
X139171428Y-88931009D01*
X139171428Y-88931009D02*
X139171428Y-89026247D01*
X139171428Y-89026247D02*
X138695238Y-89121485D01*
X139457143Y-88788152D02*
X139838095Y-88788152D01*
X139600000Y-89454819D02*
X139600000Y-88597676D01*
X139600000Y-88597676D02*
X139647619Y-88502438D01*
X139647619Y-88502438D02*
X139742857Y-88454819D01*
X139742857Y-88454819D02*
X139838095Y-88454819D01*
X140028572Y-88788152D02*
X140409524Y-88788152D01*
X140171429Y-88454819D02*
X140171429Y-89311961D01*
X140171429Y-89311961D02*
X140219048Y-89407200D01*
X140219048Y-89407200D02*
X140314286Y-89454819D01*
X140314286Y-89454819D02*
X140409524Y-89454819D01*
X327928571Y-109454819D02*
X327452381Y-109454819D01*
X327452381Y-109454819D02*
X327452381Y-108454819D01*
X328119048Y-108454819D02*
X328690476Y-108454819D01*
X328404762Y-109454819D02*
X328404762Y-108454819D01*
X218261905Y-161954819D02*
X218261905Y-162764342D01*
X218261905Y-162764342D02*
X218309524Y-162859580D01*
X218309524Y-162859580D02*
X218357143Y-162907200D01*
X218357143Y-162907200D02*
X218452381Y-162954819D01*
X218452381Y-162954819D02*
X218642857Y-162954819D01*
X218642857Y-162954819D02*
X218738095Y-162907200D01*
X218738095Y-162907200D02*
X218785714Y-162859580D01*
X218785714Y-162859580D02*
X218833333Y-162764342D01*
X218833333Y-162764342D02*
X218833333Y-161954819D01*
X219309524Y-162288152D02*
X219309524Y-163288152D01*
X219309524Y-162335771D02*
X219404762Y-162288152D01*
X219404762Y-162288152D02*
X219595238Y-162288152D01*
X219595238Y-162288152D02*
X219690476Y-162335771D01*
X219690476Y-162335771D02*
X219738095Y-162383390D01*
X219738095Y-162383390D02*
X219785714Y-162478628D01*
X219785714Y-162478628D02*
X219785714Y-162764342D01*
X219785714Y-162764342D02*
X219738095Y-162859580D01*
X219738095Y-162859580D02*
X219690476Y-162907200D01*
X219690476Y-162907200D02*
X219595238Y-162954819D01*
X219595238Y-162954819D02*
X219404762Y-162954819D01*
X219404762Y-162954819D02*
X219309524Y-162907200D01*
X167333333Y-70954819D02*
X166857143Y-70954819D01*
X166857143Y-70954819D02*
X166857143Y-69954819D01*
X167571429Y-69954819D02*
X168190476Y-69954819D01*
X168190476Y-69954819D02*
X167857143Y-70335771D01*
X167857143Y-70335771D02*
X168000000Y-70335771D01*
X168000000Y-70335771D02*
X168095238Y-70383390D01*
X168095238Y-70383390D02*
X168142857Y-70431009D01*
X168142857Y-70431009D02*
X168190476Y-70526247D01*
X168190476Y-70526247D02*
X168190476Y-70764342D01*
X168190476Y-70764342D02*
X168142857Y-70859580D01*
X168142857Y-70859580D02*
X168095238Y-70907200D01*
X168095238Y-70907200D02*
X168000000Y-70954819D01*
X168000000Y-70954819D02*
X167714286Y-70954819D01*
X167714286Y-70954819D02*
X167619048Y-70907200D01*
X167619048Y-70907200D02*
X167571429Y-70859580D01*
X140380952Y-70907200D02*
X140523809Y-70954819D01*
X140523809Y-70954819D02*
X140761904Y-70954819D01*
X140761904Y-70954819D02*
X140857142Y-70907200D01*
X140857142Y-70907200D02*
X140904761Y-70859580D01*
X140904761Y-70859580D02*
X140952380Y-70764342D01*
X140952380Y-70764342D02*
X140952380Y-70669104D01*
X140952380Y-70669104D02*
X140904761Y-70573866D01*
X140904761Y-70573866D02*
X140857142Y-70526247D01*
X140857142Y-70526247D02*
X140761904Y-70478628D01*
X140761904Y-70478628D02*
X140571428Y-70431009D01*
X140571428Y-70431009D02*
X140476190Y-70383390D01*
X140476190Y-70383390D02*
X140428571Y-70335771D01*
X140428571Y-70335771D02*
X140380952Y-70240533D01*
X140380952Y-70240533D02*
X140380952Y-70145295D01*
X140380952Y-70145295D02*
X140428571Y-70050057D01*
X140428571Y-70050057D02*
X140476190Y-70002438D01*
X140476190Y-70002438D02*
X140571428Y-69954819D01*
X140571428Y-69954819D02*
X140809523Y-69954819D01*
X140809523Y-69954819D02*
X140952380Y-70002438D01*
X141761904Y-70907200D02*
X141666666Y-70954819D01*
X141666666Y-70954819D02*
X141476190Y-70954819D01*
X141476190Y-70954819D02*
X141380952Y-70907200D01*
X141380952Y-70907200D02*
X141333333Y-70811961D01*
X141333333Y-70811961D02*
X141333333Y-70431009D01*
X141333333Y-70431009D02*
X141380952Y-70335771D01*
X141380952Y-70335771D02*
X141476190Y-70288152D01*
X141476190Y-70288152D02*
X141666666Y-70288152D01*
X141666666Y-70288152D02*
X141761904Y-70335771D01*
X141761904Y-70335771D02*
X141809523Y-70431009D01*
X141809523Y-70431009D02*
X141809523Y-70526247D01*
X141809523Y-70526247D02*
X141333333Y-70621485D01*
X142380952Y-70954819D02*
X142285714Y-70907200D01*
X142285714Y-70907200D02*
X142238095Y-70811961D01*
X142238095Y-70811961D02*
X142238095Y-69954819D01*
X143142857Y-70907200D02*
X143047619Y-70954819D01*
X143047619Y-70954819D02*
X142857143Y-70954819D01*
X142857143Y-70954819D02*
X142761905Y-70907200D01*
X142761905Y-70907200D02*
X142714286Y-70811961D01*
X142714286Y-70811961D02*
X142714286Y-70431009D01*
X142714286Y-70431009D02*
X142761905Y-70335771D01*
X142761905Y-70335771D02*
X142857143Y-70288152D01*
X142857143Y-70288152D02*
X143047619Y-70288152D01*
X143047619Y-70288152D02*
X143142857Y-70335771D01*
X143142857Y-70335771D02*
X143190476Y-70431009D01*
X143190476Y-70431009D02*
X143190476Y-70526247D01*
X143190476Y-70526247D02*
X142714286Y-70621485D01*
X144047619Y-70907200D02*
X143952381Y-70954819D01*
X143952381Y-70954819D02*
X143761905Y-70954819D01*
X143761905Y-70954819D02*
X143666667Y-70907200D01*
X143666667Y-70907200D02*
X143619048Y-70859580D01*
X143619048Y-70859580D02*
X143571429Y-70764342D01*
X143571429Y-70764342D02*
X143571429Y-70478628D01*
X143571429Y-70478628D02*
X143619048Y-70383390D01*
X143619048Y-70383390D02*
X143666667Y-70335771D01*
X143666667Y-70335771D02*
X143761905Y-70288152D01*
X143761905Y-70288152D02*
X143952381Y-70288152D01*
X143952381Y-70288152D02*
X144047619Y-70335771D01*
X144333334Y-70288152D02*
X144714286Y-70288152D01*
X144476191Y-69954819D02*
X144476191Y-70811961D01*
X144476191Y-70811961D02*
X144523810Y-70907200D01*
X144523810Y-70907200D02*
X144619048Y-70954819D01*
X144619048Y-70954819D02*
X144714286Y-70954819D01*
X327609523Y-75454819D02*
X327133333Y-75454819D01*
X327133333Y-75454819D02*
X327133333Y-74454819D01*
X328276190Y-74931009D02*
X328419047Y-74978628D01*
X328419047Y-74978628D02*
X328466666Y-75026247D01*
X328466666Y-75026247D02*
X328514285Y-75121485D01*
X328514285Y-75121485D02*
X328514285Y-75264342D01*
X328514285Y-75264342D02*
X328466666Y-75359580D01*
X328466666Y-75359580D02*
X328419047Y-75407200D01*
X328419047Y-75407200D02*
X328323809Y-75454819D01*
X328323809Y-75454819D02*
X327942857Y-75454819D01*
X327942857Y-75454819D02*
X327942857Y-74454819D01*
X327942857Y-74454819D02*
X328276190Y-74454819D01*
X328276190Y-74454819D02*
X328371428Y-74502438D01*
X328371428Y-74502438D02*
X328419047Y-74550057D01*
X328419047Y-74550057D02*
X328466666Y-74645295D01*
X328466666Y-74645295D02*
X328466666Y-74740533D01*
X328466666Y-74740533D02*
X328419047Y-74835771D01*
X328419047Y-74835771D02*
X328371428Y-74883390D01*
X328371428Y-74883390D02*
X328276190Y-74931009D01*
X328276190Y-74931009D02*
X327942857Y-74931009D01*
X258199999Y-73478628D02*
X258199999Y-73954819D01*
X257866666Y-72954819D02*
X258199999Y-73478628D01*
X258199999Y-73478628D02*
X258533332Y-72954819D01*
X259580951Y-72907200D02*
X258723809Y-74192914D01*
X259771428Y-72954819D02*
X260342856Y-72954819D01*
X260057142Y-73954819D02*
X260057142Y-72954819D01*
X260676190Y-73954819D02*
X260676190Y-73288152D01*
X260676190Y-73478628D02*
X260723809Y-73383390D01*
X260723809Y-73383390D02*
X260771428Y-73335771D01*
X260771428Y-73335771D02*
X260866666Y-73288152D01*
X260866666Y-73288152D02*
X260961904Y-73288152D01*
X261295238Y-73954819D02*
X261295238Y-73288152D01*
X261295238Y-72954819D02*
X261247619Y-73002438D01*
X261247619Y-73002438D02*
X261295238Y-73050057D01*
X261295238Y-73050057D02*
X261342857Y-73002438D01*
X261342857Y-73002438D02*
X261295238Y-72954819D01*
X261295238Y-72954819D02*
X261295238Y-73050057D01*
X262199999Y-73954819D02*
X262199999Y-73431009D01*
X262199999Y-73431009D02*
X262152380Y-73335771D01*
X262152380Y-73335771D02*
X262057142Y-73288152D01*
X262057142Y-73288152D02*
X261866666Y-73288152D01*
X261866666Y-73288152D02*
X261771428Y-73335771D01*
X262199999Y-73907200D02*
X262104761Y-73954819D01*
X262104761Y-73954819D02*
X261866666Y-73954819D01*
X261866666Y-73954819D02*
X261771428Y-73907200D01*
X261771428Y-73907200D02*
X261723809Y-73811961D01*
X261723809Y-73811961D02*
X261723809Y-73716723D01*
X261723809Y-73716723D02*
X261771428Y-73621485D01*
X261771428Y-73621485D02*
X261866666Y-73573866D01*
X261866666Y-73573866D02*
X262104761Y-73573866D01*
X262104761Y-73573866D02*
X262199999Y-73526247D01*
X262676190Y-73288152D02*
X262676190Y-73954819D01*
X262676190Y-73383390D02*
X262723809Y-73335771D01*
X262723809Y-73335771D02*
X262819047Y-73288152D01*
X262819047Y-73288152D02*
X262961904Y-73288152D01*
X262961904Y-73288152D02*
X263057142Y-73335771D01*
X263057142Y-73335771D02*
X263104761Y-73431009D01*
X263104761Y-73431009D02*
X263104761Y-73954819D01*
X264009523Y-73288152D02*
X264009523Y-74097676D01*
X264009523Y-74097676D02*
X263961904Y-74192914D01*
X263961904Y-74192914D02*
X263914285Y-74240533D01*
X263914285Y-74240533D02*
X263819047Y-74288152D01*
X263819047Y-74288152D02*
X263676190Y-74288152D01*
X263676190Y-74288152D02*
X263580952Y-74240533D01*
X264009523Y-73907200D02*
X263914285Y-73954819D01*
X263914285Y-73954819D02*
X263723809Y-73954819D01*
X263723809Y-73954819D02*
X263628571Y-73907200D01*
X263628571Y-73907200D02*
X263580952Y-73859580D01*
X263580952Y-73859580D02*
X263533333Y-73764342D01*
X263533333Y-73764342D02*
X263533333Y-73478628D01*
X263533333Y-73478628D02*
X263580952Y-73383390D01*
X263580952Y-73383390D02*
X263628571Y-73335771D01*
X263628571Y-73335771D02*
X263723809Y-73288152D01*
X263723809Y-73288152D02*
X263914285Y-73288152D01*
X263914285Y-73288152D02*
X264009523Y-73335771D01*
X264628571Y-73954819D02*
X264533333Y-73907200D01*
X264533333Y-73907200D02*
X264485714Y-73811961D01*
X264485714Y-73811961D02*
X264485714Y-72954819D01*
X265390476Y-73907200D02*
X265295238Y-73954819D01*
X265295238Y-73954819D02*
X265104762Y-73954819D01*
X265104762Y-73954819D02*
X265009524Y-73907200D01*
X265009524Y-73907200D02*
X264961905Y-73811961D01*
X264961905Y-73811961D02*
X264961905Y-73431009D01*
X264961905Y-73431009D02*
X265009524Y-73335771D01*
X265009524Y-73335771D02*
X265104762Y-73288152D01*
X265104762Y-73288152D02*
X265295238Y-73288152D01*
X265295238Y-73288152D02*
X265390476Y-73335771D01*
X265390476Y-73335771D02*
X265438095Y-73431009D01*
X265438095Y-73431009D02*
X265438095Y-73526247D01*
X265438095Y-73526247D02*
X264961905Y-73621485D01*
X200980952Y-106454819D02*
X200647619Y-105978628D01*
X200409524Y-106454819D02*
X200409524Y-105454819D01*
X200409524Y-105454819D02*
X200790476Y-105454819D01*
X200790476Y-105454819D02*
X200885714Y-105502438D01*
X200885714Y-105502438D02*
X200933333Y-105550057D01*
X200933333Y-105550057D02*
X200980952Y-105645295D01*
X200980952Y-105645295D02*
X200980952Y-105788152D01*
X200980952Y-105788152D02*
X200933333Y-105883390D01*
X200933333Y-105883390D02*
X200885714Y-105931009D01*
X200885714Y-105931009D02*
X200790476Y-105978628D01*
X200790476Y-105978628D02*
X200409524Y-105978628D01*
X201409524Y-106454819D02*
X201409524Y-105788152D01*
X201409524Y-105454819D02*
X201361905Y-105502438D01*
X201361905Y-105502438D02*
X201409524Y-105550057D01*
X201409524Y-105550057D02*
X201457143Y-105502438D01*
X201457143Y-105502438D02*
X201409524Y-105454819D01*
X201409524Y-105454819D02*
X201409524Y-105550057D01*
X202314285Y-105788152D02*
X202314285Y-106597676D01*
X202314285Y-106597676D02*
X202266666Y-106692914D01*
X202266666Y-106692914D02*
X202219047Y-106740533D01*
X202219047Y-106740533D02*
X202123809Y-106788152D01*
X202123809Y-106788152D02*
X201980952Y-106788152D01*
X201980952Y-106788152D02*
X201885714Y-106740533D01*
X202314285Y-106407200D02*
X202219047Y-106454819D01*
X202219047Y-106454819D02*
X202028571Y-106454819D01*
X202028571Y-106454819D02*
X201933333Y-106407200D01*
X201933333Y-106407200D02*
X201885714Y-106359580D01*
X201885714Y-106359580D02*
X201838095Y-106264342D01*
X201838095Y-106264342D02*
X201838095Y-105978628D01*
X201838095Y-105978628D02*
X201885714Y-105883390D01*
X201885714Y-105883390D02*
X201933333Y-105835771D01*
X201933333Y-105835771D02*
X202028571Y-105788152D01*
X202028571Y-105788152D02*
X202219047Y-105788152D01*
X202219047Y-105788152D02*
X202314285Y-105835771D01*
X202790476Y-106454819D02*
X202790476Y-105454819D01*
X203219047Y-106454819D02*
X203219047Y-105931009D01*
X203219047Y-105931009D02*
X203171428Y-105835771D01*
X203171428Y-105835771D02*
X203076190Y-105788152D01*
X203076190Y-105788152D02*
X202933333Y-105788152D01*
X202933333Y-105788152D02*
X202838095Y-105835771D01*
X202838095Y-105835771D02*
X202790476Y-105883390D01*
X203552381Y-105788152D02*
X203933333Y-105788152D01*
X203695238Y-105454819D02*
X203695238Y-106311961D01*
X203695238Y-106311961D02*
X203742857Y-106407200D01*
X203742857Y-106407200D02*
X203838095Y-106454819D01*
X203838095Y-106454819D02*
X203933333Y-106454819D01*
X179833333Y-70954819D02*
X179500000Y-70478628D01*
X179261905Y-70954819D02*
X179261905Y-69954819D01*
X179261905Y-69954819D02*
X179642857Y-69954819D01*
X179642857Y-69954819D02*
X179738095Y-70002438D01*
X179738095Y-70002438D02*
X179785714Y-70050057D01*
X179785714Y-70050057D02*
X179833333Y-70145295D01*
X179833333Y-70145295D02*
X179833333Y-70288152D01*
X179833333Y-70288152D02*
X179785714Y-70383390D01*
X179785714Y-70383390D02*
X179738095Y-70431009D01*
X179738095Y-70431009D02*
X179642857Y-70478628D01*
X179642857Y-70478628D02*
X179261905Y-70478628D01*
X180166667Y-69954819D02*
X180785714Y-69954819D01*
X180785714Y-69954819D02*
X180452381Y-70335771D01*
X180452381Y-70335771D02*
X180595238Y-70335771D01*
X180595238Y-70335771D02*
X180690476Y-70383390D01*
X180690476Y-70383390D02*
X180738095Y-70431009D01*
X180738095Y-70431009D02*
X180785714Y-70526247D01*
X180785714Y-70526247D02*
X180785714Y-70764342D01*
X180785714Y-70764342D02*
X180738095Y-70859580D01*
X180738095Y-70859580D02*
X180690476Y-70907200D01*
X180690476Y-70907200D02*
X180595238Y-70954819D01*
X180595238Y-70954819D02*
X180309524Y-70954819D01*
X180309524Y-70954819D02*
X180214286Y-70907200D01*
X180214286Y-70907200D02*
X180166667Y-70859580D01*
X229071428Y-90454819D02*
X229738094Y-91454819D01*
X229738094Y-90454819D02*
X229071428Y-91454819D01*
X230833332Y-90407200D02*
X229976190Y-91692914D01*
X231119047Y-91407200D02*
X231261904Y-91454819D01*
X231261904Y-91454819D02*
X231499999Y-91454819D01*
X231499999Y-91454819D02*
X231595237Y-91407200D01*
X231595237Y-91407200D02*
X231642856Y-91359580D01*
X231642856Y-91359580D02*
X231690475Y-91264342D01*
X231690475Y-91264342D02*
X231690475Y-91169104D01*
X231690475Y-91169104D02*
X231642856Y-91073866D01*
X231642856Y-91073866D02*
X231595237Y-91026247D01*
X231595237Y-91026247D02*
X231499999Y-90978628D01*
X231499999Y-90978628D02*
X231309523Y-90931009D01*
X231309523Y-90931009D02*
X231214285Y-90883390D01*
X231214285Y-90883390D02*
X231166666Y-90835771D01*
X231166666Y-90835771D02*
X231119047Y-90740533D01*
X231119047Y-90740533D02*
X231119047Y-90645295D01*
X231119047Y-90645295D02*
X231166666Y-90550057D01*
X231166666Y-90550057D02*
X231214285Y-90502438D01*
X231214285Y-90502438D02*
X231309523Y-90454819D01*
X231309523Y-90454819D02*
X231547618Y-90454819D01*
X231547618Y-90454819D02*
X231690475Y-90502438D01*
X232547618Y-90788152D02*
X232547618Y-91788152D01*
X232547618Y-91407200D02*
X232452380Y-91454819D01*
X232452380Y-91454819D02*
X232261904Y-91454819D01*
X232261904Y-91454819D02*
X232166666Y-91407200D01*
X232166666Y-91407200D02*
X232119047Y-91359580D01*
X232119047Y-91359580D02*
X232071428Y-91264342D01*
X232071428Y-91264342D02*
X232071428Y-90978628D01*
X232071428Y-90978628D02*
X232119047Y-90883390D01*
X232119047Y-90883390D02*
X232166666Y-90835771D01*
X232166666Y-90835771D02*
X232261904Y-90788152D01*
X232261904Y-90788152D02*
X232452380Y-90788152D01*
X232452380Y-90788152D02*
X232547618Y-90835771D01*
X233452380Y-90788152D02*
X233452380Y-91454819D01*
X233023809Y-90788152D02*
X233023809Y-91311961D01*
X233023809Y-91311961D02*
X233071428Y-91407200D01*
X233071428Y-91407200D02*
X233166666Y-91454819D01*
X233166666Y-91454819D02*
X233309523Y-91454819D01*
X233309523Y-91454819D02*
X233404761Y-91407200D01*
X233404761Y-91407200D02*
X233452380Y-91359580D01*
X234357142Y-91454819D02*
X234357142Y-90931009D01*
X234357142Y-90931009D02*
X234309523Y-90835771D01*
X234309523Y-90835771D02*
X234214285Y-90788152D01*
X234214285Y-90788152D02*
X234023809Y-90788152D01*
X234023809Y-90788152D02*
X233928571Y-90835771D01*
X234357142Y-91407200D02*
X234261904Y-91454819D01*
X234261904Y-91454819D02*
X234023809Y-91454819D01*
X234023809Y-91454819D02*
X233928571Y-91407200D01*
X233928571Y-91407200D02*
X233880952Y-91311961D01*
X233880952Y-91311961D02*
X233880952Y-91216723D01*
X233880952Y-91216723D02*
X233928571Y-91121485D01*
X233928571Y-91121485D02*
X234023809Y-91073866D01*
X234023809Y-91073866D02*
X234261904Y-91073866D01*
X234261904Y-91073866D02*
X234357142Y-91026247D01*
X234833333Y-91454819D02*
X234833333Y-90788152D01*
X234833333Y-90978628D02*
X234880952Y-90883390D01*
X234880952Y-90883390D02*
X234928571Y-90835771D01*
X234928571Y-90835771D02*
X235023809Y-90788152D01*
X235023809Y-90788152D02*
X235119047Y-90788152D01*
X235833333Y-91407200D02*
X235738095Y-91454819D01*
X235738095Y-91454819D02*
X235547619Y-91454819D01*
X235547619Y-91454819D02*
X235452381Y-91407200D01*
X235452381Y-91407200D02*
X235404762Y-91311961D01*
X235404762Y-91311961D02*
X235404762Y-90931009D01*
X235404762Y-90931009D02*
X235452381Y-90835771D01*
X235452381Y-90835771D02*
X235547619Y-90788152D01*
X235547619Y-90788152D02*
X235738095Y-90788152D01*
X235738095Y-90788152D02*
X235833333Y-90835771D01*
X235833333Y-90835771D02*
X235880952Y-90931009D01*
X235880952Y-90931009D02*
X235880952Y-91026247D01*
X235880952Y-91026247D02*
X235404762Y-91121485D01*
X228914286Y-124454819D02*
X229580952Y-125454819D01*
X229580952Y-124454819D02*
X228914286Y-125454819D01*
X230676190Y-124407200D02*
X229819048Y-125692914D01*
X230961905Y-125169104D02*
X231438095Y-125169104D01*
X230866667Y-125454819D02*
X231200000Y-124454819D01*
X231200000Y-124454819D02*
X231533333Y-125454819D01*
X153380952Y-70907200D02*
X153523809Y-70954819D01*
X153523809Y-70954819D02*
X153761904Y-70954819D01*
X153761904Y-70954819D02*
X153857142Y-70907200D01*
X153857142Y-70907200D02*
X153904761Y-70859580D01*
X153904761Y-70859580D02*
X153952380Y-70764342D01*
X153952380Y-70764342D02*
X153952380Y-70669104D01*
X153952380Y-70669104D02*
X153904761Y-70573866D01*
X153904761Y-70573866D02*
X153857142Y-70526247D01*
X153857142Y-70526247D02*
X153761904Y-70478628D01*
X153761904Y-70478628D02*
X153571428Y-70431009D01*
X153571428Y-70431009D02*
X153476190Y-70383390D01*
X153476190Y-70383390D02*
X153428571Y-70335771D01*
X153428571Y-70335771D02*
X153380952Y-70240533D01*
X153380952Y-70240533D02*
X153380952Y-70145295D01*
X153380952Y-70145295D02*
X153428571Y-70050057D01*
X153428571Y-70050057D02*
X153476190Y-70002438D01*
X153476190Y-70002438D02*
X153571428Y-69954819D01*
X153571428Y-69954819D02*
X153809523Y-69954819D01*
X153809523Y-69954819D02*
X153952380Y-70002438D01*
X154238095Y-70288152D02*
X154619047Y-70288152D01*
X154380952Y-69954819D02*
X154380952Y-70811961D01*
X154380952Y-70811961D02*
X154428571Y-70907200D01*
X154428571Y-70907200D02*
X154523809Y-70954819D01*
X154523809Y-70954819D02*
X154619047Y-70954819D01*
X155380952Y-70954819D02*
X155380952Y-70431009D01*
X155380952Y-70431009D02*
X155333333Y-70335771D01*
X155333333Y-70335771D02*
X155238095Y-70288152D01*
X155238095Y-70288152D02*
X155047619Y-70288152D01*
X155047619Y-70288152D02*
X154952381Y-70335771D01*
X155380952Y-70907200D02*
X155285714Y-70954819D01*
X155285714Y-70954819D02*
X155047619Y-70954819D01*
X155047619Y-70954819D02*
X154952381Y-70907200D01*
X154952381Y-70907200D02*
X154904762Y-70811961D01*
X154904762Y-70811961D02*
X154904762Y-70716723D01*
X154904762Y-70716723D02*
X154952381Y-70621485D01*
X154952381Y-70621485D02*
X155047619Y-70573866D01*
X155047619Y-70573866D02*
X155285714Y-70573866D01*
X155285714Y-70573866D02*
X155380952Y-70526247D01*
X155857143Y-70954819D02*
X155857143Y-70288152D01*
X155857143Y-70478628D02*
X155904762Y-70383390D01*
X155904762Y-70383390D02*
X155952381Y-70335771D01*
X155952381Y-70335771D02*
X156047619Y-70288152D01*
X156047619Y-70288152D02*
X156142857Y-70288152D01*
X156333334Y-70288152D02*
X156714286Y-70288152D01*
X156476191Y-69954819D02*
X156476191Y-70811961D01*
X156476191Y-70811961D02*
X156523810Y-70907200D01*
X156523810Y-70907200D02*
X156619048Y-70954819D01*
X156619048Y-70954819D02*
X156714286Y-70954819D01*
X295228571Y-108454819D02*
X294895238Y-107978628D01*
X294657143Y-108454819D02*
X294657143Y-107454819D01*
X294657143Y-107454819D02*
X295038095Y-107454819D01*
X295038095Y-107454819D02*
X295133333Y-107502438D01*
X295133333Y-107502438D02*
X295180952Y-107550057D01*
X295180952Y-107550057D02*
X295228571Y-107645295D01*
X295228571Y-107645295D02*
X295228571Y-107788152D01*
X295228571Y-107788152D02*
X295180952Y-107883390D01*
X295180952Y-107883390D02*
X295133333Y-107931009D01*
X295133333Y-107931009D02*
X295038095Y-107978628D01*
X295038095Y-107978628D02*
X294657143Y-107978628D01*
X295514286Y-107454819D02*
X296085714Y-107454819D01*
X295800000Y-108454819D02*
X295800000Y-107454819D01*
X295609523Y-74454819D02*
X295276190Y-73978628D01*
X295038095Y-74454819D02*
X295038095Y-73454819D01*
X295038095Y-73454819D02*
X295419047Y-73454819D01*
X295419047Y-73454819D02*
X295514285Y-73502438D01*
X295514285Y-73502438D02*
X295561904Y-73550057D01*
X295561904Y-73550057D02*
X295609523Y-73645295D01*
X295609523Y-73645295D02*
X295609523Y-73788152D01*
X295609523Y-73788152D02*
X295561904Y-73883390D01*
X295561904Y-73883390D02*
X295514285Y-73931009D01*
X295514285Y-73931009D02*
X295419047Y-73978628D01*
X295419047Y-73978628D02*
X295038095Y-73978628D01*
X296371428Y-73931009D02*
X296514285Y-73978628D01*
X296514285Y-73978628D02*
X296561904Y-74026247D01*
X296561904Y-74026247D02*
X296609523Y-74121485D01*
X296609523Y-74121485D02*
X296609523Y-74264342D01*
X296609523Y-74264342D02*
X296561904Y-74359580D01*
X296561904Y-74359580D02*
X296514285Y-74407200D01*
X296514285Y-74407200D02*
X296419047Y-74454819D01*
X296419047Y-74454819D02*
X296038095Y-74454819D01*
X296038095Y-74454819D02*
X296038095Y-73454819D01*
X296038095Y-73454819D02*
X296371428Y-73454819D01*
X296371428Y-73454819D02*
X296466666Y-73502438D01*
X296466666Y-73502438D02*
X296514285Y-73550057D01*
X296514285Y-73550057D02*
X296561904Y-73645295D01*
X296561904Y-73645295D02*
X296561904Y-73740533D01*
X296561904Y-73740533D02*
X296514285Y-73835771D01*
X296514285Y-73835771D02*
X296466666Y-73883390D01*
X296466666Y-73883390D02*
X296371428Y-73931009D01*
X296371428Y-73931009D02*
X296038095Y-73931009D01*
D12*
%TO.C,Home*%
X129250000Y-68500000D02*
X130750000Y-68500000D01*
X133250000Y-67250000D02*
X133250000Y-62750000D01*
X126750000Y-62750000D02*
X126750000Y-67250000D01*
X130750000Y-61500000D02*
X129250000Y-61500000D01*
D11*
%TO.C,B/Circle*%
X254500000Y-110350000D02*
X254500000Y-109350000D01*
X254500000Y-123350000D02*
X254500000Y-122350000D01*
X254500000Y-123350000D02*
X255500000Y-123350000D01*
X255500000Y-109350000D02*
X254500000Y-109350000D01*
X267500000Y-123350000D02*
X268500000Y-123350000D01*
X268500000Y-109350000D02*
X267500000Y-109350000D01*
X268500000Y-109350000D02*
X268500000Y-110350000D01*
X268500000Y-122350000D02*
X268500000Y-123350000D01*
%TO.C,Up*%
X165800000Y-93550000D02*
X165800000Y-92550000D01*
X165800000Y-106550000D02*
X165800000Y-105550000D01*
X165800000Y-106550000D02*
X166800000Y-106550000D01*
X166800000Y-92550000D02*
X165800000Y-92550000D01*
X178800000Y-106550000D02*
X179800000Y-106550000D01*
X179800000Y-92550000D02*
X178800000Y-92550000D01*
X179800000Y-92550000D02*
X179800000Y-93550000D01*
X179800000Y-105550000D02*
X179800000Y-106550000D01*
%TO.C,Left*%
X132100000Y-91550000D02*
X132100000Y-90550000D01*
X132100000Y-104550000D02*
X132100000Y-103550000D01*
X132100000Y-104550000D02*
X133100000Y-104550000D01*
X133100000Y-90550000D02*
X132100000Y-90550000D01*
X145100000Y-104550000D02*
X146100000Y-104550000D01*
X146100000Y-90550000D02*
X145100000Y-90550000D01*
X146100000Y-90550000D02*
X146100000Y-91550000D01*
X146100000Y-103550000D02*
X146100000Y-104550000D01*
%TO.C,LT*%
X321000000Y-111650000D02*
X321000000Y-110650000D01*
X321000000Y-124650000D02*
X321000000Y-123650000D01*
X321000000Y-124650000D02*
X322000000Y-124650000D01*
X322000000Y-110650000D02*
X321000000Y-110650000D01*
X334000000Y-124650000D02*
X335000000Y-124650000D01*
X335000000Y-110650000D02*
X334000000Y-110650000D01*
X335000000Y-110650000D02*
X335000000Y-111650000D01*
X335000000Y-123650000D02*
X335000000Y-124650000D01*
%TO.C,Up*%
X212000000Y-165250000D02*
X212000000Y-164250000D01*
X212000000Y-178250000D02*
X212000000Y-177250000D01*
X212000000Y-178250000D02*
X213000000Y-178250000D01*
X213000000Y-164250000D02*
X212000000Y-164250000D01*
X225000000Y-178250000D02*
X226000000Y-178250000D01*
X226000000Y-164250000D02*
X225000000Y-164250000D01*
X226000000Y-164250000D02*
X226000000Y-165250000D01*
X226000000Y-177250000D02*
X226000000Y-178250000D01*
D12*
%TO.C,L3*%
X164250000Y-62750000D02*
X164250000Y-67250000D01*
X166750000Y-68500000D02*
X168250000Y-68500000D01*
X168250000Y-61500000D02*
X166750000Y-61500000D01*
X170750000Y-67250000D02*
X170750000Y-62750000D01*
%TO.C,Select*%
X139250000Y-62750000D02*
X139250000Y-67250000D01*
X141750000Y-68500000D02*
X143250000Y-68500000D01*
X143250000Y-61500000D02*
X141750000Y-61500000D01*
X145750000Y-67250000D02*
X145750000Y-62750000D01*
D11*
%TO.C,LB*%
X320800000Y-77650000D02*
X320800000Y-76650000D01*
X320800000Y-90650000D02*
X320800000Y-89650000D01*
X320800000Y-90650000D02*
X321800000Y-90650000D01*
X321800000Y-76650000D02*
X320800000Y-76650000D01*
X333800000Y-90650000D02*
X334800000Y-90650000D01*
X334800000Y-76650000D02*
X333800000Y-76650000D01*
X334800000Y-76650000D02*
X334800000Y-77650000D01*
X334800000Y-89650000D02*
X334800000Y-90650000D01*
%TO.C,Y/Triangle*%
X268700000Y-88350000D02*
X268700000Y-89350000D01*
X268700000Y-75350000D02*
X268700000Y-76350000D01*
X268700000Y-75350000D02*
X267700000Y-75350000D01*
X267700000Y-89350000D02*
X268700000Y-89350000D01*
X255700000Y-75350000D02*
X254700000Y-75350000D01*
X254700000Y-89350000D02*
X255700000Y-89350000D01*
X254700000Y-89350000D02*
X254700000Y-88350000D01*
X254700000Y-76350000D02*
X254700000Y-75350000D01*
%TO.C,Right*%
X195100000Y-108850000D02*
X195100000Y-107850000D01*
X195100000Y-121850000D02*
X195100000Y-120850000D01*
X195100000Y-121850000D02*
X196100000Y-121850000D01*
X196100000Y-107850000D02*
X195100000Y-107850000D01*
X208100000Y-121850000D02*
X209100000Y-121850000D01*
X209100000Y-107850000D02*
X208100000Y-107850000D01*
X209100000Y-107850000D02*
X209100000Y-108850000D01*
X209100000Y-120850000D02*
X209100000Y-121850000D01*
D12*
%TO.C,R3*%
X176750000Y-62750000D02*
X176750000Y-67250000D01*
X179250000Y-68500000D02*
X180750000Y-68500000D01*
X180750000Y-61500000D02*
X179250000Y-61500000D01*
X183250000Y-67250000D02*
X183250000Y-62750000D01*
D11*
%TO.C,X/Square*%
X225500000Y-93850000D02*
X225500000Y-92850000D01*
X225500000Y-106850000D02*
X225500000Y-105850000D01*
X225500000Y-106850000D02*
X226500000Y-106850000D01*
X226500000Y-92850000D02*
X225500000Y-92850000D01*
X238500000Y-106850000D02*
X239500000Y-106850000D01*
X239500000Y-92850000D02*
X238500000Y-92850000D01*
X239500000Y-92850000D02*
X239500000Y-93850000D01*
X239500000Y-105850000D02*
X239500000Y-106850000D01*
%TO.C,X/A*%
X223200000Y-127950000D02*
X223200000Y-126950000D01*
X223200000Y-140950000D02*
X223200000Y-139950000D01*
X223200000Y-140950000D02*
X224200000Y-140950000D01*
X224200000Y-126950000D02*
X223200000Y-126950000D01*
X236200000Y-140950000D02*
X237200000Y-140950000D01*
X237200000Y-126950000D02*
X236200000Y-126950000D01*
X237200000Y-126950000D02*
X237200000Y-127950000D01*
X237200000Y-139950000D02*
X237200000Y-140950000D01*
D12*
%TO.C,Start*%
X151750000Y-62750000D02*
X151750000Y-67250000D01*
X154250000Y-68500000D02*
X155750000Y-68500000D01*
X155750000Y-61500000D02*
X154250000Y-61500000D01*
X158250000Y-67250000D02*
X158250000Y-62750000D01*
D11*
%TO.C,RT*%
X288300000Y-110650000D02*
X288300000Y-109650000D01*
X288300000Y-123650000D02*
X288300000Y-122650000D01*
X288300000Y-123650000D02*
X289300000Y-123650000D01*
X289300000Y-109650000D02*
X288300000Y-109650000D01*
X301300000Y-123650000D02*
X302300000Y-123650000D01*
X302300000Y-109650000D02*
X301300000Y-109650000D01*
X302300000Y-109650000D02*
X302300000Y-110650000D01*
X302300000Y-122650000D02*
X302300000Y-123650000D01*
%TO.C,RB*%
X288800000Y-76550000D02*
X288800000Y-75550000D01*
X288800000Y-89550000D02*
X288800000Y-88550000D01*
X288800000Y-89550000D02*
X289800000Y-89550000D01*
X289800000Y-75550000D02*
X288800000Y-75550000D01*
X301800000Y-89550000D02*
X302800000Y-89550000D01*
X302800000Y-75550000D02*
X301800000Y-75550000D01*
X302800000Y-75550000D02*
X302800000Y-76550000D01*
X302800000Y-88550000D02*
X302800000Y-89550000D01*
%TD*%
M02*
